<?xml version="1.0" encoding="utf-8"?>
<!DOCTYPE svg PUBLIC "-//W3C//DTD SVG 20010904//EN" "http://www.w3.org/TR/2001/REC-SVG-20010904/DTD/svg10.dtd">
<svg version="1.0" xmlns="http://www.w3.org/2000/svg" width="435px" height="137px" viewBox="0 0 435 137" preserveAspectRatio="xMidYMid meet">
 <g fill="#86bd85">
  <path d="M0 68.5 l0 -68.5 217.5 0 217.5 0 0 36.5 0 36.5 -2.8 0 c-2 0 -4 -1.3 -7.2 -4.6 -4.9 -5 -8.8 -7.4 -11.9 -7.4 -1 0 -2.2 -0.6 -2.4 -1.2 -0.4 -1 -0.6 -1 -0.6 0 -0.1 0.6 -0.8 1.2 -1.7 1.2 -2.2 0 -8.2 4.8 -8.9 7.1 -0.4 1.2 -1.6 1.9 -3.3 1.9 -2.3 0.1 -2.5 0.2 -0.9 1.1 1.2 0.7 1.7 2.2 1.7 5 0 5.2 2.2 9.3 8.1 15.2 7 6.9 12.9 8.4 20.4 5.3 3.8 -1.6 4.3 -2.9 2 -5.2 -0.8 -0.9 -1.5 -3.1 -1.5 -5 0 -3.4 0 -3.4 4.5 -3.4 l4.5 0 0 27 0 27 -217.5 0 -217.5 0 0 -68.5z m249.4 30.5 c1.6 0 8.4 3 15.2 6.6 6.8 3.6 12.4 6.2 12.4 5.7 0 -0.5 -0.9 -5.8 -2 -11.8 -1.1 -6 -2 -13 -2 -15.6 0 -4.7 0 -4.8 10 -14 5.5 -5.1 10 -9.5 10 -9.9 0 -0.3 -6.8 -1.6 -15.2 -2.8 -8.3 -1.2 -15.3 -2.3 -15.4 -2.5 -0.2 -0.2 -3.2 -6.2 -6.7 -13.4 l-6.3 -13.2 -6.6 13.3 -6.6 13.3 -7.9 1.2 c-4.3 0.6 -11.2 1.6 -15.3 2.2 -4.1 0.6 -7.6 1.1 -7.7 1.3 -0.2 0.2 4.4 4.9 10.2 10.4 12 11.7 11.5 10 8.5 27.2 -1.1 6.3 -2 12.3 -2 13.3 0 1.4 2.3 0.5 12.3 -4.8 6.8 -3.6 13.6 -6.5 15.1 -6.5z m-226.4 -3 c5.2 -2.7 10.1 -2.6 11.8 0.1 1.1 1.6 1.6 1.8 2.8 0.9 1.7 -1.5 2 -16.4 0.5 -21.8 -1.4 -4.7 -8.7 -12 -13.6 -13.4 -2.2 -0.7 -4.3 -1.7 -4.7 -2.3 -0.5 -0.6 -0.8 -0.6 -0.8 0.3 0 0.7 -1.3 1.2 -2.9 1.2 -1.6 0 -3.5 0.7 -4.2 1.6 -1.1 1.4 -1.1 1.8 0.5 2.9 2.5 1.9 1.8 7.7 -1.1 9 -1.3 0.5 -2.3 1.3 -2.3 1.8 0 0.4 -1 2.1 -2.1 3.7 -1.5 1.9 -2 3.6 -1.5 5.2 0.8 3.1 10 12.8 12 12.8 0.9 0 3.4 -0.9 5.6 -2z m35.4 1.4 c1.3 -0.5 1.6 -2.2 1.6 -8.5 l0 -7.9 4.4 0 c3.4 0 4.6 0.4 5 1.8 0.4 0.9 3.1 4.3 6.1 7.4 6.4 6.8 11.1 8.6 18.2 7.2 4.7 -0.9 8.2 -4.2 5.6 -5.1 -1.8 -0.7 -1.7 -9.3 0.1 -9.3 0.7 0 1.9 -0.7 2.6 -1.5 2 -2.4 -0.7 -8.3 -6.2 -13.4 -6.6 -6.1 -8.4 -7 -13.8 -7.1 -4 0 -4.8 0.4 -9.2 5 -4.2 4.4 -5.3 5 -8.8 5 l-4 0 0 -8.8 c0 -8.4 -0.1 -9 -2.8 -11.5 -1.9 -1.8 -3.9 -2.7 -6 -2.7 l-3.2 0 0 22 c0 18.9 0.2 22 1.5 22 0.8 0 1.5 0.5 1.5 1.2 0 1.6 3 4.8 4.6 4.8 0.7 0 1.9 -0.3 2.8 -0.6z m63.5 -3.6 c2.1 -3.2 3 -3.8 6 -3.8 3.5 0 5.8 1.5 9.9 6.5 1.2 1.4 5.2 2.2 5.2 1 0 -0.3 -1.6 -3.1 -3.5 -6.1 -2.7 -4.2 -3.5 -6.5 -3.5 -10 0 -3.4 0.8 -5.8 3.5 -10 1.9 -3 3.5 -6 3.5 -6.7 0 -2.3 -2.3 -3.7 -6.2 -3.7 -3.3 0 -4.2 0.5 -5.6 3.1 -1.6 2.9 -1.9 3 -6.6 2.5 -3.7 -0.4 -5.6 -1.2 -7.2 -3.1 -1.8 -2.2 -6.4 -3.6 -6.4 -2 0 0.3 1.6 3.1 3.5 6.1 4.7 7.3 4.5 10.2 -0.9 18.9 l-4.4 6.9 2.1 2.3 c3.3 3.5 7.6 2.7 10.6 -1.9z m70.7 2.6 c6.5 -3.1 8.2 -8.4 3.9 -12.2 -1.4 -1.2 -2.5 -2.6 -2.5 -3 0 -0.5 -1.1 -1.5 -2.5 -2.2 -2.2 -1.2 -2.5 -2 -2.3 -4.9 0.3 -3.3 0.6 -3.6 3.7 -4.1 4.1 -0.6 4.8 -1.9 2.4 -4.6 -2.4 -2.5 -7.9 -4.4 -13.1 -4.4 -3.2 0 -5 0.7 -7.2 2.7 -4.6 4 -4 6.4 3.5 13.8 5.1 5.1 6.5 7.1 6.5 9.5 0 2.6 -0.4 3 -2.7 3 -1.6 -0.1 -4.7 -0.5 -7 -0.9 -4.2 -0.8 -5.7 0 -3 1.6 0.8 0.4 2.2 2 3.1 3.5 1 1.5 2.7 2.9 3.9 3.1 5 1 10.1 0.6 13.3 -0.9z m138.4 0.1 c1.5 -0.8 3.7 -2.6 4.8 -4 1.5 -1.9 2.9 -2.5 6.1 -2.5 2.3 0 4.1 0.5 4.1 1 0 0.6 0.7 1 1.5 1 0.8 0 1.5 0.6 1.5 1.3 0 2.5 3.7 5 6.5 4.3 l2.5 -0.6 0 -15.1 c0 -12 -0.3 -15.3 -1.5 -16.5 -2 -2 -1.9 -7.3 0.1 -9.5 1.4 -1.6 1.3 -2 -2.1 -5.1 -3.7 -3.3 -6.5 -4.2 -7.2 -2.3 -0.2 0.6 0.6 2.1 1.7 3.3 1.2 1.3 2 3.5 2 5.7 0 3.1 -0.3 3.5 -2.5 3.5 l-2.5 0 0 13 0 13 -4 0 c-3.1 0 -4.7 -0.6 -6.5 -2.6 -1.4 -1.5 -2.5 -3 -2.5 -3.4 0 -0.4 -1.1 -1.3 -2.5 -2 -2.2 -1.2 -2.5 -2 -2.3 -4.9 0.3 -3.3 0.6 -3.6 3.7 -4.1 4.1 -0.6 4.8 -1.9 2.4 -4.6 -2.4 -2.5 -7.9 -4.4 -13.1 -4.4 -3.2 0 -5 0.7 -7.2 2.7 -4.3 3.8 -3.8 6.4 2 12.4 2.8 2.8 5 5.5 5 6 0 0.5 0.7 0.9 1.5 0.9 1 0 1.5 1.1 1.5 3.5 0 3.2 -0.3 3.5 -2.7 3.5 -1.6 -0.1 -4.7 -0.5 -7 -0.9 -4.2 -0.8 -5.6 0 -3 1.6 0.7 0.4 2 2 2.9 3.5 1 1.4 2.8 2.9 4 3.1 5 0.9 10 0.6 12.8 -0.8z m57.5 0.3 c1.4 -0.6 2.5 -1.7 2.5 -2.3 0 -2 -4.8 -6.5 -7 -6.5 -1.9 0 -2 -0.6 -2 -9 l0 -9 5 0 c2.8 0 5 -0.4 5 -1 0 -1.5 -7.2 -8 -8.9 -8 -0.9 0 -2.2 -0.9 -2.9 -2 -0.7 -1.1 -1.9 -2 -2.7 -2 -0.8 0 -1.5 -0.7 -1.5 -1.5 0 -2.9 -2.2 -1.5 -3.7 2.4 -0.8 2.1 -2.6 4.5 -3.9 5.2 -1.8 0.9 -2.1 1.5 -1.2 2 0.8 0.5 1.5 4.6 1.9 10.9 0.6 8.2 1.2 10.7 3.1 13.5 1.2 1.9 2.9 3.5 3.6 3.5 0.6 0 1.2 0.6 1.2 1.3 0 3 7 4.6 11.5 2.5z m-227.1 -31.4 c2.4 -6.2 -1.2 -14.4 -6.3 -14.4 -2.5 0 -2.6 0.2 -2.3 5.5 0.3 3.9 0.8 5.5 1.8 5.5 0.8 0 1.4 0.6 1.4 1.3 0 3.2 4.3 4.9 5.4 2.1z"/>
 </g>
 <g fill="#ffffff">
  <path d="M217 118.5 c0 -0.9 4.8 -30 5.6 -33.7 0.4 -2.1 0.2 -2.8 -1 -2.8 -0.9 0 -1.5 -0.3 -1.4 -0.7 0.1 -0.5 -4.9 -5.8 -11.2 -11.9 -10.4 -10.3 -11.2 -11.3 -9.8 -12.8 1.2 -1.1 2.6 -1.4 4.7 -1 1.7 0.4 3.1 0.2 3.1 -0.2 0 -0.5 2.8 -0.9 6.2 -0.9 4.1 0 6.3 -0.5 6.6 -1.3 0.3 -0.9 1.5 -1.1 3.8 -0.6 2.3 0.4 3.4 0.2 3.4 -0.6 0 -0.8 1 -0.9 3 -0.5 2.9 0.6 2.9 0.6 11 -15.4 4.4 -8.9 8.2 -16.1 8.5 -16.1 0.3 0 4 7.2 8.2 16.1 6.3 13.2 8 16 9.5 15.6 1 -0.3 1.8 -0.1 1.8 0.5 0 0.6 1.5 0.8 3.5 0.6 1.9 -0.2 3.5 0 3.5 0.5 0 0.5 1.6 0.7 3.5 0.5 1.9 -0.2 3.5 -0.1 3.5 0.3 0 0.3 4.1 1.2 9 1.8 5 0.7 9 1.6 9 1.9 0.1 0.4 -5.7 6.1 -12.7 12.8 l-12.7 12.1 3.1 17.9 c1.7 9.8 3 18 2.9 18.1 -0.1 0.2 -7.4 -3.5 -16.2 -8.1 l-15.9 -8.4 -16.2 8.5 c-9 4.6 -16.3 8.1 -16.3 7.8z"/>
  <path d="M5.7 93.3 c-3.1 -3.8 -3.7 -5.1 -3.7 -9.2 0 -3.3 0.6 -5.6 2 -7.4 1.1 -1.4 2 -3 2 -3.6 0 -0.6 0.6 -1.1 1.4 -1.1 0.7 0 1.9 -0.7 2.6 -1.5 0.9 -1.1 0.9 -1.5 0.1 -1.5 -1.1 0 -4.1 -5.8 -4.1 -8 0 -0.5 0.7 -1 1.5 -1 0.9 0 1.8 -0.7 2.2 -1.6 0.4 -1.1 1.3 -1.4 3 -0.9 1.5 0.3 3 0 3.9 -1 1.9 -1.8 5 -2 6.1 -0.2 0.4 0.7 2.6 1.8 4.9 2.5 2.4 0.7 5.5 2.7 7.5 4.9 l3.5 3.8 -0.4 15.2 -0.4 15.2 -6.9 -0.1 c-5.3 0 -6.9 -0.4 -6.9 -1.5 0 -1 -0.5 -1.1 -1.7 -0.5 -1 0.5 -4.3 1.2 -7.3 1.4 -5.5 0.5 -5.5 0.5 -9.3 -3.9z"/>
  <path d="M48 96.5 c0 -0.8 -0.7 -1.5 -1.5 -1.5 -1.3 0 -1.5 -3.4 -1.5 -25 l0 -25 5.5 0 c3.4 0 5.5 -0.4 5.5 -1.1 0 -0.7 0.8 -0.1 1.8 1.2 1.5 2.2 1.7 4.9 1.4 27.7 l-0.3 25.2 -5.4 0 c-4.2 0 -5.5 -0.4 -5.5 -1.5z"/>
  <path d="M71.2 91.8 c-2.9 -3.3 -5.2 -6.3 -5.2 -6.8 0 -1.5 -2.8 -1.2 -3.3 0.3 -0.3 0.6 -0.6 -3.2 -0.6 -8.5 -0.1 -8.1 0.1 -9.6 1.3 -9.2 1.5 0.6 10.6 -8 10.6 -9.9 0 -0.5 1.1 -0.6 2.4 -0.3 1.6 0.4 2.6 0.1 3 -0.9 0.7 -2 4.3 -1.9 5.4 0.1 0.6 1 1.7 1.5 2.9 1.2 1 -0.3 2.4 0 3.1 0.6 0.6 0.6 3.6 3.1 6.7 5.6 l5.4 4.5 0.1 7.3 c0 4.1 -0.4 7.2 -1 7.2 -0.5 0 -1 1.6 -1 3.6 0 1.9 0.4 3.3 0.9 2.9 0.6 -0.3 1.6 0.1 2.3 0.8 1.1 1.2 2.1 0.2 6.1 -6.3 l4.8 -7.8 -5.1 -8 c-2.7 -4.3 -5 -8.4 -5 -9 0 -0.8 2.3 -1.2 6.6 -1.2 5.8 0 6.9 0.3 8.8 2.4 3.1 3.6 5.8 3.7 7.8 0.4 1.7 -2.6 2.2 -2.8 8.7 -2.8 8.2 0 10.3 1.4 8 5.7 -3 5.8 -3.4 6.3 -4.1 6.3 -0.5 0 -0.8 0.5 -0.8 1.1 0 0.6 -0.7 1.7 -1.5 2.5 -1.1 1.1 -1.2 2 -0.5 3.4 0.6 1 1 2.8 1 3.9 0 1.1 1.8 4.9 4 8.3 2.2 3.5 4 6.9 4 7.6 0 1.3 -14 1.8 -14 0.5 0 -0.5 -1.2 -1.6 -2.6 -2.6 -2 -1.5 -2.8 -1.6 -3.9 -0.7 -1.1 0.9 -1.5 0.9 -1.5 0.1 0 -2.2 -3 -1 -3.6 1.4 -0.6 2.3 -1 2.5 -6.9 2.5 -6.9 0 -9.8 -0.7 -8.9 -2.1 0.3 -0.5 -0.2 -0.9 -1 -0.9 -0.9 0 -1.6 0.7 -1.6 1.5 0 0.8 -0.4 1.5 -1 1.5 -0.5 0 -1 -0.7 -1 -1.6 0 -1.3 -0.6 -1.5 -2.7 -0.9 -1.5 0.3 -3 1 -3.3 1.4 -0.3 0.5 -4.6 0.8 -9.5 0.8 l-9.1 0 -5.2 -5.9z"/>
  <path d="M171.5 96.4 c-1 -0.8 -1.5 -1.4 -0.9 -1.4 0.5 0 0.1 -0.5 -0.8 -1.1 -1.3 -0.7 -1.8 -2.3 -1.8 -5.4 0 -4.3 0 -4.4 3.5 -4.2 1.9 0.1 3.5 0.5 3.5 1 0 0.4 1.1 0.7 2.5 0.7 1.4 0 2.5 -0.2 2.5 -0.5 0 -0.2 -2.4 -2.9 -5.4 -5.8 -3 -3 -5.7 -6.4 -6.1 -7.7 -1.1 -3.5 0.4 -8.7 3 -10.9 1.4 -1 2.5 -2.4 2.5 -3.1 0 -0.8 0.9 -1 2.4 -0.6 1.6 0.4 2.6 0.1 3 -0.9 0.7 -2 4.3 -1.9 5.4 0.1 0.6 1.2 1.8 1.5 3.6 1.2 1.4 -0.3 2.6 -0.1 2.6 0.3 0 0.5 1.2 1.2 2.8 1.5 1.5 0.4 3.9 2.1 5.4 3.8 3.2 3.6 3.8 5.8 0.8 3.1 -1.8 -1.7 -1.9 -1.6 -2.6 0.9 -0.3 1.5 -1.3 2.6 -2.3 2.6 -1.4 0.1 -1.4 0.2 0.2 1.4 2.2 1.7 2.2 2.5 -0.2 1.9 -2.9 -0.7 -3.3 1.2 -0.6 2.7 1.4 0.7 2.7 2.1 3.1 3.2 0.3 1 1 1.8 1.5 1.8 1.3 0 1 5.8 -0.5 9.9 -1.5 4.1 -5.3 5.5 -17.2 6.3 -5.9 0.4 -8.5 0.2 -9.9 -0.8z"/>
  <path d="M310.2 96.4 c-0.7 -0.8 -0.9 -1.4 -0.5 -1.4 0.4 0 0 -0.5 -0.9 -1.1 -1.3 -0.7 -1.8 -2.3 -1.8 -5.4 0 -4.3 0 -4.4 3.5 -4.2 1.9 0.1 3.5 0.5 3.5 1 0 0.4 0.9 0.7 2 0.7 3 0 2.5 -1.3 -2.9 -6.8 -2.7 -2.8 -5.2 -6.1 -5.6 -7.2 -1.1 -3.5 0.4 -8.8 3 -10.9 1.4 -1 2.5 -2.4 2.5 -3.1 0 -0.8 0.9 -1 2.4 -0.6 1.6 0.4 2.6 0.1 3 -0.9 0.7 -2 4.3 -1.9 5.4 0.1 0.6 1.2 1.8 1.5 3.6 1.2 1.4 -0.3 2.6 -0.1 2.6 0.3 0 0.5 1.2 1.2 2.7 1.5 4.7 1.2 5.6 2.8 4.2 6.9 -0.7 1.9 -2 3.5 -2.9 3.5 -1.3 0.1 -1.2 0.3 0.3 1.4 2.2 1.7 2.2 2.5 -0.2 1.9 -2.9 -0.7 -3.3 1.2 -0.6 2.7 1.4 0.7 2.7 2.1 3.1 3.2 0.3 1 1 1.8 1.5 1.8 1.3 0 1 5.8 -0.5 9.9 -1.5 4.2 -5.2 5.5 -17.7 6.4 -6.5 0.4 -8.7 0.2 -9.7 -0.9z"/>
  <path d="M346 96.5 c0 -0.8 -0.7 -1.5 -1.5 -1.5 -0.8 0 -1.5 -0.4 -1.5 -1 0 -0.5 -0.7 -1 -1.5 -1 -1.1 0 -1.5 -1.2 -1.5 -4.5 0 -3.3 0.4 -4.5 1.5 -4.5 1.3 0 1.5 -2.1 1.5 -13 l0 -13 2.5 0 c1.4 0 2.5 -0.2 2.5 -0.5 0 -0.3 -1.1 -1.8 -2.5 -3.3 -2.9 -3.2 -3.2 -6.8 -0.6 -9.9 1.7 -2.1 6.1 -2.8 6.1 -1.1 0 0.4 0.5 0.8 1.2 0.8 2.1 0 6.8 5.3 6.8 7.7 0 1.3 -0.5 2.3 -1.1 2.3 -0.8 0 -0.8 0.4 0.1 1.4 0.6 0.8 1.1 2.3 1 3.3 -0.6 5 0.4 5.4 5.5 2.1 1.9 -1.3 4 -3.9 4.9 -6 1.3 -3.5 1.7 -3.8 5.5 -3.8 3 0 4.1 0.4 4.1 1.5 0 0.8 0.7 1.5 1.5 1.5 0.8 0 2 0.9 2.7 2 0.7 1.1 2 2 3 2 2.6 0 4.8 2.8 4.9 6.3 0.1 1.8 0.3 2.4 0.6 1.4 0.3 -1.2 1.2 -1.7 2.6 -1.5 1.4 0.2 3.5 -1 6 -3.5 2.2 -2.1 4.5 -3.6 5.2 -3.3 0.7 0.2 1.6 -0.2 1.9 -1 0.7 -1.9 5.3 -1.8 6.4 0.2 0.5 0.9 1.8 1.4 2.8 1.2 2.2 -0.4 2.6 -0.1 10 6.6 l5.4 4.9 0 6.8 c0 4.2 -0.4 6.9 -1.2 7.1 -0.7 0.3 -1.1 2.2 -1 4.6 0.2 4.3 -2 8.2 -4.5 8.2 -0.7 0 -1.3 0.4 -1.3 0.9 0 0.5 -4.2 0.8 -9.2 0.7 l-9.3 -0.2 -4.1 -4 c-5.1 -4.8 -7.2 -8.8 -7.6 -14.4 -0.1 -2.3 -0.8 -4.4 -1.5 -4.7 -0.7 -0.3 -1.3 -1.6 -1.3 -2.9 0 -2.2 -0.4 -2.4 -4.5 -2.4 l-4.5 0 0 5.4 c0 3.2 0.5 6 1.3 6.8 0.8 0.7 1.6 2 2 2.8 0.3 0.9 0.6 1 0.6 0.3 0.1 -1.8 3.1 -1.6 3.1 0.1 0 0.8 0.7 1.6 1.5 2 2 0.7 2 6.3 0 8.3 -1.8 1.8 -15.8 3.7 -16.3 2.2 -0.2 -0.5 -0.9 -0.9 -1.5 -0.9 -0.7 0 -2.3 -1.6 -3.5 -3.5 -1.9 -2.7 -2.5 -5.3 -3.1 -13.4 -0.3 -5.5 -0.9 -10.3 -1.3 -10.6 -0.4 -0.4 -1.9 -0.5 -3.3 -0.1 l-2.5 0.6 0 14.5 0 14.5 -6.5 0 c-5.1 0 -6.5 -0.3 -6.5 -1.5z"/>
  <path d="M152.9 67.3 c-0.1 -0.5 -0.1 -1.1 0 -1.5 0.2 -1.3 -4.7 -0.9 -5.2 0.5 -0.3 0.6 -0.6 0.2 -0.6 -1 -0.1 -1.5 0.5 -2.3 1.5 -2.3 1.4 0 1.5 -1 0.9 -7.5 l-0.7 -7.5 5.1 0 c3.1 0 5.1 -0.4 5.1 -1.1 0 -0.7 1 0 2.1 1.5 1.9 2.4 2.1 3.5 1.4 10.2 -0.6 7 -0.8 7.4 -3.1 7.4 -1.3 0 -2.4 0.5 -2.4 1 0 1.1 -3.9 1.4 -4.1 0.3z"/>
 </g>
 <g fill="#aad1a9">
  <path d="M10.4 98.5 c-3.1 -3.1 -2.4 -4.5 2.5 -4.5 2.1 0 5.5 -0.7 7.6 -1.6 4.1 -1.7 6.5 -1.3 6.5 1.1 0 1.1 1.1 1.5 3.9 1.5 l3.9 0 0.4 -14.2 c0.2 -8.8 -0.1 -14.6 -0.7 -15 -0.5 -0.4 -0.6 -0.8 -0.1 -0.8 0.5 0 0.3 -0.8 -0.5 -1.7 -0.7 -1 0.4 -0.1 2.5 1.9 2 2 4.1 5.2 4.7 7 1.4 4.9 1.2 26.1 -0.3 27.6 -2 2 -7.5 1.5 -9.1 -0.9 l-1.5 -2 -4.1 2 c-5.8 3 -12.5 2.8 -15.7 -0.4z"/>
  <path d="M49.7 99.2 c-2.7 -3 -2 -4.2 2.3 -4.2 3.4 0 4.1 -0.4 4.6 -2.5 0.3 -1.4 0.4 -12.8 0.2 -25.5 l-0.4 -23 3.3 3.2 c3.2 3.1 3.3 3.4 3.3 12 0 5.2 0.4 8.8 1 8.8 0.6 0 1 3.3 1 8 0 4.7 -0.4 8 -1 8 -0.6 0 -1 3.3 -1 7.9 0 8.8 -0.2 9.1 -7.4 9.1 -2.9 0 -4.8 -0.6 -5.9 -1.8z"/>
  <path d="M79.3 99 c-3.1 -1.4 -4.3 -2.5 -4.3 -4 0 -1.4 0.4 -1.9 1.2 -1.4 1.8 1.2 15 0.6 18.6 -0.8 2.8 -1.1 3.2 -1.7 3.2 -4.9 l0 -3.7 -4.7 1.4 c-2.5 0.8 -5.8 1.4 -7.2 1.4 -3.4 0 -8.4 -3.4 -8.6 -5.7 -0.1 -1.7 0.8 -1.8 11.2 -1.5 l11.3 0.4 0 -5.5 c0 -3.4 -0.5 -5.7 -1.2 -5.9 -0.6 -0.2 -0.8 -1 -0.4 -1.6 1.3 -2.1 4.3 0.5 6.1 5.1 2.3 6 1.7 11.9 -1.2 13.2 -2.8 1.2 -3 3.2 -0.3 4 2.4 0.8 2.4 1.9 0.2 6.5 -2 4 -4.1 4.8 -13.2 4.9 -4.4 0 -7.9 -0.6 -10.7 -1.9z"/>
  <path d="M109.4 99.5 c-0.3 -0.8 -1.4 -1.7 -2.5 -2 -3.6 -1.2 -0.8 -2.5 5.2 -2.5 4.4 0 5.9 -0.4 5.9 -1.4 0 -0.8 0.7 -2.2 1.6 -3 0.8 -0.9 1.3 -2 1 -2.5 -0.6 -0.9 1.6 -2.1 3.8 -2.1 0.7 0 1.9 1.5 2.7 3.3 1.4 2.9 1.4 3.4 0 4.9 -0.9 0.9 -2.4 2.8 -3.4 4.2 -1.6 2.3 -2.5 2.6 -7.8 2.6 -4.3 0 -6.1 -0.4 -6.5 -1.5z"/>
  <path d="M134.8 99.5 c-0.7 -0.9 -1.9 -2.2 -2.6 -3 -1.2 -1.3 -0.5 -1.5 5.2 -1.5 3.6 0 6.6 -0.2 6.6 -0.6 0 -0.8 -10.3 -16.8 -11.2 -17.5 -1.2 -0.8 0.2 -4.1 2.5 -6.1 1 -0.9 1.6 -2.2 1.2 -2.7 -0.3 -0.6 0.1 -1.1 1 -1.1 1.1 0 1.5 -0.5 1.1 -1.5 -0.3 -0.8 -0.1 -1.5 0.4 -1.5 0.6 0 1.8 -1.3 2.8 -3 1.4 -2.3 2.1 -2.7 3 -1.8 0.7 0.7 1.2 1.8 1.2 2.5 0 0.7 0.9 1.3 1.9 1.3 1.1 0 2.3 0.5 2.6 1 0.3 0.6 0 1 -0.7 1 -1.5 0 -10.8 14.1 -10.8 16.4 0 0.9 2.3 5.1 5.1 9.5 2.8 4.4 4.8 8.5 4.4 9.1 -1 1.7 -12.2 1.2 -13.7 -0.5z"/>
  <path d="M176.5 100.3 c-1.1 -0.3 -2.9 -1.6 -4.1 -2.8 l-2.1 -2.3 3 -0.6 c1.6 -0.3 5.3 -0.6 8.1 -0.6 9.2 0 15.4 -3.5 13.9 -7.7 -0.3 -0.7 0 -1.3 0.6 -1.3 0.6 0 1.1 -1.1 1.1 -2.5 0 -1.4 -0.4 -2.5 -1 -2.5 -0.5 0 -0.7 -0.7 -0.3 -1.6 0.5 -1.4 0.7 -1.4 1.6 0.2 0.6 1 2 2.6 3 3.5 1.5 1.2 2 2.8 2 6.2 0 8.7 -5.4 12.8 -17 12.6 -3.7 -0.1 -7.7 -0.4 -8.8 -0.6z"/>
  <path d="M315.5 100.3 c-1.1 -0.3 -3 -1.5 -4.2 -2.8 l-2.2 -2.3 3.1 -0.6 c1.7 -0.3 5.4 -0.6 8.2 -0.6 6.4 0 12.8 -2.2 13.7 -4.6 0.3 -1.1 0.5 -2.2 0.3 -2.6 -0.3 -0.4 0 -0.9 0.6 -1.3 1.3 -0.8 1.3 -5.5 0 -5.5 -0.5 0 -0.7 -0.7 -0.3 -1.6 0.5 -1.5 0.7 -1.4 1.6 0.1 1.3 2.4 4.5 5.5 5.7 5.5 0.6 0 1 2 1 4.5 0 2.6 -0.5 4.5 -1.1 4.5 -0.6 0 -2 1.1 -3.1 2.5 -3.2 4.1 -7 5.5 -14.5 5.4 -3.7 -0.1 -7.7 -0.3 -8.8 -0.6z"/>
  <path d="M347.7 99.2 c-2.9 -3.2 -2.1 -4.2 3.3 -4.2 l5 0 -0.2 -18.2 -0.3 -18.3 -3.4 -0.3 c-3.5 -0.4 -6.1 -2.2 -6.1 -4.2 0 -0.7 1.3 -1 3.3 -0.8 3.4 0.3 6.7 -2 6.7 -4.7 0 -2.2 3.5 0.1 4.9 3.2 1.1 2.4 0.1 6.5 -1.8 7.7 -1.4 0.9 -0.2 3.6 1.5 3.6 0.8 0 1.4 0.7 1.4 1.5 0 0.8 0.6 1.5 1.4 1.5 1.4 0 3 2.9 2.1 3.8 -0.3 0.3 -0.5 0 -0.5 -0.6 0 -0.7 -0.9 -1.2 -2 -1.2 -1.9 0 -2 0.7 -2 15.9 0 17.8 0.3 17.1 -7.4 17.1 -2.9 0 -4.8 -0.6 -5.9 -1.8z"/>
  <path d="M376.3 99.8 c-1.3 -0.6 -2.3 -1.7 -2.3 -2.5 0 -0.7 -0.7 -1.3 -1.5 -1.3 -0.8 0 -1.5 -0.4 -1.5 -0.9 0 -0.5 0.6 -0.9 1.3 -0.8 11.3 0.4 16.7 -1.6 16.7 -6.2 0 -1.1 0.4 -2.1 0.9 -2.1 1.8 0 4.1 5 4.1 8.8 0 3.2 -0.5 4.1 -2.5 5 -3.2 1.5 -12.2 1.4 -15.2 0z"/>
  <path d="M408.3 99.5 c-1.7 -0.7 -3.7 -2.3 -4.3 -3.5 -1.3 -2.4 -0.8 -3.6 1 -2.5 0.6 0.4 4.6 0.7 8.8 0.7 6.9 0 7.9 -0.3 10.7 -2.7 2 -1.8 2.6 -2.9 1.7 -3.2 -1 -0.4 -1 -0.8 -0.1 -1.9 1.4 -1.7 0.6 -1.8 -5.9 -0.3 -2.7 0.7 -6 0.9 -7.4 0.6 -2.9 -0.8 -7 -4.1 -6.1 -5.1 0.3 -0.3 0 -0.6 -0.7 -0.6 -0.7 0 -1 -0.3 -0.7 -0.7 0.4 -0.3 5.9 -0.5 12.2 -0.4 l11.5 0.2 0 -5 c0 -2.8 -0.4 -5.1 -0.9 -5.1 -0.5 0 -0.8 -1.1 -0.7 -2.4 l0.1 -2.5 2.6 2.5 c1.4 1.3 3 2.4 3.7 2.4 0.8 0 1.2 2.4 1.2 7.9 l0 8 -3.2 0.3 c-3 0.3 -3.1 0.4 -1.5 2 1.1 1 1.7 3.2 1.7 5.8 0 3.7 -0.3 4.2 -3.5 5.6 -4.3 1.8 -16 1.8 -20.2 -0.1z"/>
  <path d="M16.4 86.2 c-1.9 -1.3 -2.4 -4.2 -1.1 -6.2 0.8 -1.4 2.3 -2 4.9 -2 3.4 0 3.8 0.3 3.8 2.5 0 4.2 -4.7 7.7 -7.6 5.7z"/>
  <path d="M179.6 85.9 c0.2 -0.4 -0.7 -1.9 -2.1 -3.3 -1.4 -1.4 -2.5 -3.1 -2.5 -3.8 0 -1 0.2 -1 0.9 0 0.4 0.8 1.1 1.3 1.5 1.3 0.3 -0.1 0.7 -0.1 0.9 0 0.1 0 1.1 0.2 2.2 0.4 1.8 0.4 4.5 3.1 4.5 4.6 0 0.4 -1.3 0.9 -2.9 1.1 -1.7 0.2 -2.8 0.1 -2.5 -0.3z"/>
  <path d="M318 85.7 c0 -0.5 -0.9 -2 -2 -3.4 -2.6 -3.4 -2.5 -4.7 0.3 -3.1 1.2 0.6 2.9 1.3 3.7 1.4 1.4 0.3 4 3.1 4 4.5 0 0.4 -1.3 0.9 -3 1.1 -1.6 0.3 -3 0 -3 -0.5z"/>
  <path d="M380.4 84.3 c-1.6 -1.5 -1.9 -3 -1.6 -9.5 l0.3 -7.8 2.9 0 c4.8 0 6 -0.9 6 -4.6 0 -4.1 0.6 -4.2 3.2 -0.9 1.1 1.4 2.6 2.5 3.5 2.5 1 0 1.3 0.6 0.9 1.6 -0.3 0.9 -0.9 3.3 -1.2 5.5 -0.6 3.3 -0.9 3.7 -2.5 2.9 -1 -0.6 -2.9 -1 -4.3 -1 -2.5 0 -2.6 0.2 -2.6 6.5 0 7 -1 8.1 -4.6 4.8z"/>
  <path d="M366.3 76.5 c0 -3.3 0.2 -4.5 0.4 -2.7 0.2 1.8 0.2 4.5 0 6 -0.2 1.5 -0.4 0 -0.4 -3.3z"/>
  <path d="M7 73.5 c0 -0.4 1 -1.5 2.3 -2.6 1.6 -1.3 1.8 -1.9 0.7 -1.9 -2.6 -0.2 3.3 -2.2 7.7 -2.7 3.9 -0.5 4.4 -0.3 5.3 2.2 0.5 1.4 1 2.8 1 2.9 0 0.2 -3 0.6 -6.7 0.9 -3.8 0.2 -7.6 0.8 -8.5 1.2 -1 0.4 -1.8 0.4 -1.8 0z"/>
  <path d="M185.6 71.3 c-3.1 -1.6 -4.6 -3 -4.6 -4.3 0 -1.5 0.6 -1.8 2.8 -1.6 1.5 0.2 2.8 0.5 3 0.6 0.1 0.1 0.6 0.3 1.1 0.4 0.5 0 1.2 0.4 1.6 0.7 0.3 0.4 1.5 0.5 2.6 0.2 1.7 -0.5 2.4 -2.1 2 -4.5 0 -0.5 0.4 -0.8 1 -0.8 0.5 0 0.7 -0.4 0.4 -1 -0.9 -1.4 0.4 -1.2 1.8 0.3 4.9 5.3 4.9 5.2 3.1 8.9 -1.5 3.2 -2 3.5 -5.9 3.5 -2.5 0 -6.2 -1 -8.9 -2.4z"/>
  <path d="M324.7 71.4 c-3.1 -1.6 -4.7 -3.1 -4.7 -4.4 0 -1.5 0.6 -1.8 2.8 -1.6 1.5 0.2 2.8 0.5 3 0.6 0.1 0.1 0.6 0.3 1.1 0.4 0.5 0 1.2 0.4 1.6 0.7 0.3 0.4 1.5 0.5 2.6 0.2 1.7 -0.5 2.4 -2.1 2 -4.5 0 -0.5 0.4 -0.8 1 -0.8 0.5 0 0.7 -0.4 0.4 -1 -1.3 -2.1 0.9 -0.9 3.1 1.8 2.7 3.1 2.9 4.6 1.1 8.1 -1.7 3.5 -7.7 3.7 -14 0.5z"/>
  <path d="M78 70.1 c0 -2.5 2.6 -5.1 5 -5.1 1.8 0 6 4.3 6 6.1 0 0.5 -2.5 0.9 -5.5 0.9 -4.8 0 -5.5 -0.3 -5.5 -1.9z"/>
  <path d="M408 69.7 c0 -4.7 4.7 -6.3 7.4 -2.5 2.7 3.8 2 4.8 -2.9 4.8 -4 0 -4.5 -0.2 -4.5 -2.3z"/>
  <path d="M153.7 68.3 c-1.3 -1.5 -1.3 -2.1 -0.3 -3.5 0.7 -1 2.2 -1.8 3.3 -1.8 1.6 0 1.8 -0.6 1.5 -3.5 -0.3 -2.3 0 -3.5 0.8 -3.5 0.9 0 1.1 -1.4 0.8 -4.9 l-0.5 -5 2.1 2.7 c1.1 1.5 2.6 3.3 3.3 3.9 0.7 0.9 1 3.3 0.7 7 -0.9 10.3 -0.9 10.3 -5.8 10.3 -2.8 0 -4.8 -0.6 -5.9 -1.7z"/>
  <path d="M121.7 65.3 c-0.2 -1 -0.8 -2.7 -1.2 -3.8 -0.6 -1.8 -0.5 -1.8 0.5 -0.2 0.6 0.9 2 1.7 3.1 1.7 1.4 0 1.9 0.5 1.7 1.7 -0.4 2.4 -3.4 2.8 -4.1 0.6z"/>
 </g>
 <g fill="#d2e6d1">
  <path d="M10.9 98.9 c-2.3 -1.9 -2.3 -2 -0.2 -1 1.2 0.6 3.9 1.5 6 2 l3.8 0.9 -3.6 0.1 c-2.4 0.1 -4.5 -0.6 -6 -2z"/>
  <path d="M31.4 98.5 c-0.9 -1.4 -2 -2.2 -2.3 -1.6 -0.7 1 -5.5 3.1 -7.3 3.1 -0.6 0 1 -1.1 3.6 -2.5 2.6 -1.4 5.8 -2.5 7.2 -2.5 l2.4 0 0 -12.7 c0 -12.7 0.4 -14.6 2.7 -15 2.6 -0.6 3.4 3.8 3.1 18.4 l-0.3 14.8 -3.7 0.3 c-3 0.3 -4 -0.1 -5.4 -2.3z m8.5 -13.2 c0 -7.6 -0.4 -14.7 -0.9 -15.8 -0.5 -1.2 -0.9 3.8 -0.9 13.2 l-0.1 15.2 -2.7 0.4 c-2.3 0.3 -2.1 0.4 1 0.6 l3.7 0.1 -0.1 -13.7z"/>
  <path d="M49.7 99.2 c-2.7 -3 -2 -4.2 2.3 -4.2 l4 0 0.2 -24.2 c0 -13.4 0.1 -24.9 0.1 -25.7 -0.1 -0.7 1.4 0.2 3.3 2 l3.4 3.3 0 24.1 c0 17.4 -0.3 24.4 -1.2 25.3 -1.9 1.9 -10.2 1.5 -12.1 -0.6z m12.3 -23.9 c0 -22.6 -0.2 -23.9 -2.1 -26.3 -1.6 -1.9 -1.9 -2 -1.2 -0.5 0.9 2.3 1.7 43.8 0.8 47.2 -0.4 1.7 -1.4 2.3 -4.8 2.6 -3.6 0.3 -3.4 0.4 1.6 0.5 l5.7 0.2 0 -23.7z"/>
  <path d="M79.5 99.1 c-2.8 -1.2 -4.1 -2.5 -4.2 -4 -0.1 -1.3 0.2 -1.9 0.9 -1.5 1.5 0.9 15.8 1.1 15.8 0.2 0 -0.3 1.4 -0.9 3 -1.3 2.1 -0.5 3 -1.3 3 -2.6 0 -1 0.6 -1.9 1.3 -1.9 2.1 0 5.3 2.7 4.3 3.7 -0.5 0.4 -1.1 0.2 -1.3 -0.4 -0.7 -2 -2.3 -1.5 -2.3 0.7 0 1.1 -1.1 2.7 -2.4 3.5 -2.6 1.8 -11.9 2.4 -18.1 1.3 l-4 -0.7 3.4 1.5 c1.8 0.8 5.9 1.9 9 2.3 l5.6 0.9 -5 0.1 c-2.9 0 -6.7 -0.7 -9 -1.8z"/>
  <path d="M109.4 99.5 c-0.3 -0.8 -1.6 -1.7 -2.7 -2.1 -2.2 -0.7 -2.2 -0.7 -0.2 -1.5 1.1 -0.4 4.2 -0.8 6.9 -0.8 3.8 -0.1 4.7 -0.4 4.2 -1.6 -0.3 -0.8 -0.1 -1.5 0.5 -1.5 0.6 0 0.7 -0.4 0.4 -1 -0.3 -0.5 0.1 -1 1 -1 1.1 0 1.5 -0.5 1.1 -1.5 -0.3 -0.8 -0.1 -1.5 0.5 -1.5 0.6 0 0.7 -0.4 0.4 -1 -0.3 -0.5 -0.1 -1 0.5 -1 0.6 0 0.8 -0.4 0.5 -1 -0.3 -0.5 -0.2 -1 0.2 -1 0.5 0 1.6 1.3 2.6 2.9 1.6 2.8 1.6 2.9 -0.4 3.4 -1.2 0.3 -1.8 1 -1.4 1.6 0.3 0.6 0.1 1.1 -0.5 1.1 -0.6 0 -0.8 0.5 -0.5 1 0.3 0.6 0.2 1 -0.4 1 -0.5 0 -1.3 1 -1.6 2.1 -0.6 1.9 -1.3 2.1 -5.6 1.7 -2.7 -0.3 -4.9 -0.1 -4.9 0.3 0 0.5 2.8 0.9 6.3 0.9 6.3 0 6.3 0 8.1 -3.6 0.9 -2 2 -3.4 2.3 -3 0.3 0.3 -0.6 2.4 -2.1 4.6 -2.6 3.9 -2.7 4 -8.6 4 -4.4 0 -6.2 -0.4 -6.6 -1.5z"/>
  <path d="M135.4 100.2 c-0.6 -0.4 -1.6 -1.7 -2.3 -2.9 -1.2 -2.3 -1.1 -2.3 4.9 -2.3 4.8 0 6 -0.3 6 -1.6 0 -0.8 0.5 -1.2 1.1 -0.9 0.6 0.4 0.8 0.9 0.5 1.2 -0.2 0.2 0.4 1.3 1.5 2.4 3.2 3.2 1.4 4.9 -5 4.9 -3.1 0 -6.1 -0.4 -6.7 -0.8z m12 -2.7 c-0.7 -1.7 -2.4 -2.1 -2.4 -0.6 0 0.6 -2.4 1.2 -5.2 1.4 -5 0.3 -4.9 0.3 1.4 0.5 5.6 0.2 6.6 0 6.2 -1.3z"/>
  <path d="M176.5 100.3 c-1.1 -0.3 -2.4 -0.9 -3 -1.5 -0.7 -0.6 -0.1 -0.7 1.5 -0.3 1.4 0.3 5.2 0.9 8.5 1.4 l6 0.9 -5.5 0 c-3 0 -6.4 -0.2 -7.5 -0.5z"/>
  <path d="M315.3 100.3 c-1.2 -0.2 -2.7 -1.2 -3.5 -2.1 -1.1 -1.3 -1.1 -1.4 0.2 -0.7 0.8 0.6 4.9 1.5 9 2.1 7.5 1.2 7.5 1.2 2 1.2 -3 -0.1 -6.5 -0.3 -7.7 -0.5z"/>
  <path d="M347.7 99.2 c-2.9 -3.2 -2.1 -4.2 3.3 -4.2 l5 0 0.1 -16.7 c0 -10.3 0.4 -16 0.9 -14.8 1.1 2.5 1.3 31.6 0.2 33.2 -0.4 0.6 -2.5 1.3 -4.7 1.6 -3.3 0.3 -2.9 0.4 1.8 0.5 l5.7 0.2 0.2 -16.2 0.2 -16.3 0.3 15.9 c0.3 10.9 0 16.3 -0.8 17.2 -1.7 2.1 -10.2 1.8 -12.2 -0.4z"/>
  <path d="M376.3 99.8 c-1.3 -0.6 -2.3 -1.7 -2.3 -2.5 0 -0.7 0 -1.6 0 -2 0 -0.5 2.7 -1.1 6 -1.4 4.5 -0.4 6.5 -1.2 8 -2.8 l1.9 -2.3 0.7 2.7 c0.4 1.4 0.2 3.1 -0.4 3.7 -1.6 1.6 -8.4 2.8 -12.2 2.2 -5.6 -1 -2.3 1.3 3.5 2.4 l5 1 -4 0 c-2.2 0 -5 -0.4 -6.2 -1z"/>
  <path d="M408 99.2 c-1.9 -0.9 -3.3 -2.1 -3.2 -2.6 0.2 -0.5 -0.2 -1.2 -0.9 -1.7 -0.8 -0.4 -1 -1.1 -0.7 -1.4 0.4 -0.4 1.2 -0.4 1.8 0 1.5 0.9 16 1.2 16 0.3 0 -0.5 0.7 -0.8 1.5 -0.8 0.9 0 1.8 -0.7 2.1 -1.5 0.8 -2 3 -1.9 3.9 0.2 1 2.7 -2.6 4.9 -9.3 5.7 -3.2 0.4 -6.5 0.5 -7.3 0.2 -0.8 -0.2 -2.7 -0.7 -4.4 -1 -2.7 -0.6 -2.8 -0.5 -1 0.6 1.1 0.7 4.9 1.8 8.5 2.4 l6.5 1.2 -5 0.1 c-2.9 0.1 -6.4 -0.6 -8.5 -1.7z"/>
  <path d="M94.1 99.6 c0.2 -0.2 2 -0.6 3.9 -1 2.5 -0.4 3.1 -0.3 2 0.4 -1.4 0.9 -6.9 1.5 -5.9 0.6z"/>
  <path d="M190.1 99.6 c0.2 -0.2 1.8 -0.6 3.4 -1 2.2 -0.5 2.6 -0.4 1.5 0.4 -1.4 0.9 -5.9 1.5 -4.9 0.6z"/>
  <path d="M331.1 99.1 c7.1 -2.2 10 -7.3 8.1 -14.1 l-1 -3.5 -0.3 4 c-0.1 2.2 -0.2 4.5 -0.2 5.1 0 1.7 -6.2 5.5 -10.9 6.5 -3.8 0.9 -9.3 0.6 -14.2 -0.8 -3.3 -0.9 0.4 -2.3 6.4 -2.3 7.3 0 14.5 -2.3 14.4 -4.4 -0.1 -0.9 0.2 -1.6 0.7 -1.6 0.5 0 0.6 -0.7 0.3 -1.5 -0.4 -0.8 -0.1 -1.5 0.5 -1.5 0.6 0 1.1 -0.9 1.1 -1.9 0 -2.2 2.7 -2.2 4.1 0 1.4 2.3 1 9.3 -0.7 11.7 -1.8 2.6 -6.5 5.2 -9.1 5.1 -1.2 0 -0.9 -0.3 0.8 -0.8z"/>
  <path d="M389.8 98.9 c2.8 -0.8 3.2 -1.4 3.2 -4.2 0 -2 -0.9 -4.2 -2.1 -5.6 -1.2 -1.2 -1.8 -2.5 -1.4 -2.9 1.3 -1.3 4.5 4.3 4.5 8 0 3.9 -2 5.9 -5.7 5.7 -1 0 -0.3 -0.5 1.5 -1z"/>
  <path d="M425.6 99.1 c1.7 -0.4 3.6 -1.1 4.2 -1.5 1.6 -0.9 1.5 -4.5 0 -7.9 -1 -2 -1.8 -2.5 -3.3 -2 -1.7 0.5 -1.8 0.4 -0.8 -0.9 0.7 -0.8 1 -1.8 0.6 -2.1 -0.3 -0.4 1.6 -0.6 4.3 -0.6 4.1 0.1 4.4 0.2 1.9 0.8 -2.8 0.7 -3.7 3.1 -1.4 3.9 0.5 0.2 0.9 2.1 0.9 4.2 0 4.4 -2.7 7.1 -7 6.9 -2.3 -0.1 -2.2 -0.2 0.6 -0.8z"/>
  <path d="M10.7 96.8 c-3.7 -1.3 -2.5 -2.8 2.4 -2.8 3.9 0 11.4 -3.2 10.2 -4.4 -0.3 -0.3 -0.2 -0.6 0.3 -0.6 1.4 0 3.7 4.1 2.7 5 -1 1 -10 4 -11.6 3.9 -0.7 0 -2.4 -0.5 -4 -1.1z"/>
  <path d="M178.5 97.3 c-6.9 -1.4 -6.9 -1.4 -5.4 -2.4 0.7 -0.5 3.9 -0.9 6.9 -0.9 7.3 0 14.5 -2.3 14.4 -4.4 -0.1 -0.9 0.2 -1.6 0.7 -1.6 0.5 0 0.6 -0.7 0.3 -1.5 -0.4 -0.8 -0.1 -1.5 0.5 -1.5 0.6 0 1.1 -1 1.1 -2.2 0.1 -2 0.2 -2.1 1.1 -0.6 0.5 0.9 0.8 3.5 0.7 5.7 -0.2 3.1 -0.9 4.3 -3.5 6.1 -4.7 3.2 -11.2 4.5 -16.8 3.3z"/>
  <path d="M198.8 95.6 c2.4 -3.1 2.8 -7.8 1.2 -12.2 -0.9 -2.4 -0.9 -2.5 0.5 -1.4 1 0.8 1.5 3 1.5 6.4 0 4.4 -0.4 5.6 -2.7 7.7 l-2.7 2.4 2.2 -2.9z"/>
  <path d="M16.3 86.3 c-0.7 -0.2 -1.3 -1.1 -1.3 -1.8 0 -0.7 -0.6 -1.6 -1.2 -1.9 -1 -0.5 -1 -0.7 0 -1.2 0.6 -0.3 1 -0.9 0.7 -1.4 -0.7 -1.1 6.2 -3.3 8 -2.6 0.8 0.3 1.5 1.4 1.5 2.5 0 1.4 -0.5 1.8 -2 1.4 -2.4 -0.6 -5.2 2 -4.4 4.1 0.7 1.7 0.6 1.7 -1.3 0.9z"/>
  <path d="M179.4 86.3 c0.3 -0.6 -0.5 -2.3 -1.9 -3.7 -1.4 -1.4 -2.5 -3.1 -2.5 -3.8 0 -1 0.2 -1 0.9 0 0.4 0.8 1.1 1.3 1.5 1.3 0.3 -0.1 0.7 -0.1 0.9 0 0.1 0 1 0.2 2.1 0.4 1 0.2 2.4 0.9 3 1.6 0.8 0.9 0.4 1 -1.8 0.5 -2.6 -0.7 -2.8 -0.6 -1.6 0.9 1.1 1.3 1.1 1.8 0 2.8 -1 0.9 -1.1 0.9 -0.6 0z"/>
  <path d="M318 86.1 c0 -0.7 -0.9 -2.4 -2 -3.8 -2.6 -3.4 -2.5 -4.7 0.3 -3.1 1.2 0.6 2.8 1.3 3.6 1.4 0.7 0.2 1.9 0.8 2.5 1.5 1.1 1.2 -0.3 1.1 -4.9 -0.6 -1.6 -0.5 -1.5 -0.3 0.5 1.4 2 1.6 2.3 2.2 1.3 3.2 -1.1 1.1 -1.3 1 -1.3 0z"/>
  <path d="M98 85.1 c0 -0.6 1.4 -1.1 3 -1.1 3 0 3 -0.1 3 -5.2 -0.1 -2.9 -0.7 -6.6 -1.4 -8.3 -1.2 -2.7 -1.3 -2.4 -0.8 4.3 l0.5 7.2 -11.2 0 c-7.3 0 -11.1 0.4 -11.1 1.1 0 0.6 -0.6 0.9 -1.2 0.6 -0.7 -0.2 -1.2 -1 -1 -1.7 0.2 -0.7 -0.1 -1.6 -0.7 -1.9 -0.5 -0.3 4.4 -0.4 11 -0.2 l11.9 0.3 0 -5.6 c0 -3.1 -0.4 -5.6 -1 -5.6 -0.5 0 -1 -0.4 -1 -0.9 0 -0.6 0.9 -0.9 2.1 -0.8 3.2 0.2 5 4.9 4.7 12 -0.3 6.2 -0.3 6.2 -3.5 6.5 -1.9 0.2 -3.3 -0.1 -3.3 -0.7z"/>
  <path d="M379.5 83.8 c-0.6 -0.6 -0.9 -4.8 -0.7 -9.4 l0.3 -8.4 4.5 0 c4.1 0 4.4 -0.2 4.5 -2.7 0.1 -1.6 0.1 -3.1 0 -3.5 -0.2 -1.6 1.5 -0.6 3.7 2.2 1.3 1.7 2 3.5 1.6 4.2 -0.5 0.7 -1.1 0.3 -1.7 -1.3 -1 -2.3 -1.1 -2.3 -1.6 1.1 -0.6 3.2 -0.9 3.5 -4.6 4 l-4 0.5 0 7.3 c0 7.3 -0.2 8 -2 6z"/>
  <path d="M383.4 82.6 c-0.3 -0.7 -0.4 -3.3 -0.2 -5.7 0.3 -4.2 0.4 -4.4 3.8 -4.7 2.1 -0.2 4.3 0.4 5.5 1.3 1.9 1.6 1.9 1.6 -0.3 0.5 -1.3 -0.6 -3.5 -1 -5 -0.8 -2.6 0.3 -2.7 0.5 -2.5 5.6 0.2 5.1 -0.2 6.5 -1.3 3.8z"/>
  <path d="M406.7 81.8 c0.2 -0.5 -0.1 -0.8 -0.6 -0.8 -0.6 0 -1.1 -0.3 -1.1 -0.7 0 -0.5 5.4 -0.6 12 -0.4 l12 0.3 0 -5.1 c0 -2.8 -0.4 -5.1 -0.9 -5.1 -0.5 0 -0.8 -1.1 -0.7 -2.4 l0.1 -2.4 2.4 2.4 c1.3 1.3 2.7 2.4 3.1 2.4 0.4 0 1 0.9 1.3 2 0.8 3 -1.7 2.4 -3.1 -0.7 -1.1 -2.6 -1.1 -2.6 -0.7 -0.3 0.3 1.4 0.8 4.4 1.1 6.8 l0.7 4.2 -3.4 0 c-1.9 0 -7.7 0.1 -13.1 0.3 -5.3 0.1 -9.4 -0.1 -9.1 -0.5z"/>
  <path d="M137 81.6 c0 -1.3 4.2 -7.8 4.7 -7.2 0.3 0.2 -0.7 2.2 -2.1 4.3 -1.4 2 -2.6 3.4 -2.6 2.9z"/>
  <path d="M132.6 76.8 c-1.2 -1.1 -1.4 -1.8 -0.7 -1.8 0.7 0 0.9 -0.5 0.6 -1 -0.3 -0.6 0.1 -1.3 0.9 -1.6 0.9 -0.3 1.3 -1 1 -1.5 -0.3 -0.5 0.2 -0.9 1.1 -0.9 1.1 0 1.5 -0.5 1.1 -1.5 -0.3 -0.9 0 -1.5 1 -1.5 0.9 0 1.4 -0.6 1.1 -1.2 -0.4 -1.4 2 -3.7 3.9 -3.8 1.6 0 1.2 3.3 -0.6 4.7 -0.8 0.7 -1.2 1.3 -0.7 1.3 0.4 0 -0.2 0.9 -1.3 2 -1.2 1.2 -1.8 2.5 -1.5 2.9 0.2 0.5 -0.2 1.2 -1.1 1.5 -0.8 0.3 -1.3 0.9 -1.1 1.3 0.3 0.5 0 1.3 -0.7 1.9 -0.8 0.7 -1.7 0.5 -3 -0.8z"/>
  <path d="M8 73.4 c0 -0.6 0.7 -1.7 1.5 -2.4 1.3 -1 1.3 -1.5 0.3 -2.1 -1.7 -1.1 -0.6 -2 2.8 -2.2 1.6 -0.1 3.2 -0.6 3.6 -1.2 0.9 -1.2 6 0.5 6.6 2.3 0.2 0.8 -0.7 1.2 -2.6 1.2 -1.6 0 -3.9 0.9 -5.2 2 -1.8 1.6 -2.5 1.7 -3.1 0.8 -0.6 -1 -1.2 -0.8 -2.3 0.7 -0.9 1.1 -1.6 1.5 -1.6 0.9z"/>
  <path d="M189.7 73.4 c-1.7 -1.8 -0.4 -2.5 3.7 -1.9 3.9 0.6 4.6 0.4 5.6 -1.5 1.3 -2.4 0.7 -5 -1.1 -5 -0.6 0 -0.9 0.7 -0.5 1.5 0.3 0.8 0.1 1.5 -0.5 1.5 -0.6 0 -0.7 0.5 -0.4 1 0.8 1.3 -1.6 1.3 -7.2 -0.1 -3.5 -0.9 -4.7 -0.9 -5.3 0.1 -1.1 1.7 -5.1 -0.5 -4.4 -2.4 0.6 -1.6 6.1 -1.9 7 -0.4 0.3 0.4 0.9 0.6 1.4 0.3 0.5 -0.3 1.1 -0.1 1.4 0.4 0.9 1.4 4.8 0 4.2 -1.5 -0.3 -0.8 -0.1 -1.4 0.5 -1.4 0.6 0 0.7 -0.4 0.4 -1 -0.3 -0.5 -0.1 -1 0.5 -1 0.6 0 0.8 -0.4 0.5 -1 -0.3 -0.5 -0.1 -1 0.4 -1 0.6 0 1.1 1 1.2 2.3 0 1.2 0.3 1.6 0.6 0.9 0.3 -0.8 1.1 -0.4 2.4 1.2 1.9 2.4 1.9 2.7 0.4 5.6 -1 2 -2.3 3 -3.8 3 -1.2 0 -3.1 0.3 -4.2 0.6 -1.1 0.3 -2.4 0.2 -2.8 -0.2z"/>
  <path d="M328.7 73.3 c-1.8 -1.7 -0.3 -2.4 3.8 -1.8 4.2 0.7 4.5 0.6 5.5 -2 1.1 -2.8 0.6 -4.5 -1.2 -4.5 -0.5 0 -0.8 0.7 -0.4 1.5 0.3 0.8 0.1 1.5 -0.5 1.5 -0.6 0 -0.7 0.5 -0.4 1 0.8 1.3 -1.6 1.3 -7.2 -0.1 -3.5 -0.9 -4.7 -0.9 -5.3 0.1 -1.1 1.7 -5.1 -0.5 -4.4 -2.4 0.6 -1.6 6.1 -1.9 7 -0.4 0.3 0.4 0.9 0.6 1.4 0.3 0.5 -0.3 1.1 -0.1 1.4 0.4 0.9 1.4 4.8 0 4.2 -1.5 -0.3 -0.8 -0.1 -1.4 0.5 -1.4 0.6 0 0.7 -0.4 0.4 -1 -0.3 -0.5 -0.1 -1 0.5 -1 0.6 0 0.8 -0.4 0.5 -1 -0.3 -0.5 -0.1 -1 0.4 -1 0.6 0 1.1 1 1.2 2.3 0 1.2 0.3 1.6 0.6 0.9 0.4 -1 0.9 -0.8 2 0.8 1.6 2.3 0.9 7.9 -1 8.5 -3.2 0.9 -8.4 1.4 -9 0.8z"/>
  <path d="M142.9 71.5 c1.4 -3 4 -6.1 4.1 -5 0 0.6 -1.2 2.4 -2.6 4 -1.4 1.7 -2.1 2.1 -1.5 1z"/>
  <path d="M77.7 70 c-0.3 -1.1 -0.1 -2 0.5 -2 0.5 0 0.7 -0.4 0.4 -0.9 -0.7 -1 1.6 -2.1 4.3 -2.1 1 0 2.6 0.9 3.5 1.9 1.7 1.9 1.7 1.9 -0.2 1.4 -1.3 -0.3 -2.8 0.3 -4.1 1.6 -2.6 2.6 -3.7 2.6 -4.4 0.1z"/>
  <path d="M406 71 c-1.2 -0.7 -1.2 -1 -0.1 -1 0.7 0 1.1 -0.6 0.7 -1.5 -1.1 -3 6.1 -4.8 8.4 -2 1 1.2 1 1.5 -0.4 1.5 -0.9 0 -2.1 0.9 -2.8 2 -1.4 2.2 -3.4 2.5 -5.8 1z"/>
  <path d="M153.4 67.8 l-1.9 -2.2 2.7 1.7 c1.5 0.9 4.1 1.7 5.8 1.7 2.7 0 3 -0.3 3 -2.9 0 -1.7 0.5 -3.3 1 -3.6 1.4 -0.9 1.3 4.8 -0.2 6.3 -2.1 2.1 -8.3 1.5 -10.4 -1z"/>
  <path d="M122.2 65.3 c0.2 -1 1.2 -1.9 2.3 -2 1.7 -0.2 1.7 -0.1 0.2 0.3 -1.1 0.4 -1.6 1.2 -1.3 2 0.3 0.8 0.1 1.4 -0.5 1.4 -0.6 0 -0.9 -0.8 -0.7 -1.7z"/>
  <path d="M154.7 66.3 c-1.5 -1.4 -0.6 -3.3 1.6 -3.3 2 0 2.3 -0.4 1.9 -3.5 -0.3 -2.1 0 -3.5 0.7 -3.5 0.6 0 1.1 -1.1 1.1 -2.5 0 -2.9 2.1 -3.3 4.4 -1 1.1 1.1 1.3 2.6 0.9 4.8 -0.8 4.5 -1.3 4.6 -1.3 0.4 0 -2 -0.4 -3.8 -0.9 -4.2 -1.1 -0.6 -2.6 9.8 -1.7 11.3 1 1.7 -5.2 3.1 -6.7 1.5z"/>
  <path d="M357.8 61.4 c-1 -2.2 -0.9 -2.7 0.5 -3.5 1.9 -1.1 2.3 -6.4 0.6 -7.5 -0.7 -0.4 -1 -0.1 -0.7 0.7 0.3 0.8 -0.3 2.5 -1.3 3.8 -1 1.3 -1.7 2.6 -1.5 3 0.3 0.4 -1.1 0.5 -3 0.3 -1.9 -0.2 -3.4 -0.8 -3.4 -1.3 0 -0.5 -0.7 -0.9 -1.5 -0.9 -0.8 0 -1.5 -0.7 -1.5 -1.5 0 -1 1 -1.5 3.3 -1.5 3.8 -0.1 6.7 -2 6.8 -4.6 0 -1.1 0.3 -1.3 0.6 -0.6 0.2 0.6 1 1.2 1.7 1.2 0.7 0 1.8 1.2 2.5 2.6 1 2.2 0.8 3.1 -0.9 5.9 -1.9 3 -1.9 3.4 -0.5 4.9 0.9 0.9 1.2 1.6 0.5 1.6 -0.6 0 -1.6 -1.2 -2.2 -2.6z"/>
  <path d="M379 56 c0 -2.2 2 -2.6 3.8 -0.8 1.9 1.9 1.4 2.8 -1.3 2.8 -1.8 0 -2.5 -0.5 -2.5 -2z"/>
 </g>
 <g fill="#9bc89a">
  <path d="M10.9 99 l-2.4 -2 3.7 1.5 c5 2 7.6 1.9 12.3 -0.5 4.5 -2.3 4.5 -2.3 4.5 -1.2 0 1.6 -7.1 4.2 -11.4 4.2 -2.9 0 -5.2 -0.7 -6.7 -2z"/>
  <path d="M32.1 99.6 c-1 -1.1 -0.4 -1.3 3.4 -0.8 l4.5 0.5 0 -13.6 c0 -7.5 -0.4 -14.7 -1 -16.2 -0.6 -1.6 -0.6 -2.4 0 -2 1.9 1.2 3 8.3 3 19.6 0 7.6 -0.4 11.9 -1.2 12.7 -1.6 1.6 -7.3 1.5 -8.7 -0.2z"/>
  <path d="M50.2 99.7 c-0.9 -1 0.2 -1.2 5.3 -0.9 l6.5 0.4 0 -23.6 c0 -20.1 -0.2 -24 -1.6 -26.1 -2 -3.1 -3.1 -3.2 -3.7 -0.3 -0.2 1.3 -0.4 0.5 -0.3 -1.7 l0 -4.1 3.3 3.7 c3.2 3.5 3.3 3.9 3.3 12.3 0 6.2 0.3 8.6 1.3 8.6 0.9 0 1.2 2.2 1.2 8 0 5.7 -0.4 8 -1.2 8 -0.9 0 -1.3 2.2 -1.3 7.9 0 6.3 -0.3 8 -1.6 8.5 -2.8 1.1 -10.1 0.6 -11.2 -0.7z"/>
  <path d="M79.3 99.1 c-5.8 -2.7 -5.4 -3.2 1 -1 6.1 2.1 9.7 2.3 16.6 0.8 3.2 -0.7 5.1 -1.6 5.4 -2.7 0.4 -1.5 0.5 -1.5 0.6 -0.1 0.2 3 -2.9 4.3 -11.2 4.6 -6.6 0.3 -9 0 -12.4 -1.6z"/>
  <path d="M109.7 100.3 c-1.6 -1.5 -0.4 -1.8 6.1 -1.5 l6.8 0.3 1.7 -3.5 c0.9 -2 2.3 -3.6 3.2 -3.6 1.3 0 1.2 0.3 -0.2 1.9 -1 1.1 -2.6 3.1 -3.6 4.5 -1.6 2.3 -2.5 2.6 -7.6 2.6 -3.2 0 -6.1 -0.3 -6.4 -0.7z"/>
  <path d="M135.3 100.4 c-3 -1.3 -0.8 -1.9 5.8 -1.6 l7.1 0.4 -1.2 -2.4 c-1.1 -2.2 -1 -2.2 0.5 -0.3 0.8 1 1.4 2.4 1.2 3 -0.4 1 -11.3 1.8 -13.4 0.9z"/>
  <path d="M176.5 100.3 c-1.1 -0.3 -2.4 -1 -3 -1.5 -0.7 -0.8 -0.5 -0.9 0.6 -0.5 4.3 1.5 13.2 1.8 17.9 0.7 8 -1.9 10.9 -7.7 7.9 -15.7 -1 -2.6 -0.9 -2.7 0.7 -1.1 2.2 2.2 2.3 9.8 0.1 13.1 -2.5 3.8 -7.6 5.7 -15.4 5.6 -3.7 -0.1 -7.7 -0.3 -8.8 -0.6z"/>
  <path d="M315.3 100.3 c-1.2 -0.2 -2.7 -1.1 -3.5 -2 -1.2 -1.5 -1.1 -1.5 1.2 -0.3 3.8 2.1 17.8 1.9 21.7 -0.3 4.2 -2.2 6 -7.6 4.4 -13.3 -0.9 -3.3 -0.8 -3.6 0.3 -2.1 0.7 0.9 1.8 1.7 2.5 1.7 0.6 0 1.1 1.8 1.1 4.5 0 2.6 -0.5 4.5 -1.1 4.5 -0.6 0 -2 1.1 -3.1 2.5 -3.2 4.1 -7 5.5 -14.5 5.4 -3.7 -0.1 -7.8 -0.4 -9 -0.6z"/>
  <path d="M348.2 99.7 c-0.9 -1 0.2 -1.2 5.3 -0.9 l6.5 0.4 0 -16 c0 -13.7 0.2 -16.1 1.6 -16.6 2.3 -0.9 3.4 -0.7 3.4 0.4 0 0.6 -0.9 1 -2 1 -1.9 0 -2 0.7 -2 15.9 0 13.6 -0.2 16 -1.6 16.5 -2.8 1.1 -10.1 0.6 -11.2 -0.7z"/>
  <path d="M376.3 99.8 c-1.3 -0.6 -2.3 -1.5 -2.3 -2.1 0 -0.5 0.5 -0.5 1.3 0.1 2.2 1.8 9 2.5 13.5 1.3 3.8 -1.1 4.2 -1.5 4.2 -4.4 0 -2 -0.9 -4.2 -2.1 -5.6 -1.2 -1.2 -1.8 -2.5 -1.4 -2.9 1.4 -1.4 4.5 4.4 4.5 8.4 0 3.4 -0.4 4.3 -2.5 5.2 -3.2 1.5 -12.2 1.4 -15.2 0z"/>
  <path d="M408.4 99.6 c-1.8 -0.8 -3.5 -1.9 -3.9 -2.6 -0.4 -0.6 0.8 -0.4 2.6 0.6 4.1 2.2 18.1 2.5 21.7 0.6 3.4 -1.9 2.7 -7.3 -1.5 -12 -1.9 -2 -1.7 -2.2 3.2 -2.2 5.1 0 6.1 1.7 1.3 2.2 -3 0.3 -3.1 0.4 -1.5 2 1.1 1 1.7 3.2 1.7 5.8 0 3.7 -0.3 4.2 -3.5 5.6 -4.3 1.8 -16 1.8 -20.1 0z"/>
  <path d="M102.5 91.4 c-1.9 -1.9 -1.5 -2.7 0.9 -1.8 0.9 0.3 1.6 1.2 1.6 2 0 1.8 -0.5 1.8 -2.5 -0.2z"/>
  <path d="M141.9 89.2 c-0.8 -1 -1.8 -2.7 -2.2 -3.7 -0.7 -1.9 -0.7 -1.9 0.9 0 1.8 2.3 3.6 5.5 3.2 5.5 -0.2 0 -1 -0.8 -1.9 -1.8z"/>
  <path d="M98 85 c0 -0.5 1.4 -1 3 -1 2.9 0 3 -0.1 3 -5 0 -2.8 -0.7 -6.6 -1.4 -8.5 -2.1 -5 -0.9 -4.3 1.4 0.8 2.2 4.7 2.6 11.7 0.8 13.5 -1.4 1.4 -6.8 1.6 -6.8 0.2z"/>
  <path d="M178 83.3 c-2.3 -2.3 -2.3 -2.4 -0.3 -1.4 2.2 1.1 3.8 3 3.2 3.5 -0.2 0.2 -1.5 -0.8 -2.9 -2.1z"/>
  <path d="M316.6 83.4 l-1.9 -2.6 2.7 1.7 c1.4 1 2.6 2.1 2.6 2.6 0 1.6 -1.5 0.9 -3.4 -1.7z"/>
  <path d="M386 84 c0 -0.5 0.7 -1 1.5 -1 0.8 0 1.5 0.5 1.5 1 0 0.6 -0.7 1 -1.5 1 -0.8 0 -1.5 -0.4 -1.5 -1z"/>
  <path d="M383.7 82.9 c-0.5 -0.9 -0.7 -3.6 -0.5 -6 0.3 -4.2 0.4 -4.4 3.8 -4.7 2.1 -0.2 4.3 0.4 5.5 1.3 2 1.6 2 1.6 -0.2 0.6 -1.2 -0.6 -3.3 -1.1 -4.7 -1.1 -2.3 0 -2.5 0.4 -2.8 5.8 -0.2 3.7 -0.6 5.1 -1.1 4.1z"/>
  <path d="M137.6 82.2 c-0.5 -0.8 1.2 -4.3 4.4 -9.4 3.9 -6.2 4.8 -8.3 3.8 -8.9 -0.9 -0.6 -0.4 -0.9 1.4 -0.9 1.5 0 3 0.5 3.3 1 0.3 0.6 0 1 -0.7 1 -1.4 0 -9.9 12.8 -10.8 16.4 -0.4 1.5 -0.8 1.7 -1.4 0.8z"/>
  <path d="M6 73.7 c0 -0.7 1.1 -1.7 2.5 -2.3 2.2 -1.1 2.4 -1 1.5 0.6 -1.2 2.2 -4 3.4 -4 1.7z"/>
  <path d="M190.1 73.2 c-0.6 -0.2 -1.1 -0.8 -1.1 -1.3 0 -0.6 1.8 -0.8 4.5 -0.4 4.1 0.7 4.5 0.5 5.6 -1.8 0.8 -1.8 0.8 -3 0 -4.5 -1.7 -3.3 -1.3 -3.7 0.9 -0.9 1.9 2.4 2 2.7 0.4 6 -1.5 3.1 -2.1 3.4 -5.5 3.3 -2.1 0 -4.3 -0.2 -4.8 -0.4z"/>
  <path d="M329.2 73.2 c-0.6 -0.2 -1.2 -0.8 -1.2 -1.3 0 -0.6 1.8 -0.8 4.5 -0.4 4.2 0.7 4.5 0.6 5.5 -2 0.7 -1.7 0.7 -3.2 0 -4.5 -1.6 -2.9 -1.2 -3.7 0.6 -1.2 1.7 2.4 1.2 7.6 -0.9 8.9 -1.4 0.8 -6.6 1.2 -8.5 0.5z"/>
  <path d="M431.4 71.2 c-1.1 -2.8 -1 -2.8 1.2 -1.8 1.3 0.6 2.4 1.9 2.4 2.9 0 2.7 -2.5 2 -3.6 -1.1z"/>
  <path d="M153.4 67.8 l-1.9 -2.2 2.7 1.7 c1.5 0.9 4.1 1.7 5.7 1.7 2.9 0 3 -0.1 3.6 -6.4 0.4 -3.5 0.4 -7.3 0 -8.5 -0.7 -2.2 1 -3 1.8 -0.8 0.5 1.3 -0.1 10.6 -0.9 14.5 -0.4 1.9 -1.1 2.2 -4.8 2.2 -3.2 0 -4.8 -0.6 -6.2 -2.2z"/>
  <path d="M9 68 c0 -0.5 1 -1 2.3 -1 1.8 0 1.9 0.2 0.7 1 -1.9 1.3 -3 1.3 -3 0z"/>
  <path d="M392 66.2 c0 -0.6 -0.3 -1.7 -0.6 -2.6 -0.5 -1.3 -0.2 -1.3 2 -0.3 1.4 0.7 2.4 1.7 2.3 2.2 -0.5 1.3 -3.7 1.9 -3.7 0.7z"/>
  <path d="M357.8 61.5 c-1 -2.1 -0.8 -2.7 0.7 -3.9 1.4 -1 1.7 -2.1 1.2 -5.2 -0.6 -3.8 -0.6 -3.8 0.8 -1.4 1.5 2.7 1.1 5.5 -1.1 8 -1.4 1.7 -0.8 3.4 1.6 4.3 1.2 0.4 1.1 0.6 -0.3 0.6 -0.9 0.1 -2.3 -1 -2.9 -2.4z"/>
  <path d="M10 58 c0 -0.5 0.7 -1 1.5 -1 0.8 0 1.5 0.5 1.5 1 0 0.6 -0.7 1 -1.5 1 -0.8 0 -1.5 -0.4 -1.5 -1z"/>
  <path d="M74 58 c0 -0.5 0.7 -1 1.5 -1 0.8 0 1.5 0.5 1.5 1 0 0.6 -0.7 1 -1.5 1 -0.8 0 -1.5 -0.4 -1.5 -1z"/>
  <path d="M174 58 c0 -0.5 0.7 -1 1.5 -1 0.8 0 1.5 0.5 1.5 1 0 0.6 -0.7 1 -1.5 1 -0.8 0 -1.5 -0.4 -1.5 -1z"/>
  <path d="M313 58 c0 -0.5 0.7 -1 1.5 -1 0.8 0 1.5 0.5 1.5 1 0 0.6 -0.7 1 -1.5 1 -0.8 0 -1.5 -0.4 -1.5 -1z"/>
  <path d="M403 58 c0 -0.5 0.7 -1 1.5 -1 0.8 0 1.5 0.5 1.5 1 0 0.6 -0.7 1 -1.5 1 -0.8 0 -1.5 -0.4 -1.5 -1z"/>
  <path d="M16 57 c0 -1.2 4.5 -2.4 5.9 -1.5 2.2 1.3 1 2.5 -2.4 2.5 -1.9 0 -3.5 -0.4 -3.5 -1z"/>
  <path d="M79.3 56.8 c0.2 -0.7 1.4 -1.3 2.7 -1.3 1.3 0 2.5 0.6 2.8 1.3 0.2 0.8 -0.7 1.2 -2.8 1.2 -2.1 0 -3 -0.4 -2.7 -1.2z"/>
  <path d="M179.3 56.8 c0.2 -0.7 1.4 -1.3 2.7 -1.3 1.3 0 2.5 0.6 2.8 1.3 0.2 0.8 -0.7 1.2 -2.8 1.2 -2.1 0 -3 -0.4 -2.7 -1.2z"/>
  <path d="M318.3 56.8 c0.2 -0.7 1.4 -1.3 2.7 -1.3 1.3 0 2.5 0.6 2.8 1.3 0.2 0.8 -0.7 1.2 -2.8 1.2 -2.1 0 -3 -0.4 -2.7 -1.2z"/>
  <path d="M380.3 57.3 c0.9 -0.2 1.7 -0.9 1.7 -1.4 0 -0.6 0.5 -0.7 1 -0.4 1.9 1.2 1 2.5 -1.7 2.4 -1.7 -0.1 -2.1 -0.3 -1 -0.6z"/>
  <path d="M407.3 56.8 c0.2 -0.7 1.6 -1.3 3.2 -1.3 1.6 0 3 0.6 3.3 1.3 0.2 0.8 -0.8 1.2 -3.3 1.2 -2.5 0 -3.5 -0.4 -3.2 -1.2z"/>
  <path d="M200 56 c0 -0.5 0.7 -1 1.5 -1 0.8 0 1.5 0.5 1.5 1 0 0.6 -0.7 1 -1.5 1 -0.8 0 -1.5 -0.4 -1.5 -1z"/>
  <path d="M207 55 c0 -0.5 0.7 -1 1.5 -1 0.8 0 1.5 0.5 1.5 1 0 0.6 -0.7 1 -1.5 1 -0.8 0 -1.5 -0.4 -1.5 -1z"/>
  <path d="M220 53 c0 -0.5 0.7 -1 1.5 -1 0.8 0 1.5 0.5 1.5 1 0 0.6 -0.7 1 -1.5 1 -0.8 0 -1.5 -0.4 -1.5 -1z"/>
  <path d="M227 52 c0 -0.5 0.7 -1 1.5 -1 0.8 0 1.5 0.5 1.5 1 0 0.6 -0.7 1 -1.5 1 -0.8 0 -1.5 -0.4 -1.5 -1z"/>
  <path d="M346 43 c0 -0.5 0.7 -1 1.5 -1 0.8 0 1.5 0.5 1.5 1 0 0.6 -0.7 1 -1.5 1 -0.8 0 -1.5 -0.4 -1.5 -1z"/>
 </g>
 <g fill="#e8f2e7">
  <path d="M8.6 94.8 c0.3 -0.4 2.4 -0.8 4.8 -0.8 2.3 0 5.1 -0.7 6.2 -1.5 2.6 -2 4.2 -1.9 2.1 0.2 -1.7 1.7 -14 3.7 -13.1 2.1z"/>
  <path d="M80.5 94.9 c-1.3 -0.5 0.3 -0.8 4.4 -0.8 3.5 -0.1 6.2 0.1 6 0.3 -0.9 0.9 -8.6 1.2 -10.4 0.5z"/>
  <path d="M177 95 c-2.8 -0.5 -2 -0.7 4 -1.2 4.1 -0.3 8.6 -0.9 10 -1.3 2.1 -0.5 2.2 -0.5 0.7 0.5 -2.5 1.6 -10.5 2.7 -14.7 2z"/>
  <path d="M316 95 c-2.8 -0.5 -2 -0.7 4 -1.2 4.1 -0.3 8.6 -0.9 10 -1.3 2.1 -0.5 2.2 -0.5 0.7 0.5 -2.5 1.6 -10.5 2.7 -14.7 2z"/>
  <path d="M409 94.9 c-1.7 -0.5 -0.2 -0.7 4.4 -0.8 3.8 -0.1 6.7 0.1 6.5 0.3 -0.9 0.8 -8.5 1.2 -10.9 0.5z"/>
  <path d="M35.4 82 c0 -7.4 0.1 -10.5 0.3 -6.7 0.2 3.7 0.2 9.7 0 13.5 -0.2 3.7 -0.3 0.6 -0.3 -6.8z"/>
  <path d="M56.2 71.3 c-0.1 -13.3 0.1 -24.4 0.6 -24.6 0.4 -0.3 0.6 6.8 0.4 15.6 -0.4 30.2 -0.8 33.3 -1 9z"/>
  <path d="M92 93.9 c0 -0.5 0.4 -0.9 0.9 -0.9 0.5 0 1.7 -0.3 2.7 -0.7 1.1 -0.4 1.5 -0.3 1.1 0.4 -0.9 1.4 -4.7 2.4 -4.7 1.2z"/>
  <path d="M379.9 94 c3.6 -0.4 6.7 -1.3 7.2 -2.1 0.7 -1.1 0.9 -1.1 0.9 0.2 0 2.1 -3 2.9 -9.5 2.7 -5 -0.1 -5 -0.1 1.4 -0.8z"/>
  <path d="M421 94 c0 -0.6 0.7 -1 1.5 -1 0.7 0 1.9 -0.8 2.5 -1.7 1 -1.7 1.1 -1.7 0.8 0.1 -0.3 1.9 -4.8 4.4 -4.8 2.6z"/>
  <path d="M121.8 85.3 c0.6 -0.3 1 -0.9 0.6 -1.4 -0.3 -0.5 -0.1 -0.9 0.4 -0.9 2.1 0 1.9 2.6 -0.2 2.7 -1.1 0 -1.5 -0.1 -0.8 -0.4z"/>
  <path d="M16.5 78.6 c3.5 -1.8 6.1 -2 7 -0.6 0.4 0.6 -0.6 1 -2.2 1 -1.5 0 -3.9 0.3 -5.3 0.5 -2.2 0.5 -2.1 0.3 0.5 -0.9z"/>
  <path d="M365 69.2 c0 -0.7 -0.7 -1.2 -1.5 -1.2 -0.8 0 -1.5 -0.4 -1.5 -1 0 -0.5 0.7 -1 1.5 -1 1.7 0 3.2 2.7 2.1 3.7 -0.3 0.4 -0.6 0.1 -0.6 -0.5z"/>
  <path d="M9 68.1 c0 -0.8 3.4 -2.1 5.5 -2.1 1.1 0.1 -3.5 2.9 -4.7 3 -0.5 0 -0.8 -0.4 -0.8 -0.9z"/>
  <path d="M179.7 68.4 c-1 -1.1 0.5 -3.4 2.2 -3.4 1.4 0.1 1.4 0.2 -0.2 1.1 -0.9 0.6 -1.5 1.4 -1.2 2 0.7 1 0.2 1.2 -0.8 0.3z"/>
  <path d="M318.7 68.4 c-1 -1.1 0.5 -3.4 2.2 -3.4 1.4 0.1 1.4 0.2 -0.2 1.1 -0.9 0.6 -1.5 1.4 -1.2 2 0.7 1 0.2 1.2 -0.8 0.3z"/>
  <path d="M379 67 c0 -0.5 2.1 -1 4.8 -1 3.4 0 4.3 0.3 3.2 1 -2 1.3 -8 1.3 -8 0z"/>
  <path d="M407.4 66.6 c2.6 -2.1 6 -2 7.7 0.2 1.3 1.5 1.2 1.6 -0.3 0.3 -1.7 -1.3 -2.7 -1.2 -7.3 0.4 -2 0.7 -2 0.6 -0.1 -0.9z"/>
  <path d="M16 66 c0 -0.5 0.9 -1 2.1 -1 1.1 0 1.7 0.5 1.4 1 -0.3 0.6 -1.3 1 -2.1 1 -0.8 0 -1.4 -0.4 -1.4 -1z"/>
  <path d="M79 66 c0.8 -0.5 2.6 -0.9 4 -0.9 l2.5 0.1 -2.5 0.8 c-1.4 0.4 -3.2 0.8 -4 0.9 -1.3 0.1 -1.3 0 0 -0.9z"/>
  <path d="M154 63.9 c0 -0.5 1.2 -0.9 2.7 -0.9 3 0 2.7 0.9 -0.6 1.5 -1.1 0.2 -2.1 0 -2.1 -0.6z"/>
  <path d="M158 59 c0 -1.6 0.4 -3 0.8 -3 0.5 0 0.7 1.4 0.4 3 -0.2 1.7 -0.6 3 -0.8 3 -0.2 0 -0.4 -1.3 -0.4 -3z"/>
  <path d="M347.4 53.9 c-1.4 -0.6 -1 -0.8 1.8 -0.8 2 -0.1 4 -0.5 4.3 -1.1 0.3 -0.5 1.1 -1 1.7 -1 0.7 0 0.7 0.5 -0.1 1.4 -1.5 1.8 -5.2 2.5 -7.7 1.5z"/>
 </g>
</svg>