<?xml version="1.0" encoding="UTF-8" standalone="yes"?>
<!-- Created with sK1/UniConvertor (http://sk1project.org/) -->
<svg xmlns="http://www.w3.org/2000/svg" xmlns:xlink="http://www.w3.org/1999/xlink"
  width="400pt" height="400pt" viewBox="0 0 400 400"
  fill-rule="evenodd">
<g>
<path style="stroke:none; fill:#ffffff" d="M 0 0L 0 400L 400 400L 400 0L 0 0z"/>
<path style="stroke:none; fill:#ffc199" d="M 136.8 88L 136.8 88.8L 139.2 88.8C 138.202 88.252 137.962 88.2008 136.8 88z"/>
<path style="stroke:none; fill:#ff9148" d="M 139.2 88L 139.2 88.8L 260 88.8C 250.645 84.8744 234.184 88 224 88L 139.2 88z"/>
<path style="stroke:none; fill:#ffad79" d="M 260 88L 260 88.8L 262.4 88.8C 261.402 88.252 261.162 88.2008 260 88z"/>
<path style="stroke:none; fill:#ffdfc7" d="M 262.934 88.2664C 262.578 88.6224 263.422 88.5776 263.466 88.5336C 263.822 88.1776 262.978 88.2224 262.934 88.2664z"/>
<path style="stroke:none; fill:#ffb888" d="M 134.4 88.8L 135.2 89.6L 134.4 88.8z"/>
<path style="stroke:none; fill:#ff6b01" d="M 135.2 89.2256C 115.407 93.9416 120.8 121.086 120.8 136L 120.8 252.8C 120.8 266.27 116.516 288.808 123.04 300.8C 130.098 313.775 145.154 311.2 157.6 311.2L 229.6 311.2C 240.538 311.2 254.207 313.395 264.8 310.589C 284.774 305.298 280 279.526 280 264L 280 146.4C 280 132.848 284.27 110.379 277.11 98.4008C 269.721 86.0416 254.646 88.8 242.4 88.8L 170.4 88.8C 159.405 88.8 145.903 86.676 135.2 89.2256z"/>
<path style="stroke:none; fill:#ffa167" d="M 264.8 88.8L 265.6 89.6L 264.8 88.8z"/>
<path style="stroke:none; fill:#ffd2b7" d="M 265.6 88.8L 266.4 89.6L 265.6 88.8z"/>
<path style="stroke:none; fill:#ffc7a3" d="M 132 89.6L 132.8 90.4L 132 89.6z"/>
<path style="stroke:none; fill:#ffa167" d="M 267.2 89.6L 268 90.4L 267.2 89.6z"/>
<path style="stroke:none; fill:#ffd2b7" d="M 130.4 90.4L 131.2 91.2L 130.4 90.4z"/>
<path style="stroke:none; fill:#ffad79" d="M 268.8 90.4L 269.6 91.2L 268.8 90.4z"/>
<path style="stroke:none; fill:#ff9148" d="M 129.6 91.2L 130.4 92L 129.6 91.2z"/>
<path style="stroke:none; fill:#ffc7a3" d="M 270.4 91.2L 271.2 92L 270.4 91.2z"/>
<path style="stroke:none; fill:#ffd2b7" d="M 128 92L 128.8 92.8L 128 92z"/>
<path style="stroke:none; fill:#ffa167" d="M 271.2 92L 272 92.8L 271.2 92M 127.2 92.8L 128 93.6L 127.2 92.8z"/>
<path style="stroke:none; fill:#ff9148" d="M 126.4 93.6L 127.2 94.4L 126.4 93.6z"/>
<path style="stroke:none; fill:#ffd2b7" d="M 273.6 93.6L 274.4 94.4L 273.6 93.6z"/>
<path style="stroke:none; fill:#ff9148" d="M 125.6 94.4L 126.4 95.2L 125.6 94.4z"/>
<path style="stroke:none; fill:#ffa167" d="M 124.8 95.2L 125.6 96L 124.8 95.2z"/>
<path style="stroke:none; fill:#ffc7a3" d="M 124 96L 124.8 96.8L 124 96z"/>
<path style="stroke:none; fill:#ff9148" d="M 275.2 96L 276 96.8L 275.2 96z"/>
<path style="stroke:none; fill:#ffb888" d="M 276 96.8L 276.8 97.6L 276 96.8z"/>
<path style="stroke:none; fill:#ffc199" d="M 122.4 98.4L 123.2 99.2L 122.4 98.4z"/>
<path style="stroke:none; fill:#ffc7a3" d="M 277.6 99.2L 278.4 100L 277.6 99.2z"/>
<path style="stroke:none; fill:#ffb888" d="M 121.6 100L 122.4 100.8L 121.6 100z"/>
<path style="stroke:none; fill:#ffd2b7" d="M 278.4 100.8L 279.2 101.6L 278.4 100.8M 120.8 101.6L 121.6 102.4L 120.8 101.6z"/>
<path style="stroke:none; fill:#ffa167" d="M 278.4 101.6L 279.2 102.4L 278.4 101.6M 120.8 102.4L 121.6 103.2L 120.8 102.4z"/>
<path style="stroke:none; fill:#ffd2b7" d="M 279.2 103.2L 280 104L 279.2 103.2z"/>
<path style="stroke:none; fill:#ff9a56" d="M 279.466 104.534C 279.422 104.578 279.378 105.422 279.734 105.066C 279.778 105.022 279.822 104.178 279.466 104.534z"/>
<path style="stroke:none; fill:#ffb888" d="M 120.266 105.334C 120.222 105.378 120.178 106.222 120.534 105.866C 120.578 105.822 120.622 104.978 120.266 105.334z"/>
<path style="stroke:none; fill:#ff9148" d="M 120 106.4L 120 292L 120.8 292L 120.8 161.6L 120.8 124C 120.8 118.651 122.079 111.355 120 106.4z"/>
<path style="stroke:none; fill:#ffe7d5" d="M 280 108L 280 292L 280.8 292L 280.8 162.4L 280.8 124.8C 280.8 119.664 281.998 112.761 280 108z"/>
<path style="stroke:none; fill:#ff8739" d="M 179.2 157.6C 181.602 155.794 181.676 152.865 183.2 150.4C 183.342 149.084 183.313 149.082 184 148C 184.142 146.684 184.113 146.682 184.8 145.6C 184.942 144.284 184.913 144.282 185.6 143.2L 184.8 140.8C 187.49 140.3 190.062 140.022 192.8 140C 183.33 132.825 179.718 151.258 179.2 157.6z"/>
<path style="stroke:none; fill:#ffffff" d="M 181.6 156C 183.701 155.329 184.129 154.901 184.8 152.8C 189.422 152.816 191.818 155.3 196 156C 195.48 152.478 193.419 140.237 188.8 140.237C 184.181 140.237 182.12 152.478 181.6 156z"/>
<path style="stroke:none; fill:#ffb888" d="M 191.2 140L 191.2 140.8L 191.2 141.6L 192.8 140.8L 192.8 141.6L 192 143.2L 192 144L 193.6 143.2L 193.6 144L 192.8 145.6L 192.8 146.4L 194.4 145.6L 194.4 146.4L 193.6 148L 193.6 148.8L 194.4 148.8C 195.134 145.278 194.377 141.937 191.2 140z"/>
<path style="stroke:none; fill:#ff6b01" d="M 185.066 141.334C 185.022 141.378 184.978 142.222 185.334 141.866C 185.378 141.822 185.422 140.978 185.066 141.334z"/>
<path style="stroke:none; fill:#ffc199" d="M 185.6 140.8L 186.4 141.6L 185.6 140.8z"/>
<path style="stroke:none; fill:#ff9a56" d="M 192.266 141.334C 192.222 141.378 192.178 142.222 192.534 141.866C 192.578 141.822 192.622 140.978 192.266 141.334M 188 141.6L 187.2 146.4L 188 146.4L 188.8 144.8C 189.352 146.03 189.062 145.87 190.4 145.6C 189.759 143.917 189.202 142.93 188 141.6z"/>
<path style="stroke:none; fill:#ffc199" d="M 187.466 142.934C 187.422 142.978 187.378 143.822 187.734 143.466C 187.778 143.422 187.822 142.578 187.466 142.934z"/>
<path style="stroke:none; fill:#ff8739" d="M 198.4 142.4C 198.4 146.536 196.566 154.895 200 157.6C 199.157 153.057 199.2 148.606 199.2 144C 203.54 144.687 207.939 143.924 212 145.6C 209.39 141.132 202.989 142.457 198.4 142.4z"/>
<path style="stroke:none; fill:#ff6b01" d="M 184.266 143.734C 184.222 143.778 184.178 144.622 184.534 144.266C 184.578 144.222 184.622 143.378 184.266 143.734z"/>
<path style="stroke:none; fill:#ffc199" d="M 184.8 143.2L 185.6 144L 184.8 143.2z"/>
<path style="stroke:none; fill:#ff9a56" d="M 193.066 143.734C 193.022 143.778 192.978 144.622 193.334 144.266C 193.378 144.222 193.422 143.378 193.066 143.734z"/>
<path style="stroke:none; fill:#ff8028" d="M 199.2 144L 199.2 156L 200 156C 200 152.146 200.701 147.577 199.2 144z"/>
<path style="stroke:none; fill:#ffd2b7" d="M 200 144L 200 156L 200.8 156C 200.8 152.146 201.501 147.577 200 144z"/>
<path style="stroke:none; fill:#ffffff" d="M 200.8 144L 200.8 156L 203.2 156C 203.201 152.234 203.314 149.108 204.8 145.6L 200.8 144z"/>
<path style="stroke:none; fill:#ffc199" d="M 205.6 144L 206.4 144.8L 205.6 144z"/>
<path style="stroke:none; fill:#ffffff" d="M 205.6 144.8C 208.472 148.438 209.558 151.363 209.6 156L 212 156C 212 150.944 212.932 142.849 205.6 144.8M 188 144.8L 188 147.2L 188.8 147.2C 188.599 146.038 188.548 145.798 188 144.8z"/>
<path style="stroke:none; fill:#ffd2b7" d="M 202.934 145.066C 202.578 145.422 203.422 145.378 203.466 145.334C 203.822 144.978 202.978 145.022 202.934 145.066z"/>
<path style="stroke:none; fill:#ffe7d5" d="M 204.8 144.8C 205.584 146.226 205.526 146.075 207.2 146.4L 207.2 145.6L 204.8 144.8z"/>
<path style="stroke:none; fill:#ffad79" d="M 212 144.8L 212 146.4L 213.6 146.4C 213.164 145.092 213.308 145.236 212 144.8z"/>
<path style="stroke:none; fill:#ff6b01" d="M 183.466 146.134C 183.422 146.178 183.378 147.022 183.734 146.666C 183.778 146.622 183.822 145.778 183.466 146.134z"/>
<path style="stroke:none; fill:#ffb888" d="M 184 145.6L 184.8 146.4L 184 145.6z"/>
<path style="stroke:none; fill:#ffc7a3" d="M 186.4 145.6C 187.119 147.299 187.101 147.281 188.8 148C 187.918 146.834 187.566 146.482 186.4 145.6z"/>
<path style="stroke:none; fill:#ff8028" d="M 189.6 145.6C 188.766 147.276 188.318 148.559 188 150.4C 189.698 150.154 190.149 150.094 191.2 148.8C 188.934 148.8 190.487 147.102 189.6 145.6z"/>
<path style="stroke:none; fill:#ff9a56" d="M 193.866 146.134C 193.822 146.178 193.778 147.022 194.134 146.666C 194.178 146.622 194.222 145.778 193.866 146.134z"/>
<path style="stroke:none; fill:#ffe7d5" d="M 211.466 146.134C 211.422 146.178 211.378 147.022 211.734 146.666C 211.778 146.622 211.822 145.778 211.466 146.134z"/>
<path style="stroke:none; fill:#ff9148" d="M 204 148L 206.4 147.2C 207.165 150.414 207.2 153.51 207.2 156.8C 208.229 154.349 208.454 143.169 204 148z"/>
<path style="stroke:none; fill:#ffd2b7" d="M 207.2 146.4L 208 147.2L 207.2 146.4z"/>
<path style="stroke:none; fill:#ff9148" d="M 212 146.4L 212 156.8L 212.8 156.8C 212.8 153.39 213.329 149.567 212 146.4z"/>
<path style="stroke:none; fill:#ffe7d5" d="M 212.8 146.4L 212.8 157.6L 213.6 157.6C 213.6 153.967 214.215 149.774 212.8 146.4z"/>
<path style="stroke:none; fill:#ff9148" d="M 186.4 147.2L 186.4 149.6L 187.2 149.6C 186.999 148.438 186.948 148.198 186.4 147.2M 189.6 147.2L 189.6 149.6C 190.556 148.622 190.653 148.464 191.2 147.2L 189.6 147.2z"/>
<path style="stroke:none; fill:#ffc199" d="M 203.2 147.2C 203.919 148.899 203.901 148.881 205.6 149.6C 204.718 148.434 204.366 148.082 203.2 147.2z"/>
<path style="stroke:none; fill:#ffe7d5" d="M 204.8 147.2L 204.8 148.8C 206.108 148.364 205.964 148.508 206.4 147.2L 204.8 147.2z"/>
<path style="stroke:none; fill:#ff6b01" d="M 182.666 148.534C 182.622 148.578 182.578 149.422 182.934 149.066C 182.978 149.022 183.022 148.178 182.666 148.534z"/>
<path style="stroke:none; fill:#ffb888" d="M 183.2 148L 184 148.8L 183.2 148z"/>
<path style="stroke:none; fill:#ffede2" d="M 187.2 148L 188 148.8L 187.2 148z"/>
<path style="stroke:none; fill:#ff9a56" d="M 194.4 148L 194.4 149.6C 195.708 149.164 195.564 149.308 196 148L 194.4 148z"/>
<path style="stroke:none; fill:#ffe7d5" d="M 185.866 149.334C 185.822 149.378 185.778 150.222 186.134 149.866C 186.178 149.822 186.222 148.978 185.866 149.334z"/>
<path style="stroke:none; fill:#ffb888" d="M 187.2 148.8L 186.4 150.4L 188 150.4C 188 148.918 188.24 149.32 187.2 148.8z"/>
<path style="stroke:none; fill:#ffc199" d="M 195.2 148.8C 194.411 149.983 194.4 149.762 194.4 151.2C 195.431 150.046 195.521 150.213 195.2 148.8z"/>
<path style="stroke:none; fill:#ffad79" d="M 203.2 148.8L 203.2 156.8L 204 156.8C 204 154.069 204.262 151.33 203.2 148.8z"/>
<path style="stroke:none; fill:#ff7514" d="M 208 148.8C 207.998 151.829 207.903 154.645 207.2 157.6C 209.538 155.557 209.138 151.51 208 148.8z"/>
<path style="stroke:none; fill:#ffdfc7" d="M 191.2 149.6L 192 150.4L 191.2 149.6z"/>
<path style="stroke:none; fill:#ffe7d5" d="M 204 149.6L 204 157.6L 204.8 157.6C 204.8 154.869 205.062 152.13 204 149.6z"/>
<path style="stroke:none; fill:#ff8739" d="M 204.8 149.6L 204.8 157.6L 205.6 157.6C 205.6 154.869 205.862 152.13 204.8 149.6z"/>
<path style="stroke:none; fill:#ffede2" d="M 208.8 149.6L 208.8 156L 209.6 156C 209.594 153.731 209.678 151.69 208.8 149.6z"/>
<path style="stroke:none; fill:#ff6b01" d="M 181.866 150.934C 181.822 150.978 181.778 151.822 182.134 151.466C 182.178 151.422 182.222 150.578 181.866 150.934z"/>
<path style="stroke:none; fill:#ffad79" d="M 182.4 150.4L 183.2 151.2L 182.4 150.4z"/>
<path style="stroke:none; fill:#ff9a56" d="M 195.2 150.4L 195.2 152C 196.508 151.564 196.364 151.708 196.8 150.4L 195.2 150.4z"/>
<path style="stroke:none; fill:#ffc199" d="M 196 151.2C 195.211 152.383 195.2 152.162 195.2 153.6C 196.231 152.446 196.321 152.613 196 151.2z"/>
<path style="stroke:none; fill:#ffad79" d="M 181.6 152.8L 182.4 153.6L 181.6 152.8M 184.8 152.8L 184.8 153.6C 187.229 153.644 189.592 153.865 192 153.6C 189.688 152.63 187.301 152.802 184.8 152.8M 196 152.8C 196.309 154.514 196.596 155.4 197.6 156.8L 198.4 156C 197.842 154.746 197.701 154.171 197.6 152.8L 196 152.8z"/>
<path style="stroke:none; fill:#ff9148" d="M 184.8 153.6L 184.8 156L 185.6 156C 185.399 154.838 185.348 154.598 184.8 153.6z"/>
<path style="stroke:none; fill:#ffc199" d="M 185.6 153.6L 185.6 154.4L 190.4 154.4C 188.758 153.701 187.402 153.638 185.6 153.6z"/>
<path style="stroke:none; fill:#ff8739" d="M 191.2 153.6C 191.534 155.751 191.774 156.443 193.6 157.6C 193.001 155.797 192.525 154.949 191.2 153.6z"/>
<path style="stroke:none; fill:#ffc199" d="M 197.066 154.134C 197.022 154.178 196.978 155.022 197.334 154.666C 197.378 154.622 197.422 153.778 197.066 154.134z"/>
<path style="stroke:none; fill:#ffffff" d="M 185.866 154.934C 185.822 154.978 185.778 155.822 186.134 155.466C 186.178 155.422 186.222 154.578 185.866 154.934z"/>
<path style="stroke:none; fill:#ffc7a3" d="M 180.8 155.2C 181.437 158.173 183.71 157.6 186.4 157.6C 184.929 155.623 183.188 155.6 180.8 155.2M 193.6 157.6L 197.6 157.6L 196.8 155.2C 195.207 155.879 194.578 156.214 193.6 157.6z"/>
<path style="stroke:none; fill:#ffe7d5" d="M 197.866 156.534C 197.822 156.578 197.778 157.422 198.134 157.066C 198.178 157.022 198.222 156.178 197.866 156.534z"/>
<path style="stroke:none; fill:#ffad79" d="M 200.266 156.534C 200.222 156.578 200.178 157.422 200.534 157.066C 200.578 157.022 200.622 156.178 200.266 156.534z"/>
<path style="stroke:none; fill:#ffc7a3" d="M 200.8 156C 201.851 157.294 202.302 157.354 204 157.6C 202.766 156.586 202.362 156.409 200.8 156M 208.8 156L 208.8 157.6L 212.8 157.6C 211.369 156.462 210.635 156.242 208.8 156z"/>
<path style="stroke:none; fill:#ff8739" d="M 135.2 172.8L 135.2 173.6C 137.397 174.211 138.603 174.211 140.8 173.6C 138.934 172.812 137.234 172.815 135.2 172.8M 144 172.8L 144 173.6C 148.119 174.818 152.55 174.411 156.8 175.2C 153.338 171.957 148.472 172.8 144 172.8z"/>
<path style="stroke:none; fill:#ff7514" d="M 166.4 172.8L 166.4 191.2L 167.2 191.2C 167.2 185.626 168.563 177.956 166.4 172.8z"/>
<path style="stroke:none; fill:#ff8739" d="M 167.2 172.8L 167.2 173.6C 169.35 174.074 170.673 174.14 172.8 173.6C 170.934 172.812 169.234 172.815 167.2 172.8z"/>
<path style="stroke:none; fill:#ff9148" d="M 135.2 173.6L 135.2 191.2L 136 191.2C 136 185.838 137.282 178.562 135.2 173.6M 140 173.6L 140 191.2L 140.8 191.2C 140.8 185.374 140.244 179.297 141.6 173.6L 140 173.6M 144 173.6L 144 191.2L 144.8 191.2C 144.8 185.838 146.082 178.562 144 173.6M 167.2 173.6L 167.2 191.2L 168 191.2C 168 185.838 169.282 178.562 167.2 173.6z"/>
<path style="stroke:none; fill:#ff8028" d="M 168 173.6C 168 179.674 168.614 186.062 167.2 192C 170.376 189.225 169.571 177.345 168 173.6z"/>
<path style="stroke:none; fill:#ff9148" d="M 172 173.6L 172 187.2L 172.8 187.2C 172.8 182.91 173.67 177.579 172 173.6z"/>
<path style="stroke:none; fill:#ff7514" d="M 136 174.4C 136 180.226 136.556 186.303 135.2 192C 138.322 189.272 137.54 178.07 136 174.4z"/>
<path style="stroke:none; fill:#ffe7d5" d="M 136.8 174.4L 136.8 190.4L 137.6 190.4C 137.6 185.465 138.718 178.972 136.8 174.4z"/>
<path style="stroke:none; fill:#ffffff" d="M 137.6 174.4L 137.6 190.4L 140 190.4L 140 174.4L 137.6 174.4z"/>
<path style="stroke:none; fill:#ffe7d5" d="M 140.8 174.4L 140.8 192L 141.6 192C 141.6 186.638 142.882 179.362 140.8 174.4z"/>
<path style="stroke:none; fill:#ff8028" d="M 141.6 174.4L 141.6 192L 142.4 192C 142.4 186.638 143.682 179.362 141.6 174.4M 144.8 174.4C 144.8 180.226 145.356 186.303 144 192C 147.122 189.272 146.34 178.07 144.8 174.4z"/>
<path style="stroke:none; fill:#ffffff" d="M 145.6 174.4L 145.6 190.4C 149.745 190.4 163.87 187.626 154.4 182.4C 159.915 174.7 151.447 174.4 145.6 174.4z"/>
<path style="stroke:none; fill:#ffc7a3" d="M 154.4 174.4L 155.2 175.2L 154.4 174.4z"/>
<path style="stroke:none; fill:#ffffff" d="M 168.8 174.4L 168.8 190.4L 178.4 190.4L 178.4 188.8L 171.2 188L 171.2 174.4L 168.8 174.4z"/>
<path style="stroke:none; fill:#ffe7d5" d="M 171.2 174.4L 171.2 188L 172 188C 172 183.71 172.87 178.379 171.2 174.4z"/>
<path style="stroke:none; fill:#ffede2" d="M 172.8 174.4L 172.8 186.4L 173.6 186.4C 173.6 182.546 174.301 177.977 172.8 174.4z"/>
<path style="stroke:none; fill:#ffd2b7" d="M 156 175.2L 156.8 176L 156 175.2z"/>
<path style="stroke:none; fill:#ffa167" d="M 157.066 175.734C 157.022 175.778 156.978 176.622 157.334 176.266C 157.378 176.222 157.422 175.378 157.066 175.734z"/>
<path style="stroke:none; fill:#ffe7d5" d="M 148.8 176L 148.8 176.8L 151.2 176.8C 150.202 176.252 149.962 176.201 148.8 176z"/>
<path style="stroke:none; fill:#ffb888" d="M 157.6 176C 157.234 178.229 157.305 178.764 159.2 180C 158.891 178.286 158.604 177.4 157.6 176z"/>
<path style="stroke:none; fill:#ff9148" d="M 148.8 176.8L 148.8 180.8L 152 180.8L 152 180L 149.6 180L 149.6 177.6L 152 177.6C 150.795 177.054 150.148 176.939 148.8 176.8z"/>
<path style="stroke:none; fill:#ffa167" d="M 150.4 177.6L 150.4 178.4L 153.6 178.4C 152.221 177.555 152.063 177.571 150.4 177.6z"/>
<path style="stroke:none; fill:#ff8739" d="M 183.2 189.6C 181.887 182.502 186.818 173.459 193.6 181.6C 195.423 173.11 172.13 178.76 183.2 189.6M 197.6 184L 205.6 183.2C 205.6 181.762 205.589 181.982 204.8 180.8L 200 182.4C 200.021 180.923 199.864 180.587 199.2 179.2C 202.814 178.342 205.378 178.55 208.8 180C 204.58 172.776 198.342 178.002 197.6 184M 212 176.8L 212 177.6L 216.8 179.2C 216.217 176.478 214.555 176.81 212 176.8z"/>
<path style="stroke:none; fill:#ff9148" d="M 219.2 176.8L 219.2 177.6C 220.486 178.76 220.851 179.241 221.6 180.8L 222.4 180.8L 223.2 177.6C 221.759 177.15 220.702 176.941 219.2 176.8z"/>
<path style="stroke:none; fill:#ff8739" d="M 224 176.8C 224 181.794 223.378 187.189 224.8 192L 225.6 192C 224.757 187.457 224.8 183.006 224.8 178.4C 229.101 178.932 233.343 178.445 237.6 179.2C 234.079 175.902 228.582 176.958 224 176.8M 240.8 183.2C 242.717 181.143 244.926 179.17 246.4 176.8C 242.691 177.555 240.426 179.246 240.8 183.2z"/>
<path style="stroke:none; fill:#ffa167" d="M 246.4 176.8C 247.184 178.226 247.126 178.075 248.8 178.4C 247.822 177.444 247.664 177.347 246.4 176.8z"/>
<path style="stroke:none; fill:#ff9148" d="M 248 176.8L 248 177.6L 251.2 178.4C 249.966 177.386 249.562 177.209 248 176.8z"/>
<path style="stroke:none; fill:#ff8028" d="M 255.2 176.8L 255.2 191.2L 256 191.2C 256 186.694 256.953 180.978 255.2 176.8z"/>
<path style="stroke:none; fill:#ff8739" d="M 256 176.8L 256 192L 256.8 192L 256.8 178.4L 260.8 178.4C 259.154 177.134 258.09 176.939 256 176.8z"/>
<path style="stroke:none; fill:#ff8028" d="M 262.4 176.8L 261.6 180L 264.8 178.4C 263.889 177.588 263.51 177.353 262.4 176.8z"/>
<path style="stroke:none; fill:#ff9148" d="M 263.2 176.8L 263.2 177.6L 267.2 178.4C 265.77 177.263 265.035 177.042 263.2 176.8z"/>
<path style="stroke:none; fill:#ffd2b7" d="M 149.6 177.6L 149.6 180L 150.4 180C 150.199 178.839 150.148 178.598 149.6 177.6z"/>
<path style="stroke:none; fill:#ff9148" d="M 212 177.6L 212 191.2L 212.8 191.2C 212.8 186.91 213.67 181.579 212 177.6z"/>
<path style="stroke:none; fill:#ff8739" d="M 217.6 180L 220.8 178.4C 218.87 177.316 218.054 177.881 217.6 180z"/>
<path style="stroke:none; fill:#ff7514" d="M 223.2 177.6L 223.2 191.2L 224 191.2C 224 186.91 224.87 181.579 223.2 177.6z"/>
<path style="stroke:none; fill:#ff8028" d="M 150.4 178.4C 151.383 179.896 151.894 180.179 153.6 180.8C 153.138 178.642 152.591 178.569 150.4 178.4z"/>
<path style="stroke:none; fill:#ffd2b7" d="M 153.866 178.934C 153.822 178.978 153.778 179.822 154.134 179.466C 154.178 179.422 154.222 178.578 153.866 178.934z"/>
<path style="stroke:none; fill:#ffffff" d="M 192.8 190.4L 192.8 188.8C 189.251 188.685 187.245 188.061 185.6 184.8L 193.6 184.8C 192.739 169.214 174.605 187.042 186.415 190.146C 188.417 190.671 190.748 190.4 192.8 190.4z"/>
<path style="stroke:none; fill:#ffd2b7" d="M 191.2 178.4L 192 179.2L 191.2 178.4M 200 178.4L 200.8 179.2L 200 178.4z"/>
<path style="stroke:none; fill:#ffffff" d="M 199.2 179.2L 199.2 180C 203.074 180.294 204.928 181.566 204.8 185.6L 206.4 185.6C 205.937 188.338 206.082 189.492 208.8 190.4C 208.8 182.624 208.517 176.983 199.2 179.2z"/>
<path style="stroke:none; fill:#ff7514" d="M 212.8 178.4C 212.8 182.974 213.065 187.526 212 192C 214.823 189.533 214.174 181.676 212.8 178.4z"/>
<path style="stroke:none; fill:#ffffff" d="M 213.6 178.4L 213.6 190.4L 216.8 190.4C 216.805 184.58 218.634 182.975 221.6 178.4C 218.526 179.278 216.66 179.081 213.6 178.4z"/>
<path style="stroke:none; fill:#ffa167" d="M 216.8 178.4L 216 180L 217.6 180C 217.6 178.518 217.84 178.92 216.8 178.4z"/>
<path style="stroke:none; fill:#ffffff" d="M 222.4 178.4L 222.4 180.8L 223.2 180.8C 222.999 179.638 222.948 179.398 222.4 178.4z"/>
<path style="stroke:none; fill:#ffad79" d="M 224.8 178.4L 224.8 190.4L 225.6 190.4C 225.6 186.546 226.301 181.977 224.8 178.4z"/>
<path style="stroke:none; fill:#ffffff" d="M 225.6 178.4L 225.6 190.4L 228 190.4C 228.03 180.2 234.37 180.2 234.4 190.4L 236.8 190.4C 236.8 178.749 235.543 180.407 225.6 178.4M 252 190.4L 252 188.8C 248.279 188.679 246.273 187.783 244 184.8L 252.8 184.8C 251.898 168.474 233.385 187.83 245.635 190.218C 247.679 190.616 249.926 190.4 252 190.4z"/>
<path style="stroke:none; fill:#ffc199" d="M 250.4 178.4L 251.2 179.2L 250.4 178.4z"/>
<path style="stroke:none; fill:#ffad79" d="M 256.8 178.4L 256.8 192L 257.6 192C 257.6 187.71 258.47 182.379 256.8 178.4z"/>
<path style="stroke:none; fill:#ffffff" d="M 257.6 178.4L 257.6 190.4L 260 190.4C 260.017 184.425 263.134 183.256 264.8 178.4C 262.098 179.214 260.319 179.11 257.6 178.4z"/>
<path style="stroke:none; fill:#ffa167" d="M 259.2 178.4C 260.178 179.356 260.336 179.453 261.6 180C 260.816 178.574 260.874 178.725 259.2 178.4z"/>
<path style="stroke:none; fill:#ffd2b7" d="M 263.2 178.4L 264 179.2L 263.2 178.4z"/>
<path style="stroke:none; fill:#ffb888" d="M 264.8 178.4C 264.8 179.838 264.811 179.618 265.6 180.8L 266.4 180.8C 267.189 179.617 267.2 179.838 267.2 178.4L 264.8 178.4z"/>
<path style="stroke:none; fill:#ff9a56" d="M 157.066 179.734C 157.022 179.778 156.978 180.622 157.334 180.266C 157.378 180.222 157.422 179.378 157.066 179.734z"/>
<path style="stroke:none; fill:#ff6b01" d="M 183.2 179.2L 184 180L 183.2 179.2z"/>
<path style="stroke:none; fill:#ffc199" d="M 184 179.2L 184.8 180L 184 179.2z"/>
<path style="stroke:none; fill:#ffad79" d="M 208.8 179.2L 208.8 180.8L 210.4 180.8C 209.964 179.492 210.108 179.636 208.8 179.2z"/>
<path style="stroke:none; fill:#ffb888" d="M 218.4 179.2L 219.2 180L 218.4 179.2z"/>
<path style="stroke:none; fill:#ffe7d5" d="M 221.066 179.734C 221.022 179.778 220.978 180.622 221.334 180.266C 221.378 180.222 221.422 179.378 221.066 179.734z"/>
<path style="stroke:none; fill:#ffb888" d="M 228 179.2L 228 180L 230.4 180C 229.402 179.452 229.162 179.401 228 179.2z"/>
<path style="stroke:none; fill:#ffd2b7" d="M 236 179.2L 236.8 180L 236 179.2z"/>
<path style="stroke:none; fill:#ffa167" d="M 236.8 179.2L 236.8 181.6L 238.4 180.8L 238.4 180L 236.8 179.2z"/>
<path style="stroke:none; fill:#ffb888" d="M 252 179.2L 252 180.8L 253.6 180.8C 253.164 179.492 253.308 179.636 252 179.2z"/>
<path style="stroke:none; fill:#ffd2b7" d="M 156 180L 156.8 180.8L 156 180z"/>
<path style="stroke:none; fill:#ffede2" d="M 157.6 180L 158.4 180.8L 157.6 180z"/>
<path style="stroke:none; fill:#ffad79" d="M 183.2 180L 184 180.8L 183.2 180z"/>
<path style="stroke:none; fill:#ffb888" d="M 185.6 182.4L 188.8 181.6C 188.322 180.644 188.427 180.818 187.2 180C 186.388 180.911 186.153 181.29 185.6 182.4z"/>
<path style="stroke:none; fill:#ffa167" d="M 187.2 180L 187.2 180.8L 190.4 181.6L 190.4 180.8L 187.2 180z"/>
<path style="stroke:none; fill:#ffd2b7" d="M 192.8 180L 193.6 180.8L 192.8 180z"/>
<path style="stroke:none; fill:#ffe7d5" d="M 199.734 180.266C 199.378 180.622 200.222 180.578 200.266 180.534C 200.622 180.178 199.778 180.222 199.734 180.266z"/>
<path style="stroke:none; fill:#ffad79" d="M 200.8 182.4C 202.393 181.721 203.022 181.386 204 180C 201.809 180.169 201.262 180.242 200.8 182.4z"/>
<path style="stroke:none; fill:#ffe7d5" d="M 208.266 180.534C 208.222 180.578 208.178 181.422 208.534 181.066C 208.578 181.022 208.622 180.178 208.266 180.534z"/>
<path style="stroke:none; fill:#ffdfc7" d="M 230.934 180.266C 230.578 180.622 231.422 180.578 231.466 180.534C 231.822 180.178 230.978 180.222 230.934 180.266z"/>
<path style="stroke:none; fill:#ffd2b7" d="M 242.4 180L 243.2 180.8L 242.4 180z"/>
<path style="stroke:none; fill:#ff9148" d="M 244.8 183.2L 250.4 183.2L 250.4 182.4C 249.199 181.989 246.268 181.774 248 180.8C 245.877 180.308 245.433 181.226 244.8 183.2z"/>
<path style="stroke:none; fill:#ffb888" d="M 246.4 180.8L 246.4 181.6L 249.6 181.6C 248.221 180.755 248.063 180.771 246.4 180.8z"/>
<path style="stroke:none; fill:#ffad79" d="M 264.8 180C 263.288 181.361 261.858 182.26 260.8 184L 261.6 184C 263.346 182.808 265.36 182.318 264.8 180z"/>
<path style="stroke:none; fill:#ff9a56" d="M 266.4 180L 266.4 182.4L 267.2 182.4C 266.999 181.238 266.948 180.998 266.4 180z"/>
<path style="stroke:none; fill:#ffc7a3" d="M 150.4 180.8L 150.4 181.6L 152.8 181.6C 151.802 181.052 151.562 181.001 150.4 180.8z"/>
<path style="stroke:none; fill:#ff9148" d="M 154.4 181.6C 156.142 183.708 157.186 185.278 157.6 188L 158.4 188C 158.4 184.602 156.538 181.845 156.8 180.8C 155.362 180.8 155.583 180.811 154.4 181.6z"/>
<path style="stroke:none; fill:#ffe7d5" d="M 156.8 180.8L 157.6 181.6L 156.8 180.8z"/>
<path style="stroke:none; fill:#ffb888" d="M 157.6 180.8L 158.4 181.6L 157.6 180.8z"/>
<path style="stroke:none; fill:#ffd2b7" d="M 185.6 180.8L 186.4 181.6L 185.6 180.8z"/>
<path style="stroke:none; fill:#ffc199" d="M 194.4 180.8C 193.95 182.241 193.741 183.298 193.6 184.8L 194.4 184.8C 194.749 183.159 194.898 182.354 194.4 180.8z"/>
<path style="stroke:none; fill:#ff9148" d="M 208.8 180.8L 208.8 191.2L 209.6 191.2C 209.6 187.79 210.129 183.967 208.8 180.8z"/>
<path style="stroke:none; fill:#ffe7d5" d="M 209.6 180.8L 209.6 192L 210.4 192C 210.4 188.367 211.015 184.174 209.6 180.8z"/>
<path style="stroke:none; fill:#ffc199" d="M 218.4 180.8L 218.4 181.6L 221.6 181.6C 220.395 181.054 219.748 180.939 218.4 180.8z"/>
<path style="stroke:none; fill:#ffad79" d="M 221.6 180.8L 216.8 182.4L 216.8 183.2C 218.566 183.001 222.506 183.075 221.6 180.8z"/>
<path style="stroke:none; fill:#ffd2b7" d="M 222.666 181.334C 222.622 181.378 222.578 182.222 222.934 181.866C 222.978 181.822 223.022 180.978 222.666 181.334z"/>
<path style="stroke:none; fill:#ffa167" d="M 228.8 184L 229.6 184L 230.4 181.6C 231.582 182.389 231.362 182.4 232.8 182.4C 230.902 180.306 229.548 181.726 228.8 184z"/>
<path style="stroke:none; fill:#ffc7a3" d="M 237.6 180.8C 236.663 183.968 236.8 187.11 236.8 190.4L 234.4 190.4L 234.4 183.2L 233.6 183.2C 233.603 187.626 233.106 191.578 238.4 192L 238.4 191.2C 236.422 188.251 238.398 184.12 237.6 180.8z"/>
<path style="stroke:none; fill:#ff9148" d="M 252.8 180.8L 252.8 182.4C 254.108 181.964 253.964 182.108 254.4 180.8L 252.8 180.8z"/>
<path style="stroke:none; fill:#ffc7a3" d="M 263.734 181.066C 263.378 181.422 264.222 181.378 264.266 181.334C 264.622 180.978 263.778 181.022 263.734 181.066z"/>
<path style="stroke:none; fill:#ffe7d5" d="M 265.866 181.334C 265.822 181.378 265.778 182.222 266.134 181.866C 266.178 181.822 266.222 180.978 265.866 181.334z"/>
<path style="stroke:none; fill:#ffb888" d="M 156.534 181.866C 156.178 182.222 157.022 182.178 157.066 182.134C 157.422 181.778 156.578 181.822 156.534 181.866z"/>
<path style="stroke:none; fill:#ffc199" d="M 182.4 181.6L 183.2 182.4L 182.4 181.6z"/>
<path style="stroke:none; fill:#ff7514" d="M 188.534 181.866C 188.178 182.222 189.022 182.178 189.066 182.134C 189.422 181.778 188.578 181.822 188.534 181.866z"/>
<path style="stroke:none; fill:#ff9148" d="M 185.6 182.4L 185.6 183.2L 191.2 183.2C 189.315 182.103 187.794 182.287 185.6 182.4z"/>
<path style="stroke:none; fill:#ffc199" d="M 190.4 181.6L 191.2 182.4L 190.4 181.6z"/>
<path style="stroke:none; fill:#ffd2b7" d="M 200 181.6L 200.8 182.4L 200 181.6z"/>
<path style="stroke:none; fill:#ffe7d5" d="M 230.4 181.6L 231.2 182.4L 230.4 181.6z"/>
<path style="stroke:none; fill:#ffb888" d="M 232.8 181.6L 233.6 182.4L 232.8 181.6z"/>
<path style="stroke:none; fill:#ff9a56" d="M 238.4 181.6L 238.4 192L 239.2 192C 239.2 188.59 239.729 184.767 238.4 181.6z"/>
<path style="stroke:none; fill:#ffd2b7" d="M 245.6 181.6L 246.4 182.4L 245.6 181.6z"/>
<path style="stroke:none; fill:#ff8028" d="M 247.734 181.866C 247.378 182.222 248.222 182.178 248.266 182.134C 248.622 181.778 247.778 181.822 247.734 181.866z"/>
<path style="stroke:none; fill:#ffdfc7" d="M 253.866 182.134C 253.822 182.178 253.778 183.022 254.134 182.666C 254.178 182.622 254.222 181.778 253.866 182.134z"/>
<path style="stroke:none; fill:#ffd2b7" d="M 260.8 181.6L 261.6 182.4L 260.8 181.6z"/>
<path style="stroke:none; fill:#ff9148" d="M 195.2 182.4C 195.294 184.584 195.599 186.651 196 188.8L 196.8 188.8C 196.69 186.382 196.449 184.482 195.2 182.4z"/>
<path style="stroke:none; fill:#ff7514" d="M 210.4 182.4L 210.4 192L 211.2 192C 211.2 188.814 211.642 185.358 210.4 182.4z"/>
<path style="stroke:none; fill:#ffffff" d="M 218.4 182.4C 217.463 185.568 217.6 188.71 217.6 192L 218.4 192C 218.4 188.851 218.881 185.48 218.4 182.4z"/>
<path style="stroke:none; fill:#ff8028" d="M 220 182.4L 220 183.2L 223.2 183.2C 221.995 182.654 221.348 182.539 220 182.4z"/>
<path style="stroke:none; fill:#ffd2b7" d="M 229.866 182.934C 229.822 182.978 229.778 183.822 230.134 183.466C 230.178 183.422 230.222 182.578 229.866 182.934z"/>
<path style="stroke:none; fill:#ff8028" d="M 232 182.4L 232 191.2L 232.8 191.2C 232.802 188.171 232.897 185.355 233.6 182.4L 232 182.4z"/>
<path style="stroke:none; fill:#ffad79" d="M 237.6 182.4C 237.598 185.429 237.503 188.245 236.8 191.2C 239.138 189.157 238.738 185.11 237.6 182.4z"/>
<path style="stroke:none; fill:#ff9148" d="M 240 182.4C 240.017 184.68 240.152 186.617 240.8 188.8L 241.6 188.8C 241.484 186.338 241.404 184.432 240 182.4z"/>
<path style="stroke:none; fill:#ffad79" d="M 252.8 182.4L 252.8 185.6L 253.6 185.6C 253.461 184.252 253.346 183.605 252.8 182.4z"/>
<path style="stroke:none; fill:#ffe7d5" d="M 261.6 182.4L 261.6 184C 262.908 183.564 262.764 183.708 263.2 182.4L 261.6 182.4z"/>
<path style="stroke:none; fill:#ff8028" d="M 264 182.4L 264 183.2L 266.4 183.2C 265.402 182.652 265.162 182.601 264 182.4z"/>
<path style="stroke:none; fill:#ffad79" d="M 148.8 183.2L 148.8 184L 153.6 184.8C 151.954 183.534 150.89 183.339 148.8 183.2z"/>
<path style="stroke:none; fill:#ffd2b7" d="M 187.2 183.2L 187.2 184L 191.2 184C 189.785 183.377 188.771 183.27 187.2 183.2z"/>
<path style="stroke:none; fill:#ffad79" d="M 194.4 183.2L 193.6 185.6C 195.013 184.817 195.164 184.622 194.4 183.2z"/>
<path style="stroke:none; fill:#ffe7d5" d="M 201.6 183.2L 201.6 184C 203.226 184.258 203.986 184.272 205.6 184C 204.185 183.377 203.171 183.27 201.6 183.2z"/>
<path style="stroke:none; fill:#ff9148" d="M 216.8 183.2L 216.8 191.2L 217.6 191.2C 217.6 188.469 217.862 185.73 216.8 183.2z"/>
<path style="stroke:none; fill:#ffb888" d="M 218.4 183.2L 219.2 184L 218.4 183.2z"/>
<path style="stroke:none; fill:#ffe7d5" d="M 228 183.2L 228 190.4L 228.8 190.4C 228.798 187.899 228.97 185.512 228 183.2z"/>
<path style="stroke:none; fill:#ff8739" d="M 232.8 183.2L 232.8 192L 233.6 192C 233.6 189.04 233.952 185.946 232.8 183.2z"/>
<path style="stroke:none; fill:#ffd2b7" d="M 246.4 183.2L 246.4 184L 250.4 184C 248.985 183.377 247.971 183.27 246.4 183.2z"/>
<path style="stroke:none; fill:#ffc7a3" d="M 253.6 183.2C 253.6 184.638 253.589 184.417 252.8 185.6C 250.27 184.538 247.531 184.8 244.8 184.8L 244.8 185.6C 247.968 186.537 251.11 186.4 254.4 186.4C 254.261 185.052 254.146 184.405 253.6 183.2M 260 183.2C 260 187.148 259.203 188.715 257.6 192L 261.6 192C 261.608 188.852 262.608 185.313 260 183.2z"/>
<path style="stroke:none; fill:#ff9148" d="M 148.8 184C 148.851 186.394 148.757 187.477 151.2 188L 151.2 187.2L 148.8 184z"/>
<path style="stroke:none; fill:#ffd2b7" d="M 149.6 184L 149.6 187.2L 150.4 187.2L 151.2 184L 149.6 184z"/>
<path style="stroke:none; fill:#ff8028" d="M 196.8 184C 196.722 186.174 196.562 188.244 196.8 190.4L 197.6 190.4C 197.752 188.023 198.267 186.192 199.2 184L 196.8 184z"/>
<path style="stroke:none; fill:#ffd2b7" d="M 199.2 184L 200 184.8L 199.2 184z"/>
<path style="stroke:none; fill:#ffffff" d="M 204 189.6C 202.11 187.787 201.438 186.89 203.2 184.8C 197.488 182.822 196.058 191.862 204 189.6z"/>
<path style="stroke:none; fill:#ffad79" d="M 228.8 184C 228.802 186.789 228.808 189.32 229.6 192L 230.4 192L 230.4 184L 228.8 184M 241.066 184.534C 241.022 184.578 240.978 185.422 241.334 185.066C 241.378 185.022 241.422 184.178 241.066 184.534z"/>
<path style="stroke:none; fill:#ff6b01" d="M 150.4 187.2C 152.099 186.481 152.081 186.499 152.8 184.8C 150.909 185.186 150.786 185.309 150.4 187.2z"/>
<path style="stroke:none; fill:#ff9a56" d="M 152.8 184.8C 153.347 186.064 153.444 186.222 154.4 187.2C 153.853 185.936 153.756 185.778 152.8 184.8z"/>
<path style="stroke:none; fill:#ffd2b7" d="M 158.666 185.334C 158.622 185.378 158.578 186.222 158.934 185.866C 158.978 185.822 159.022 184.978 158.666 185.334z"/>
<path style="stroke:none; fill:#ffc7a3" d="M 185.6 184.8L 185.6 185.6C 188.814 186.365 191.91 186.4 195.2 186.4C 192.318 184.431 188.994 184.8 185.6 184.8z"/>
<path style="stroke:none; fill:#ff9148" d="M 200.8 188L 201.6 188L 201.6 185.6L 204.8 187.2C 204.361 183.701 201.482 185.416 200.8 188z"/>
<path style="stroke:none; fill:#ffe7d5" d="M 244.266 185.334C 244.222 185.378 244.178 186.222 244.534 185.866C 244.578 185.822 244.622 184.978 244.266 185.334z"/>
<path style="stroke:none; fill:#ffad79" d="M 261.6 184.8L 261.6 192L 262.4 192C 262.398 189.499 262.57 187.112 261.6 184.8z"/>
<path style="stroke:none; fill:#ffb888" d="M 185.6 185.6L 185.6 187.2L 187.2 187.2L 187.2 185.6L 185.6 185.6z"/>
<path style="stroke:none; fill:#ffc7a3" d="M 197.6 185.6L 198.4 186.4L 197.6 185.6M 201.6 185.6L 201.6 186.4L 204 186.4C 203.002 185.852 202.762 185.801 201.6 185.6z"/>
<path style="stroke:none; fill:#ffdfc7" d="M 205.866 186.134C 205.822 186.178 205.778 187.022 206.134 186.666C 206.178 186.622 206.222 185.778 205.866 186.134z"/>
<path style="stroke:none; fill:#ff9a56" d="M 244.8 185.6C 245.519 187.299 245.501 187.281 247.2 188C 246.318 186.834 245.966 186.482 244.8 185.6z"/>
<path style="stroke:none; fill:#ff8028" d="M 151.2 188C 152.874 187.675 152.816 187.826 153.6 186.4C 152.336 186.947 152.178 187.044 151.2 188z"/>
<path style="stroke:none; fill:#ffe7d5" d="M 158.666 186.934C 158.622 186.978 158.578 187.822 158.934 187.466C 158.978 187.422 159.022 186.578 158.666 186.934z"/>
<path style="stroke:none; fill:#ffad79" d="M 172.8 186.4L 172 188L 173.6 188C 173.6 186.518 173.84 186.92 172.8 186.4z"/>
<path style="stroke:none; fill:#ff8739" d="M 173.6 186.4L 173.6 188L 180 188C 177.952 186.446 176.154 186.428 173.6 186.4z"/>
<path style="stroke:none; fill:#ffffff" d="M 201.6 186.4L 202.4 187.2L 201.6 186.4z"/>
<path style="stroke:none; fill:#ff8028" d="M 202.4 186.4C 203 189.186 204.578 188.718 205.6 186.4L 202.4 186.4z"/>
<path style="stroke:none; fill:#ff6b01" d="M 246.4 186.4L 246.4 187.2L 252 187.2C 250.134 186.412 248.434 186.415 246.4 186.4z"/>
<path style="stroke:none; fill:#ff9148" d="M 250.4 188C 252.264 188.038 252.005 188.162 252.8 186.4C 251.69 186.953 251.311 187.188 250.4 188z"/>
<path style="stroke:none; fill:#ffd2b7" d="M 153.6 187.2L 154.4 188L 153.6 187.2z"/>
<path style="stroke:none; fill:#ff9148" d="M 186.934 187.466C 186.578 187.822 187.422 187.778 187.466 187.734C 187.822 187.378 186.978 187.422 186.934 187.466z"/>
<path style="stroke:none; fill:#ff8028" d="M 188 187.2C 189.232 188.642 190.078 188.666 192 188.8C 190.599 187.796 189.714 187.509 188 187.2z"/>
<path style="stroke:none; fill:#ff9148" d="M 190.4 187.2L 190.4 188L 193.6 188.8C 192.549 187.506 192.098 187.446 190.4 187.2z"/>
<path style="stroke:none; fill:#ffc199" d="M 201.866 187.734C 201.822 187.778 201.778 188.622 202.134 188.266C 202.178 188.222 202.222 187.378 201.866 187.734z"/>
<path style="stroke:none; fill:#ff8028" d="M 247.2 187.2L 247.2 188.8L 251.2 188.8C 249.769 187.662 249.035 187.442 247.2 187.2z"/>
<path style="stroke:none; fill:#ffc7a3" d="M 150.4 188L 150.4 188.8L 152.8 188.8C 151.802 188.252 151.562 188.201 150.4 188z"/>
<path style="stroke:none; fill:#ffa167" d="M 156.8 188C 155.108 189.258 154.024 189.882 152 190.4L 152 191.2L 156 192L 155.2 190.4L 157.6 191.2C 157.446 189.979 157.305 189.098 156.8 188z"/>
<path style="stroke:none; fill:#ffc7a3" d="M 158.134 188.266C 157.778 188.622 158.622 188.578 158.666 188.534C 159.022 188.178 158.178 188.222 158.134 188.266z"/>
<path style="stroke:none; fill:#ffe7d5" d="M 173.6 188L 173.6 188.8L 178.4 188.8C 176.758 188.101 175.402 188.038 173.6 188z"/>
<path style="stroke:none; fill:#ffad79" d="M 178.4 188L 178.4 191.2L 179.2 191.2C 179.061 189.852 178.946 189.205 178.4 188z"/>
<path style="stroke:none; fill:#ffc7a3" d="M 179.2 188L 179.2 191.2C 175.791 190.193 172.338 190.4 168.8 190.4L 168.8 192L 180 192C 179.93 190.429 179.823 189.415 179.2 188z"/>
<path style="stroke:none; fill:#ffa167" d="M 180 188L 180 192L 180.8 192C 180.73 190.429 180.623 189.415 180 188z"/>
<path style="stroke:none; fill:#ffc7a3" d="M 187.2 188L 188 188.8L 187.2 188M 193.6 188C 193.278 189.555 193.278 189.645 193.6 191.2L 189.6 190.4L 189.6 191.2C 192.34 191.661 194.654 191.213 193.6 188z"/>
<path style="stroke:none; fill:#ff9148" d="M 194.4 188L 194.4 191.2L 195.2 191.2C 195.061 189.852 194.946 189.205 194.4 188z"/>
<path style="stroke:none; fill:#ffb888" d="M 204.8 188L 204 189.6L 205.6 189.6C 205.6 188.118 205.84 188.52 204.8 188z"/>
<path style="stroke:none; fill:#ffc199" d="M 241.6 188L 242.4 188.8L 241.6 188M 246.4 188L 247.2 188.8L 246.4 188z"/>
<path style="stroke:none; fill:#ffad79" d="M 252 188L 252 191.2L 252.8 191.2C 252.661 189.852 252.546 189.205 252 188z"/>
<path style="stroke:none; fill:#ffe7d5" d="M 252.8 188L 252.8 191.2L 253.6 191.2C 253.461 189.852 253.346 189.205 252.8 188z"/>
<path style="stroke:none; fill:#ffffff" d="M 157.6 188.8L 156.8 190.4C 157.81 189.623 157.914 189.845 157.6 188.8z"/>
<path style="stroke:none; fill:#ffd2b7" d="M 183.2 188.8L 184 189.6L 183.2 188.8z"/>
<path style="stroke:none; fill:#ff8028" d="M 241.6 188.8L 241.6 190.4L 243.2 190.4C 242.764 189.092 242.908 189.236 241.6 188.8z"/>
<path style="stroke:none; fill:#ffd2b7" d="M 154.4 189.6L 155.2 190.4L 154.4 189.6z"/>
<path style="stroke:none; fill:#ffad79" d="M 157.6 189.6L 158.4 190.4L 157.6 189.6M 183.2 189.6L 183.2 190.4C 185.905 191.702 188.214 191.974 191.2 192L 191.2 191.2L 183.2 189.6z"/>
<path style="stroke:none; fill:#ff9148" d="M 197.866 190.134C 197.822 190.178 197.778 191.022 198.134 190.666C 198.178 190.622 198.222 189.778 197.866 190.134z"/>
<path style="stroke:none; fill:#ffd2b7" d="M 203.2 189.6L 204 190.4L 203.2 189.6z"/>
<path style="stroke:none; fill:#ff9a56" d="M 202.4 190.4L 202.4 191.2L 205.6 190.4C 204.273 190.075 203.806 190.153 202.4 190.4z"/>
<path style="stroke:none; fill:#ffc7a3" d="M 204 192C 205.308 191.564 205.164 191.708 205.6 190.4L 206.4 190.4C 207.634 191.414 208.038 191.591 209.6 192C 207.531 190.262 205.754 189.687 204 192M 243.2 189.6L 244 190.4L 243.2 189.6M 136.8 190.4L 136.8 192L 140.8 192C 139.37 190.863 138.635 190.642 136.8 190.4M 145.6 190.4L 145.6 192L 155.2 192C 152.184 190.397 148.962 190.41 145.6 190.4z"/>
<path style="stroke:none; fill:#ffede2" d="M 155.734 190.666C 155.378 191.022 156.222 190.978 156.266 190.934C 156.622 190.578 155.778 190.622 155.734 190.666z"/>
<path style="stroke:none; fill:#ffe7d5" d="M 188.534 190.666C 188.178 191.022 189.022 190.978 189.066 190.934C 189.422 190.578 188.578 190.622 188.534 190.666z"/>
<path style="stroke:none; fill:#ffa167" d="M 192.534 190.666C 192.178 191.022 193.022 190.978 193.066 190.934C 193.422 190.578 192.578 190.622 192.534 190.666z"/>
<path style="stroke:none; fill:#ffc7a3" d="M 198.934 190.666C 198.578 191.022 199.422 190.978 199.466 190.934C 199.822 190.578 198.978 190.622 198.934 190.666z"/>
<path style="stroke:none; fill:#ffdfc7" d="M 200 190.4L 200 191.2L 202.4 191.2C 201.402 190.652 201.162 190.601 200 190.4z"/>
<path style="stroke:none; fill:#ff8028" d="M 204.8 192L 207.2 192L 206.4 190.4C 205.092 190.836 205.236 190.692 204.8 192z"/>
<path style="stroke:none; fill:#ffc7a3" d="M 213.6 190.4L 213.6 192L 217.6 192C 216.169 190.862 215.435 190.642 213.6 190.4M 225.6 190.4L 225.6 192L 229.6 192C 228.169 190.862 227.435 190.642 225.6 190.4z"/>
<path style="stroke:none; fill:#ffad79" d="M 233.866 190.934C 233.822 190.978 233.778 191.822 234.134 191.466C 234.178 191.422 234.222 190.578 233.866 190.934M 243.2 190.4L 243.2 191.2C 245.633 191.92 247.865 191.994 250.4 192C 248.137 190.983 245.667 190.714 243.2 190.4z"/>
<path style="stroke:none; fill:#ffd2b7" d="M 246.134 190.666C 245.778 191.022 246.622 190.978 246.666 190.934C 247.022 190.578 246.178 190.622 246.134 190.666z"/>
<path style="stroke:none; fill:#ffe7d5" d="M 247.734 190.666C 247.378 191.022 248.222 190.978 248.266 190.934C 248.622 190.578 247.778 190.622 247.734 190.666z"/>
<path style="stroke:none; fill:#ffc7a3" d="M 249.334 190.666C 248.978 191.022 249.822 190.978 249.866 190.934C 250.222 190.578 249.378 190.622 249.334 190.666z"/>
<path style="stroke:none; fill:#ff9148" d="M 250.934 190.666C 250.578 191.022 251.422 190.978 251.466 190.934C 251.822 190.578 250.978 190.622 250.934 190.666z"/>
<path style="stroke:none; fill:#ffa167" d="M 193.6 191.2L 194.4 192L 193.6 191.2z"/>
<path style="stroke:none; fill:#ffad79" d="M 198.4 191.2L 198.4 192L 203.2 192C 201.558 191.301 200.202 191.238 198.4 191.2z"/>
<path style="stroke:none; fill:#ffede2" d="M 203.2 191.2L 204 192L 203.2 191.2z"/>
<path style="stroke:none; fill:#ffdfc7" d="M 250.4 191.2L 250.4 192L 252.8 192C 251.802 191.452 251.562 191.401 250.4 191.2z"/>
<path style="stroke:none; fill:#ff9148" d="M 252.8 191.2L 253.6 192L 252.8 191.2M 188 192L 188 192.8L 191.2 192.8C 189.995 192.254 189.348 192.139 188 192M 200.8 192L 200.8 192.8L 203.2 192.8C 202.202 192.252 201.962 192.201 200.8 192M 246.4 192L 246.4 192.8L 250.4 192.8C 248.985 192.177 247.971 192.07 246.4 192z"/>
<path style="stroke:none; fill:#ff8739" d="M 245.6 206.4C 245.6 211.215 243.465 223.136 247.2 226.4C 246.034 220.118 248.031 212.194 245.6 206.4z"/>
<path style="stroke:none; fill:#ff9148" d="M 246.4 206.4L 246.4 207.2L 252 208C 250.154 206.593 248.726 206.466 246.4 206.4z"/>
<path style="stroke:none; fill:#ff7514" d="M 141.6 207.2L 141.6 225.6L 142.4 225.6C 142.4 220.026 143.763 212.356 141.6 207.2z"/>
<path style="stroke:none; fill:#ff8739" d="M 142.4 207.2L 142.4 208C 145.87 208.826 149.249 208.8 152.8 208.8C 149.732 206.704 146.004 207.2 142.4 207.2z"/>
<path style="stroke:none; fill:#ff8028" d="M 246.4 207.2L 246.4 224.8L 247.2 224.8C 247.2 219.438 248.482 212.162 246.4 207.2z"/>
<path style="stroke:none; fill:#ffc199" d="M 248 207.2L 248 208L 250.4 208C 249.402 207.452 249.162 207.401 248 207.2z"/>
<path style="stroke:none; fill:#ff8739" d="M 252 207.2L 252 226.4L 252.8 226.4C 252.8 220.614 254.245 212.55 252 207.2z"/>
<path style="stroke:none; fill:#ff9148" d="M 142.4 208L 142.4 225.6L 143.2 225.6C 143.2 220.238 144.482 212.962 142.4 208z"/>
<path style="stroke:none; fill:#ff8028" d="M 143.2 208C 143.2 214.074 143.814 220.462 142.4 226.4C 145.576 223.625 144.771 211.745 143.2 208z"/>
<path style="stroke:none; fill:#ffd2b7" d="M 247.2 208L 247.2 224.8L 248 224.8C 248 219.651 249.2 212.767 247.2 208z"/>
<path style="stroke:none; fill:#ffffff" d="M 248 208L 248 224.8L 250.4 224.8L 250.4 208L 248 208z"/>
<path style="stroke:none; fill:#ffad79" d="M 250.4 208L 250.4 225.6L 251.2 225.6C 251.2 220.238 252.482 212.962 250.4 208z"/>
<path style="stroke:none; fill:#ffe7d5" d="M 251.2 208L 251.2 226.4L 252 226.4C 252 220.826 253.363 213.156 251.2 208z"/>
<path style="stroke:none; fill:#ffffff" d="M 144 208.8L 144 224.8L 146.4 224.8L 146.4 219.2C 150.411 218.87 159.062 214.092 152.546 209.743C 150.266 208.222 146.602 208.8 144 208.8z"/>
<path style="stroke:none; fill:#ffc7a3" d="M 152 208.8L 152.8 209.6L 152 208.8z"/>
<path style="stroke:none; fill:#ffa167" d="M 152.8 208.8C 153.682 209.966 154.034 210.318 155.2 211.2C 154.481 209.501 154.499 209.519 152.8 208.8z"/>
<path style="stroke:none; fill:#ffb888" d="M 155.2 210.4C 155.162 212.264 155.038 212.005 156.8 212.8C 156.247 211.69 156.012 211.311 155.2 210.4z"/>
<path style="stroke:none; fill:#ffe7d5" d="M 146.4 211.2L 146.4 216L 147.2 216C 147.162 214.198 147.099 212.842 146.4 211.2z"/>
<path style="stroke:none; fill:#ff9148" d="M 147.2 211.2C 147.298 214.171 147.539 215.65 150.4 216.8L 150.4 216C 148.816 214.237 148.564 213.559 148.8 211.2L 147.2 211.2z"/>
<path style="stroke:none; fill:#ffad79" d="M 148.8 211.2C 149.584 212.626 149.526 212.475 151.2 212.8C 150.222 211.844 150.064 211.747 148.8 211.2z"/>
<path style="stroke:none; fill:#ff8739" d="M 156.8 220C 159.385 218.07 160.99 214.496 163.2 212C 158.642 211.93 157.399 216.018 156.8 220z"/>
<path style="stroke:none; fill:#ff9148" d="M 162.4 211.2L 162.4 212C 167.048 213.525 169.995 214.632 170.4 220C 173.381 214.006 167.545 211.261 162.4 211.2z"/>
<path style="stroke:none; fill:#ff8739" d="M 172.8 211.2C 172.8 215.273 171.182 223.589 174.4 226.4C 173.557 221.857 173.6 217.406 173.6 212.8C 176.467 212.8 178.143 212.226 177.6 214.4C 179.547 213.879 180.226 213.472 181.6 212C 178.687 211.45 175.766 211.254 172.8 211.2z"/>
<path style="stroke:none; fill:#ff9148" d="M 180.8 211.2C 181.622 213.118 182.142 214.733 182.4 216.8L 183.2 216.8L 183.2 212.8L 184 212.8C 184.951 217.614 186.31 220.142 191.2 221.6C 187.953 218.153 185.41 212.526 180.8 211.2M 186.4 212L 186.4 212.8C 189.949 212.8 193.305 212.951 196.8 213.6C 193.745 211.099 190.108 210.914 186.4 212z"/>
<path style="stroke:none; fill:#ff8739" d="M 198.4 217.6C 201.694 214.075 203.914 212.844 208.8 212.8C 204.384 210.155 197.824 211.596 198.4 217.6M 213.6 211.2C 213.6 215.273 211.982 223.589 215.2 226.4C 214.357 221.857 214.4 217.406 214.4 212.8C 217.551 213.298 219.754 214.09 222.4 212C 219.498 211.28 216.591 211.238 213.6 211.2z"/>
<path style="stroke:none; fill:#ff9148" d="M 221.6 211.2L 221.6 212C 227.942 214.888 227.2 219.374 227.2 225.6L 228 225.6C 228 218.75 229.698 212.971 221.6 211.2z"/>
<path style="stroke:none; fill:#ff8739" d="M 223.734 211.466C 223.378 211.822 224.222 211.778 224.266 211.734C 224.622 211.378 223.778 211.422 223.734 211.466z"/>
<path style="stroke:none; fill:#ff8028" d="M 233.6 211.2L 233.6 212.8L 236 212.8L 236 211.2L 233.6 211.2z"/>
<path style="stroke:none; fill:#ff9148" d="M 236 211.2L 236 212.8C 239.088 213.031 240.835 214.047 243.2 216C 242.506 212.159 239.622 211.398 236 211.2z"/>
<path style="stroke:none; fill:#ffede2" d="M 148 212L 148 215.2L 148.8 215.2C 148.661 213.852 148.546 213.205 148 212z"/>
<path style="stroke:none; fill:#ffe7d5" d="M 154.4 212L 154.4 214.4L 155.2 214.4C 154.999 213.238 154.948 212.998 154.4 212z"/>
<path style="stroke:none; fill:#ff9148" d="M 231.2 212C 231.702 214.349 232.118 215.21 234.4 216L 234.4 215.2C 233.707 213.901 233.665 213.514 233.6 212L 231.2 212z"/>
<path style="stroke:none; fill:#ff7514" d="M 148.8 212.8L 148.8 215.2C 149.756 214.222 149.853 214.064 150.4 212.8L 148.8 212.8z"/>
<path style="stroke:none; fill:#ff8739" d="M 150.4 212.8L 149.6 216C 151.277 214.885 151.466 214.518 150.4 212.8z"/>
<path style="stroke:none; fill:#ffc199" d="M 151.2 212.8L 152 213.6L 151.2 212.8z"/>
<path style="stroke:none; fill:#ff9148" d="M 155.466 213.334C 155.422 213.378 155.378 214.222 155.734 213.866C 155.778 213.822 155.822 212.978 155.466 213.334z"/>
<path style="stroke:none; fill:#ffede2" d="M 156 212.8L 156 216L 156.8 216C 156.661 214.652 156.546 214.005 156 212.8z"/>
<path style="stroke:none; fill:#ffc199" d="M 161.6 212.8L 162.4 213.6L 161.6 212.8z"/>
<path style="stroke:none; fill:#ffffff" d="M 169.6 224.8L 169.6 223.2C 165.844 223.109 163.559 222.556 161.6 219.2L 170.4 219.2C 167.897 203.495 152.392 221.438 162.447 224.453C 164.667 225.118 167.308 224.8 169.6 224.8z"/>
<path style="stroke:none; fill:#ff8028" d="M 173.6 212.8L 173.6 224.8L 174.4 224.8C 174.4 220.946 175.101 216.377 173.6 212.8z"/>
<path style="stroke:none; fill:#ffd2b7" d="M 174.4 212.8L 174.4 224.8L 175.2 224.8C 175.2 220.946 175.901 216.377 174.4 212.8z"/>
<path style="stroke:none; fill:#ffffff" d="M 175.2 212.8L 175.2 224.8L 177.6 224.8C 177.605 218.698 180.696 217.731 182.4 212.8L 177.6 215.2C 176.799 213.661 176.738 213.522 175.2 212.8z"/>
<path style="stroke:none; fill:#ffa167" d="M 176.8 212.8L 176.8 214.4C 178.108 213.964 177.964 214.108 178.4 212.8L 176.8 212.8z"/>
<path style="stroke:none; fill:#ffe7d5" d="M 183.2 212.8L 183.2 215.2L 184 215.2C 183.799 214.038 183.748 213.798 183.2 212.8z"/>
<path style="stroke:none; fill:#ff8028" d="M 185.6 215.2C 186.766 214.318 187.118 213.966 188 212.8C 186.109 213.186 185.986 213.309 185.6 215.2z"/>
<path style="stroke:none; fill:#ffd2b7" d="M 188 212.8L 188.8 213.6L 188 212.8z"/>
<path style="stroke:none; fill:#ffffff" d="M 192.8 223.2C 190.573 223.154 188.567 222.918 186.4 222.4C 187.294 226.571 195.594 225.501 195.089 220.822C 194.774 217.911 190.408 216.626 188.8 214.4L 194.4 215.2C 193.511 211.051 186.037 212.49 186.511 216.778C 186.826 219.622 191.238 220.902 192.8 223.2z"/>
<path style="stroke:none; fill:#ffb888" d="M 194.4 212.8C 195.184 214.226 195.126 214.075 196.8 214.4L 196.8 213.6L 194.4 212.8z"/>
<path style="stroke:none; fill:#ffffff" d="M 202.447 213.623C 195.694 217.284 200.432 227.642 207.818 224.206C 213.734 221.454 209.603 209.743 202.447 213.623z"/>
<path style="stroke:none; fill:#ffc7a3" d="M 208 212.8L 208.8 213.6L 208 212.8z"/>
<path style="stroke:none; fill:#ff8028" d="M 208.8 212.8C 209.778 213.756 209.936 213.853 211.2 214.4C 210.222 213.444 210.064 213.347 208.8 212.8M 214.4 212.8L 214.4 224.8L 215.2 224.8C 215.2 220.946 215.901 216.377 214.4 212.8z"/>
<path style="stroke:none; fill:#ffffff" d="M 215.2 212.8L 215.2 224.8L 218.4 224.8C 218.401 221.034 218.514 217.908 220 214.4L 215.2 212.8z"/>
<path style="stroke:none; fill:#ffd2b7" d="M 220.8 212.8L 221.6 213.6L 220.8 212.8z"/>
<path style="stroke:none; fill:#ffffff" d="M 220.8 213.6C 223.651 217.263 223.997 220.256 224 224.8L 227.2 224.8C 227.2 219.744 228.132 211.649 220.8 213.6z"/>
<path style="stroke:none; fill:#ffd2b7" d="M 233.6 212.8L 234.4 213.6L 233.6 212.8z"/>
<path style="stroke:none; fill:#ffffff" d="M 232.8 215.2C 241.285 214.261 236.642 222.876 242.4 224.8C 242.4 220.057 239.542 205.656 232.8 215.2z"/>
<path style="stroke:none; fill:#ffd2b7" d="M 200.8 213.6L 201.6 214.4L 200.8 213.6M 218.134 213.866C 217.778 214.222 218.622 214.178 218.666 214.134C 219.022 213.778 218.178 213.822 218.134 213.866z"/>
<path style="stroke:none; fill:#ffe7d5" d="M 220 213.6C 220.784 215.026 220.726 214.875 222.4 215.2L 222.4 214.4L 220 213.6z"/>
<path style="stroke:none; fill:#ffb888" d="M 154.4 214.4C 155.119 216.099 155.101 216.081 156.8 216.8C 155.999 215.261 155.938 215.122 154.4 214.4M 163.2 214.4L 163.2 216.8L 165.6 216L 165.6 215.2L 163.2 214.4z"/>
<path style="stroke:none; fill:#ffa167" d="M 164.534 214.666C 164.178 215.022 165.022 214.978 165.066 214.934C 165.422 214.578 164.578 214.622 164.534 214.666z"/>
<path style="stroke:none; fill:#ffd2b7" d="M 165.6 214.4C 166.036 215.708 165.892 215.564 167.2 216C 166.764 214.692 166.908 214.836 165.6 214.4M 178.134 214.666C 177.778 215.022 178.622 214.978 178.666 214.934C 179.022 214.578 178.178 214.622 178.134 214.666z"/>
<path style="stroke:none; fill:#ff8028" d="M 184.266 214.934C 184.222 214.978 184.178 215.822 184.534 215.466C 184.578 215.422 184.622 214.578 184.266 214.934z"/>
<path style="stroke:none; fill:#ffc7a3" d="M 189.066 214.934C 189.022 214.978 188.978 215.822 189.334 215.466C 189.378 215.422 189.422 214.578 189.066 214.934z"/>
<path style="stroke:none; fill:#ff9148" d="M 189.6 214.4C 190.39 216.682 191.251 217.098 193.6 217.6L 193.6 216.8L 190.4 216L 192 215.2C 191.002 214.652 190.762 214.601 189.6 214.4z"/>
<path style="stroke:none; fill:#ffad79" d="M 190.4 215.2L 190.4 216L 193.6 216C 192.221 215.155 192.063 215.171 190.4 215.2z"/>
<path style="stroke:none; fill:#ffa167" d="M 194.4 214.4C 194.725 216.074 194.574 216.016 196 216.8C 195.447 215.69 195.212 215.311 194.4 214.4z"/>
<path style="stroke:none; fill:#ffe7d5" d="M 195.466 214.934C 195.422 214.978 195.378 215.822 195.734 215.466C 195.778 215.422 195.822 214.578 195.466 214.934z"/>
<path style="stroke:none; fill:#ff9148" d="M 196 214.4L 196.8 215.2L 196 214.4z"/>
<path style="stroke:none; fill:#ffd2b7" d="M 200 214.4L 200.8 215.2L 200 214.4z"/>
<path style="stroke:none; fill:#ffb888" d="M 203.2 216.8C 204.899 216.081 204.881 216.099 205.6 214.4C 203.901 215.119 203.919 215.101 203.2 216.8z"/>
<path style="stroke:none; fill:#ffc7a3" d="M 209.6 214.4L 210.4 215.2L 209.6 214.4z"/>
<path style="stroke:none; fill:#ff9a56" d="M 210.4 214.4L 210.4 216L 212 216C 211.564 214.692 211.708 214.836 210.4 214.4z"/>
<path style="stroke:none; fill:#ffe7d5" d="M 226.666 214.934C 226.622 214.978 226.578 215.822 226.934 215.466C 226.978 215.422 227.022 214.578 226.666 214.934z"/>
<path style="stroke:none; fill:#ffb888" d="M 234.4 216.8L 235.2 216.8C 236.282 216.113 236.284 216.142 237.6 216C 236.342 213.806 234.887 214.527 234.4 216.8M 151.2 215.2L 152 216L 151.2 215.2z"/>
<path style="stroke:none; fill:#ffc7a3" d="M 159.2 215.2L 160 216L 159.2 215.2z"/>
<path style="stroke:none; fill:#ff8739" d="M 162.4 215.2C 162.983 217.922 164.645 217.59 167.2 217.6C 167.2 216.162 167.189 216.382 166.4 215.2C 164.697 215.924 164.103 215.924 162.4 215.2z"/>
<path style="stroke:none; fill:#ffe7d5" d="M 169.866 215.734C 169.822 215.778 169.778 216.622 170.134 216.266C 170.178 216.222 170.222 215.378 169.866 215.734z"/>
<path style="stroke:none; fill:#ffd2b7" d="M 181.334 215.466C 180.978 215.822 181.822 215.778 181.866 215.734C 182.222 215.378 181.378 215.422 181.334 215.466z"/>
<path style="stroke:none; fill:#ffffff" d="M 183.466 215.734C 183.422 215.778 183.378 216.622 183.734 216.266C 183.778 216.222 183.822 215.378 183.466 215.734z"/>
<path style="stroke:none; fill:#ff8028" d="M 193.866 215.734C 193.822 215.778 193.778 216.622 194.134 216.266C 194.178 216.222 194.222 215.378 193.866 215.734z"/>
<path style="stroke:none; fill:#ffd2b7" d="M 202.4 215.2L 203.2 216L 202.4 215.2z"/>
<path style="stroke:none; fill:#ff8739" d="M 205.6 215.2C 206.08 218.317 206.072 220.002 203.2 221.6L 203.2 222.4L 206.4 223.2C 207.282 220.208 207.531 217.75 205.6 215.2z"/>
<path style="stroke:none; fill:#ff9a56" d="M 219.2 215.2L 219.2 216.8C 220.508 216.364 220.364 216.508 220.8 215.2L 219.2 215.2z"/>
<path style="stroke:none; fill:#ffb888" d="M 221.066 215.734C 221.022 215.778 220.978 216.622 221.334 216.266C 221.378 216.222 221.422 215.378 221.066 215.734z"/>
<path style="stroke:none; fill:#ff9148" d="M 221.6 215.2C 222.249 218.695 222.4 222.051 222.4 225.6L 223.2 225.6C 223.21 221.86 224.331 218.045 221.6 215.2z"/>
<path style="stroke:none; fill:#ffd2b7" d="M 222.4 215.2L 223.2 216L 222.4 215.2M 235.734 215.466C 235.378 215.822 236.222 215.778 236.266 215.734C 236.622 215.378 235.778 215.422 235.734 215.466z"/>
<path style="stroke:none; fill:#ff8739" d="M 232.8 226.4C 231.076 220.659 233.254 218.139 239.2 217.6C 239.2 216.162 239.189 216.383 238.4 215.2C 232.766 217.037 226.071 220.794 232.8 226.4z"/>
<path style="stroke:none; fill:#ffc7a3" d="M 243.2 215.2L 243.2 225.6L 240 224.8L 240 225.6C 241.441 226.05 242.498 226.259 244 226.4C 244 222.767 244.615 218.574 243.2 215.2z"/>
<path style="stroke:none; fill:#ffd2b7" d="M 147.734 216.266C 147.378 216.622 148.222 216.578 148.266 216.534C 148.622 216.178 147.778 216.222 147.734 216.266z"/>
<path style="stroke:none; fill:#ffc199" d="M 150.4 216L 151.2 216.8L 150.4 216z"/>
<path style="stroke:none; fill:#ffad79" d="M 154.4 216L 152 219.2C 153.715 218.295 154.479 217.946 154.4 216z"/>
<path style="stroke:none; fill:#ffc7a3" d="M 161.866 216.534C 161.822 216.578 161.778 217.422 162.134 217.066C 162.178 217.022 162.222 216.178 161.866 216.534z"/>
<path style="stroke:none; fill:#ff7514" d="M 164.534 216.266C 164.178 216.622 165.022 216.578 165.066 216.534C 165.422 216.178 164.578 216.222 164.534 216.266z"/>
<path style="stroke:none; fill:#ffad79" d="M 178.4 216L 178.4 216.8L 182.4 216.8C 180.985 216.177 179.971 216.07 178.4 216z"/>
<path style="stroke:none; fill:#ff6b01" d="M 192.534 216.266C 192.178 216.622 193.022 216.578 193.066 216.534C 193.422 216.178 192.578 216.222 192.534 216.266z"/>
<path style="stroke:none; fill:#ff9148" d="M 202.4 216L 202.4 220.8L 203.2 220.8C 203.162 218.998 203.099 217.642 202.4 216z"/>
<path style="stroke:none; fill:#ff6b01" d="M 204.8 216C 204.222 217.934 204.042 219.578 204 221.6C 206.444 220.011 206.507 218.292 204.8 216z"/>
<path style="stroke:none; fill:#ffb888" d="M 210.4 216C 210.86 218.084 210.801 219.5 210.4 221.6C 213.856 220.859 213.214 217.249 210.4 216z"/>
<path style="stroke:none; fill:#ffc199" d="M 218.4 216C 219.195 217.762 218.936 217.638 220.8 217.6C 219.889 216.788 219.51 216.553 218.4 216z"/>
<path style="stroke:none; fill:#ffe7d5" d="M 220 216L 220.8 216.8L 220 216z"/>
<path style="stroke:none; fill:#ffc7a3" d="M 228 216L 228 225.6C 226.559 225.15 225.502 224.941 224 224.8L 224 226.4L 228.8 226.4C 228.8 222.99 229.329 219.167 228 216z"/>
<path style="stroke:none; fill:#ffd2b7" d="M 233.6 216L 234.4 216.8L 233.6 216z"/>
<path style="stroke:none; fill:#ffad79" d="M 242.4 216L 242.4 225.6L 243.2 225.6C 243.2 222.414 243.642 218.958 242.4 216z"/>
<path style="stroke:none; fill:#ffffff" d="M 155.2 216.8L 156 217.6L 155.2 216.8z"/>
<path style="stroke:none; fill:#ffe7d5" d="M 167.466 217.334C 167.422 217.378 167.378 218.222 167.734 217.866C 167.778 217.822 167.822 216.978 167.466 217.334z"/>
<path style="stroke:none; fill:#ffc7a3" d="M 171.2 216.8L 171.2 220C 168.189 219.11 163.85 218.225 161.6 220.8L 172 220.8C 171.93 219.229 171.823 218.215 171.2 216.8z"/>
<path style="stroke:none; fill:#ffd2b7" d="M 177.6 216.8L 178.4 217.6L 177.6 216.8z"/>
<path style="stroke:none; fill:#ff9a56" d="M 178.4 216.8L 179.2 217.6L 178.4 216.8z"/>
<path style="stroke:none; fill:#ffe7d5" d="M 179.2 216.8C 178.263 219.968 178.4 223.11 178.4 226.4L 179.2 226.4C 179.202 222.896 179.421 220.054 180.8 216.8L 179.2 216.8z"/>
<path style="stroke:none; fill:#ff8028" d="M 180.8 216.8L 180.8 217.6L 184 217.6C 182.795 217.054 182.148 216.939 180.8 216.8z"/>
<path style="stroke:none; fill:#ff9148" d="M 197.6 216.8C 197.638 220.204 197.754 222.878 200.8 224.8C 199.786 222.114 199.234 219.124 197.6 216.8z"/>
<path style="stroke:none; fill:#ffe7d5" d="M 201.6 216.8L 201.6 220L 202.4 220C 202.261 218.652 202.146 218.005 201.6 216.8z"/>
<path style="stroke:none; fill:#ffd2b7" d="M 203.466 217.334C 203.422 217.378 203.378 218.222 203.734 217.866C 203.778 217.822 203.822 216.978 203.466 217.334z"/>
<path style="stroke:none; fill:#ffe7d5" d="M 210.4 216.8L 210.4 220L 211.2 220C 211.061 218.652 210.946 218.005 210.4 216.8z"/>
<path style="stroke:none; fill:#ff7514" d="M 244 216.8L 244 226.4L 244.8 226.4C 244.8 223.214 245.242 219.758 244 216.8z"/>
<path style="stroke:none; fill:#ffdfc7" d="M 153.6 219.2C 154.864 218.653 155.022 218.556 156 217.6C 154.736 218.147 154.578 218.244 153.6 219.2z"/>
<path style="stroke:none; fill:#ffc7a3" d="M 158.4 217.6L 158.4 221.6L 159.2 221.6C 159.13 220.029 159.023 219.015 158.4 217.6z"/>
<path style="stroke:none; fill:#ffd2b7" d="M 163.2 217.6L 163.2 218.4L 167.2 218.4C 165.785 217.777 164.771 217.67 163.2 217.6z"/>
<path style="stroke:none; fill:#ffad79" d="M 177.6 217.6L 177.6 225.6L 178.4 225.6C 178.4 222.869 178.662 220.13 177.6 217.6z"/>
<path style="stroke:none; fill:#ffc199" d="M 192.8 217.6L 193.6 218.4L 192.8 217.6z"/>
<path style="stroke:none; fill:#ff8739" d="M 193.6 217.6C 194.578 218.556 194.736 218.653 196 219.2C 195.022 218.244 194.864 218.147 193.6 217.6z"/>
<path style="stroke:none; fill:#ffa167" d="M 207.2 217.6L 207.2 221.6L 208 221.6C 207.93 220.029 207.823 219.015 207.2 217.6z"/>
<path style="stroke:none; fill:#ff9148" d="M 211.466 218.134C 211.422 218.178 211.378 219.022 211.734 218.666C 211.778 218.622 211.822 217.778 211.466 218.134z"/>
<path style="stroke:none; fill:#ffad79" d="M 218.4 217.6L 218.4 225.6L 219.2 225.6C 219.2 222.869 219.462 220.13 218.4 217.6z"/>
<path style="stroke:none; fill:#ffe7d5" d="M 235.2 217.6L 235.2 218.4L 239.2 219.2C 237.968 217.758 237.122 217.734 235.2 217.6M 149.6 218.4L 149.6 219.2L 152 219.2C 151.002 218.652 150.762 218.601 149.6 218.4z"/>
<path style="stroke:none; fill:#ff8739" d="M 179.2 218.4L 179.2 226.4L 180 226.4C 180 223.669 180.262 220.93 179.2 218.4z"/>
<path style="stroke:none; fill:#ffad79" d="M 198.666 218.934C 198.622 218.978 198.578 219.822 198.934 219.466C 198.978 219.422 199.022 218.578 198.666 218.934z"/>
<path style="stroke:none; fill:#ffb888" d="M 203.2 218.4L 202.4 221.6C 203.725 220.477 203.801 220.037 203.2 218.4z"/>
<path style="stroke:none; fill:#ffdfc7" d="M 219.2 218.4L 219.2 226.4L 220 226.4C 220 223.669 220.262 220.93 219.2 218.4z"/>
<path style="stroke:none; fill:#ff8028" d="M 223.2 218.4C 223.192 221.164 223.042 223.706 222.4 226.4C 224.631 224.45 224.289 220.995 223.2 218.4z"/>
<path style="stroke:none; fill:#ffd2b7" d="M 232.8 218.4L 233.6 219.2L 232.8 218.4z"/>
<path style="stroke:none; fill:#ffffff" d="M 236.8 224.8C 235.733 222.392 235.029 221.297 236.8 219.2C 231.385 217.324 229.7 224.567 236.8 224.8z"/>
<path style="stroke:none; fill:#ffe7d5" d="M 146.4 219.2L 146.4 224.8L 147.2 224.8C 147.185 222.766 147.188 221.066 146.4 219.2z"/>
<path style="stroke:none; fill:#ff9148" d="M 147.2 219.2L 147.2 225.6L 148 225.6L 148 220L 151.2 220C 149.785 219.377 148.771 219.27 147.2 219.2z"/>
<path style="stroke:none; fill:#ffb888" d="M 151.2 219.2L 151.2 220.8L 152.8 220.8C 152.364 219.492 152.508 219.636 151.2 219.2z"/>
<path style="stroke:none; fill:#ffede2" d="M 152.534 219.466C 152.178 219.822 153.022 219.778 153.066 219.734C 153.422 219.378 152.578 219.422 152.534 219.466z"/>
<path style="stroke:none; fill:#ffb888" d="M 153.6 219.2L 154.4 220L 153.6 219.2z"/>
<path style="stroke:none; fill:#ff9a56" d="M 195.2 219.2L 195.2 223.2L 196 223.2C 196.125 221.378 196.125 220.722 195.2 219.2z"/>
<path style="stroke:none; fill:#ffa167" d="M 235.2 219.2C 234.838 220.966 234.683 221.241 236 222.4C 235.846 221.179 235.705 220.298 235.2 219.2z"/>
<path style="stroke:none; fill:#ff9a56" d="M 236 219.2L 236 220L 239.2 220.8L 239.2 220L 236 219.2z"/>
<path style="stroke:none; fill:#ffc7a3" d="M 238.4 219.2L 239.2 220L 238.4 219.2z"/>
<path style="stroke:none; fill:#ffede2" d="M 148 220L 148 226.4L 148.8 226.4C 148.794 224.131 148.878 222.09 148 220z"/>
<path style="stroke:none; fill:#ffc7a3" d="M 148.8 220L 148.8 220.8L 151.2 220.8C 150.202 220.252 149.962 220.201 148.8 220z"/>
<path style="stroke:none; fill:#ff9148" d="M 157.6 220C 158.102 222.46 158.625 223.542 160.8 224.8C 159.847 223.034 158.914 221.509 157.6 220M 162.4 220C 162.947 221.264 163.044 221.422 164 222.4C 163.453 221.136 163.356 220.978 162.4 220z"/>
<path style="stroke:none; fill:#ffd2b7" d="M 190.4 220L 191.2 220.8L 190.4 220z"/>
<path style="stroke:none; fill:#ffc7a3" d="M 231.2 220L 232 220.8L 231.2 220M 236.534 220.266C 236.178 220.622 237.022 220.578 237.066 220.534C 237.422 220.178 236.578 220.222 236.534 220.266z"/>
<path style="stroke:none; fill:#ffdfc7" d="M 239.466 220.534C 239.422 220.578 239.378 221.422 239.734 221.066C 239.778 221.022 239.822 220.178 239.466 220.534z"/>
<path style="stroke:none; fill:#ff6b01" d="M 164 220.8L 164 221.6L 169.6 221.6C 167.734 220.812 166.034 220.815 164 220.8z"/>
<path style="stroke:none; fill:#ff9148" d="M 169.6 220.8C 168.417 221.589 168.638 221.6 167.2 221.6L 167.2 222.4L 169.6 223.2C 169.164 224.508 169.308 224.364 168 224.8L 168 225.6C 170.044 224.28 170.478 223.104 169.6 220.8M 184.8 220.8C 184.842 222.822 185.022 224.466 185.6 226.4L 186.4 226.4L 186.4 222.4C 187.583 223.189 187.362 223.2 188.8 223.2C 187.451 221.875 186.603 221.399 184.8 220.8z"/>
<path style="stroke:none; fill:#ffc199" d="M 191.2 220.8L 192 221.6L 191.2 220.8z"/>
<path style="stroke:none; fill:#ffe7d5" d="M 196 220.8L 196 224L 196.8 224C 196.661 222.652 196.546 222.005 196 220.8z"/>
<path style="stroke:none; fill:#ffdfc7" d="M 235.2 220.8L 236 221.6L 235.2 220.8z"/>
<path style="stroke:none; fill:#ff8028" d="M 236 223.2C 237.838 222.661 238.219 222.428 239.2 220.8C 237.009 220.969 236.462 221.042 236 223.2z"/>
<path style="stroke:none; fill:#ffd2b7" d="M 162.4 221.6L 163.2 222.4L 162.4 221.6z"/>
<path style="stroke:none; fill:#ff8028" d="M 164 221.6L 164 223.2L 168.8 223.2C 167.166 222.067 165.991 221.804 164 221.6M 188 221.6L 188 222.4C 189.441 222.85 190.498 223.059 192 223.2L 192 221.6L 188 221.6z"/>
<path style="stroke:none; fill:#ffdfc7" d="M 192.266 222.134C 192.222 222.178 192.178 223.022 192.534 222.666C 192.578 222.622 192.622 221.778 192.266 222.134z"/>
<path style="stroke:none; fill:#ffad79" d="M 210.4 221.6L 207.2 224.8L 207.2 225.6L 212 224C 211.447 222.89 211.212 222.511 210.4 221.6z"/>
<path style="stroke:none; fill:#ffede2" d="M 211.466 222.134C 211.422 222.178 211.378 223.022 211.734 222.666C 211.778 222.622 211.822 221.778 211.466 222.134z"/>
<path style="stroke:none; fill:#ffdfc7" d="M 170.4 222.4L 170.4 225.6L 171.2 225.6C 171.061 224.252 170.946 223.605 170.4 222.4z"/>
<path style="stroke:none; fill:#ffc199" d="M 204 222.4L 204.8 223.2L 204 222.4M 206.4 222.4L 207.2 223.2L 206.4 222.4z"/>
<path style="stroke:none; fill:#ffd2b7" d="M 235.2 222.4L 236 223.2L 235.2 222.4z"/>
<path style="stroke:none; fill:#ffad79" d="M 238.666 222.934C 238.622 222.978 238.578 223.822 238.934 223.466C 238.978 223.422 239.022 222.578 238.666 222.934M 192.8 225.6C 194.359 224.851 194.84 224.486 196 223.2C 194.442 223.949 193.96 224.314 192.8 225.6z"/>
<path style="stroke:none; fill:#ffd2b7" d="M 210.4 223.2C 209.451 224.149 209.178 224.467 208.8 225.6C 210.395 224.922 210.959 224.794 210.4 223.2z"/>
<path style="stroke:none; fill:#ffe7d5" d="M 236.8 223.2L 236.8 224.8C 238.108 224.364 237.964 224.508 238.4 223.2L 236.8 223.2z"/>
<path style="stroke:none; fill:#ffd2b7" d="M 160.8 224L 161.6 224.8L 160.8 224z"/>
<path style="stroke:none; fill:#ffffff" d="M 195.2 224L 196 224.8L 195.2 224z"/>
<path style="stroke:none; fill:#ff9a56" d="M 196 224L 196.8 224.8L 196 224z"/>
<path style="stroke:none; fill:#ffc7a3" d="M 200.8 224L 201.6 224.8L 200.8 224z"/>
<path style="stroke:none; fill:#ff9a56" d="M 237.6 224L 237.6 224.8L 240 225.6C 239.216 224.174 239.274 224.325 237.6 224z"/>
<path style="stroke:none; fill:#ffc7a3" d="M 144 224.8L 144 226.4L 148 226.4C 146.569 225.262 145.835 225.042 144 224.8z"/>
<path style="stroke:none; fill:#ffad79" d="M 160.8 224.8L 160.8 225.6C 162.983 226.248 164.92 226.383 167.2 226.4C 165.151 225.414 163.058 225.092 160.8 224.8z"/>
<path style="stroke:none; fill:#ffe7d5" d="M 163.2 224.8L 163.2 225.6L 166.4 225.6C 165.195 225.054 164.548 224.939 163.2 224.8z"/>
<path style="stroke:none; fill:#ffc199" d="M 166.4 224.8C 166.836 226.108 166.692 225.964 168 226.4L 168 224.8L 166.4 224.8M 169.866 225.334C 169.822 225.378 169.778 226.222 170.134 225.866C 170.178 225.822 170.222 224.978 169.866 225.334z"/>
<path style="stroke:none; fill:#ffad79" d="M 174.666 225.334C 174.622 225.378 174.578 226.222 174.934 225.866C 174.978 225.822 175.022 224.978 174.666 225.334z"/>
<path style="stroke:none; fill:#ffc7a3" d="M 175.2 224.8C 176.251 226.094 176.702 226.154 178.4 226.4C 177.166 225.386 176.762 225.209 175.2 224.8M 186.4 224.8L 186.4 225.6L 188.8 225.6C 187.802 225.052 187.562 225.001 186.4 224.8z"/>
<path style="stroke:none; fill:#ffe7d5" d="M 189.334 225.066C 188.978 225.422 189.822 225.378 189.866 225.334C 190.222 224.978 189.378 225.022 189.334 225.066z"/>
<path style="stroke:none; fill:#ffc7a3" d="M 190.4 224.8L 190.4 225.6L 194.4 226.4L 194.4 225.6L 190.4 224.8z"/>
<path style="stroke:none; fill:#ffe7d5" d="M 194.4 224.8L 195.2 225.6L 194.4 224.8z"/>
<path style="stroke:none; fill:#ffc199" d="M 195.2 224.8L 196 225.6L 195.2 224.8z"/>
<path style="stroke:none; fill:#ffad79" d="M 200.8 224.8L 200.8 225.6L 205.6 226.4C 203.966 225.267 202.791 225.004 200.8 224.8z"/>
<path style="stroke:none; fill:#ffd2b7" d="M 204.534 225.066C 204.178 225.422 205.022 225.378 205.066 225.334C 205.422 224.978 204.578 225.022 204.534 225.066z"/>
<path style="stroke:none; fill:#ffc199" d="M 205.6 224.8L 205.6 226.4L 207.2 226.4L 207.2 224.8L 205.6 224.8z"/>
<path style="stroke:none; fill:#ffc7a3" d="M 215.2 224.8L 215.2 226.4L 219.2 226.4C 217.77 225.262 217.035 225.042 215.2 224.8z"/>
<path style="stroke:none; fill:#ffdfc7" d="M 232.8 224.8L 232.8 225.6L 236 225.6C 234.795 225.054 234.148 224.939 232.8 224.8z"/>
<path style="stroke:none; fill:#ffc199" d="M 236 224.8C 237.159 226.117 237.434 225.962 239.2 225.6L 239.2 224.8L 236 224.8z"/>
<path style="stroke:none; fill:#ff9148" d="M 236.8 224.8L 237.6 225.6L 236.8 224.8z"/>
<path style="stroke:none; fill:#ffad79" d="M 247.466 225.334C 247.422 225.378 247.378 226.222 247.734 225.866C 247.778 225.822 247.822 224.978 247.466 225.334z"/>
<path style="stroke:none; fill:#ffc7a3" d="M 248 224.8C 249.051 226.094 249.502 226.154 251.2 226.4C 249.966 225.386 249.562 225.209 248 224.8z"/>
<path style="stroke:none; fill:#ffdfc7" d="M 168.534 225.866C 168.178 226.222 169.022 226.178 169.066 226.134C 169.422 225.778 168.578 225.822 168.534 225.866z"/>
<path style="stroke:none; fill:#ffad79" d="M 186.4 225.6L 186.4 226.4L 192 226.4C 190.134 225.612 188.434 225.615 186.4 225.6z"/>
<path style="stroke:none; fill:#ff9148" d="M 194.4 225.6L 195.2 226.4L 194.4 225.6z"/>
<path style="stroke:none; fill:#ffdfc7" d="M 207.734 225.866C 207.378 226.222 208.222 226.178 208.266 226.134C 208.622 225.778 207.778 225.822 207.734 225.866z"/>
<path style="stroke:none; fill:#ff9a56" d="M 208.8 225.6L 209.6 226.4L 208.8 225.6z"/>
<path style="stroke:none; fill:#ffad79" d="M 232.8 225.6L 232.8 226.4L 236 226.4C 234.795 225.854 234.148 225.739 232.8 225.6z"/>
<path style="stroke:none; fill:#ff9148" d="M 164 226.4L 164 227.2L 168 227.2C 166.585 226.577 165.571 226.47 164 226.4M 188.8 226.4L 188.8 227.2L 192.8 227.2C 191.385 226.577 190.371 226.47 188.8 226.4M 204 226.4L 204 227.2L 207.2 227.2C 205.995 226.654 205.348 226.539 204 226.4M 234.4 226.4L 234.4 227.2L 236.8 227.2C 235.802 226.652 235.562 226.601 234.4 226.4z"/>
<path style="stroke:none; fill:#ff8028" d="M 198.4 244C 200.3 243.082 201.952 242.134 204 241.6C 201.174 239.578 199.342 240.898 198.4 244z"/>
<path style="stroke:none; fill:#ff7514" d="M 155.2 241.6L 155.2 260L 156 260C 156 254.426 157.363 246.756 155.2 241.6z"/>
<path style="stroke:none; fill:#ff8739" d="M 156 241.6L 156 242.4C 159.409 243.407 162.862 243.2 166.4 243.2C 163.332 241.104 159.604 241.6 156 241.6z"/>
<path style="stroke:none; fill:#ffd2b7" d="M 200.8 241.6L 201.6 242.4L 200.8 241.6z"/>
<path style="stroke:none; fill:#ffffff" d="M 201.6 241.6L 200.8 242.4L 200.8 243.2L 200.8 244C 202.691 243.614 202.814 243.491 203.2 241.6L 201.6 241.6z"/>
<path style="stroke:none; fill:#ffa167" d="M 203.2 241.6L 202.4 244.8C 203.826 244.016 203.675 244.074 204 242.4L 204.8 242.4L 204.8 244.8L 205.6 244.8L 204.8 241.6L 203.2 241.6z"/>
<path style="stroke:none; fill:#ff9148" d="M 156 242.4C 156 248.346 155.108 255.076 156.8 260.8L 157.6 260.8C 156.522 254.995 158.246 247.752 156 242.4z"/>
<path style="stroke:none; fill:#ffe7d5" d="M 200.266 242.934C 200.222 242.978 200.178 243.822 200.534 243.466C 200.578 243.422 200.622 242.578 200.266 242.934z"/>
<path style="stroke:none; fill:#ffd2b7" d="M 204 242.4L 204 245.6L 204.8 245.6C 204.661 244.252 204.546 243.605 204 242.4z"/>
<path style="stroke:none; fill:#ffa167" d="M 156.8 243.2L 156.8 259.2L 157.6 259.2C 157.6 254.265 158.718 247.772 156.8 243.2z"/>
<path style="stroke:none; fill:#ffffff" d="M 157.6 243.2L 157.6 259.2L 160 259.2L 160 253.6C 164.011 253.27 172.662 248.492 166.146 244.143C 163.866 242.622 160.202 243.2 157.6 243.2z"/>
<path style="stroke:none; fill:#ffc199" d="M 165.6 243.2L 166.4 244L 165.6 243.2z"/>
<path style="stroke:none; fill:#ff9148" d="M 166.4 243.2C 167.56 244.486 168.041 244.851 169.6 245.6C 168.44 244.314 167.959 243.949 166.4 243.2M 224 249.6C 227.995 247.402 230.153 247.914 234.4 248L 233.6 250.4C 237.173 252.717 235.767 257.77 239.2 260.8C 237.26 255.334 236.144 250.594 237.6 244.8C 239.077 244.821 239.413 244.664 240.8 244C 241.695 246.554 242.973 246.9 245.6 247.2L 245.6 245.6L 241.6 245.6C 241.339 243.51 223.47 244.63 224 249.6z"/>
<path style="stroke:none; fill:#ffa167" d="M 199.734 244.266C 199.378 244.622 200.222 244.578 200.266 244.534C 200.622 244.178 199.778 244.222 199.734 244.266z"/>
<path style="stroke:none; fill:#ffc7a3" d="M 201.334 244.266C 200.978 244.622 201.822 244.578 201.866 244.534C 202.222 244.178 201.378 244.222 201.334 244.266z"/>
<path style="stroke:none; fill:#ffc199" d="M 239.734 244.266C 239.378 244.622 240.222 244.578 240.266 244.534C 240.622 244.178 239.778 244.222 239.734 244.266z"/>
<path style="stroke:none; fill:#ff8739" d="M 198.4 262.4L 199.2 262.4L 199.2 247.2L 204.8 247.2L 204.8 263.2C 206.254 259.734 206.64 251.646 205.118 248.115C 204.282 246.179 200.993 244.343 199.222 246.266C 196.667 249.041 198.4 258.76 198.4 262.4z"/>
<path style="stroke:none; fill:#ffb888" d="M 200.8 244.8L 200.8 245.6L 203.2 245.6C 202.202 245.052 201.962 245.001 200.8 244.8z"/>
<path style="stroke:none; fill:#ffede2" d="M 203.2 244.8L 204 245.6L 203.2 244.8z"/>
<path style="stroke:none; fill:#ff8028" d="M 237.6 244.8L 236 248C 237.597 247.005 238.046 246.646 237.6 244.8z"/>
<path style="stroke:none; fill:#ffffff" d="M 239.2 244.8L 236 249.6C 238.704 252.465 238.399 255.425 238.4 259.2L 244 259.2C 241.75 255.386 240.803 253.391 240.8 248.8L 244 248.8L 244 247.2C 242.162 246.661 241.781 246.428 240.8 244.8L 239.2 244.8z"/>
<path style="stroke:none; fill:#ffe7d5" d="M 241.6 244.8L 242.4 245.6L 241.6 244.8M 160 245.6L 160 250.4L 160.8 250.4C 160.762 248.598 160.699 247.242 160 245.6z"/>
<path style="stroke:none; fill:#ff9148" d="M 160.8 245.6C 160.898 248.571 161.139 250.05 164 251.2C 164.45 249.759 164.659 248.702 164.8 247.2L 164 247.2C 163.118 248.366 162.766 248.718 161.6 249.6L 162.4 245.6L 160.8 245.6z"/>
<path style="stroke:none; fill:#ffb888" d="M 162.4 245.6C 163.184 247.026 163.126 246.875 164.8 247.2C 163.822 246.244 163.664 246.147 162.4 245.6z"/>
<path style="stroke:none; fill:#ffe7d5" d="M 168 245.6L 168 249.6L 168.8 249.6C 168.73 248.029 168.623 247.015 168 245.6z"/>
<path style="stroke:none; fill:#ffad79" d="M 168.8 245.6L 168.8 247.2L 170.4 247.2C 169.964 245.892 170.108 246.036 168.8 245.6z"/>
<path style="stroke:none; fill:#ff8739" d="M 171.2 245.6L 171.2 246.4L 176 248C 175.417 245.278 173.755 245.61 171.2 245.6z"/>
<path style="stroke:none; fill:#ff9148" d="M 178.4 245.6L 178.4 246.4C 179.686 247.56 180.051 248.041 180.8 249.6L 181.6 249.6L 182.4 246.4C 180.959 245.95 179.902 245.741 178.4 245.6z"/>
<path style="stroke:none; fill:#ff8739" d="M 179.2 251.2L 179.2 252L 182.4 252C 182.494 255.177 182.806 257.437 185.6 259.2C 183.211 252.644 185.571 250.937 188.8 245.6C 184.794 246.561 182.958 250.04 179.2 251.2z"/>
<path style="stroke:none; fill:#ff9148" d="M 188.8 245.6C 190.187 247.202 191.484 247.138 193.6 247.2C 191.99 246.22 190.673 245.884 188.8 245.6z"/>
<path style="stroke:none; fill:#ff8739" d="M 207.2 252C 209.117 249.943 211.326 247.97 212.8 245.6C 209.091 246.355 206.826 248.046 207.2 252z"/>
<path style="stroke:none; fill:#ffa167" d="M 212.8 245.6C 213.584 247.026 213.526 246.875 215.2 247.2C 214.222 246.244 214.064 246.147 212.8 245.6z"/>
<path style="stroke:none; fill:#ff9148" d="M 214.4 245.6L 214.4 246.4L 217.6 247.2C 216.366 246.186 215.962 246.009 214.4 245.6z"/>
<path style="stroke:none; fill:#ffd2b7" d="M 238.4 245.6L 239.2 246.4L 238.4 245.6z"/>
<path style="stroke:none; fill:#ffc7a3" d="M 161.6 246.4L 161.6 249.6L 162.4 249.6C 162.261 248.252 162.146 247.605 161.6 246.4z"/>
<path style="stroke:none; fill:#ff9148" d="M 171.2 246.4L 171.2 260L 172 260C 172 255.71 172.87 250.379 171.2 246.4z"/>
<path style="stroke:none; fill:#ff8739" d="M 176.8 248.8L 180 247.2C 178.07 246.116 177.254 246.681 176.8 248.8z"/>
<path style="stroke:none; fill:#ffc7a3" d="M 241.334 246.666C 240.978 247.022 241.822 246.978 241.866 246.934C 242.222 246.578 241.378 246.622 241.334 246.666z"/>
<path style="stroke:none; fill:#ff7514" d="M 162.4 247.2L 162.4 249.6C 163.356 248.622 163.453 248.464 164 247.2L 162.4 247.2z"/>
<path style="stroke:none; fill:#ff9148" d="M 169.066 247.734C 169.022 247.778 168.978 248.622 169.334 248.266C 169.378 248.222 169.422 247.378 169.066 247.734z"/>
<path style="stroke:none; fill:#ffb888" d="M 169.6 247.2L 168 250.4C 169.182 251.189 168.962 251.2 170.4 251.2C 170.33 249.629 170.223 248.615 169.6 247.2z"/>
<path style="stroke:none; fill:#ff7514" d="M 172 247.2C 172 251.774 172.265 256.326 171.2 260.8C 174.023 258.333 173.374 250.476 172 247.2z"/>
<path style="stroke:none; fill:#ffffff" d="M 172.8 247.2L 172.8 259.2L 176 259.2C 176.005 253.38 177.834 251.775 180.8 247.2C 177.726 248.078 175.86 247.881 172.8 247.2z"/>
<path style="stroke:none; fill:#ffa167" d="M 176 247.2L 175.2 248.8L 176.8 248.8C 176.8 247.318 177.04 247.72 176 247.2z"/>
<path style="stroke:none; fill:#ffffff" d="M 181.6 247.2L 181.6 249.6L 182.4 249.6C 182.199 248.438 182.148 248.198 181.6 247.2z"/>
<path style="stroke:none; fill:#ffd2b7" d="M 187.2 247.2L 188 248L 187.2 247.2z"/>
<path style="stroke:none; fill:#ffffff" d="M 188.035 247.797C 180.581 250.729 184.708 262.285 192.618 258.606C 198.192 256.013 194.941 245.081 188.035 247.797z"/>
<path style="stroke:none; fill:#ffc7a3" d="M 192.8 247.2L 193.6 248L 192.8 247.2z"/>
<path style="stroke:none; fill:#ff8739" d="M 193.6 247.2L 195.2 250.4L 196 250.4C 195.461 248.562 195.228 248.181 193.6 247.2z"/>
<path style="stroke:none; fill:#ff8028" d="M 199.2 247.2L 199.2 262.4L 200 262.4C 200 257.679 201.036 251.575 199.2 247.2z"/>
<path style="stroke:none; fill:#ffd2b7" d="M 200 247.2L 200 261.6L 200.8 261.6C 200.8 257.094 201.753 251.378 200 247.2z"/>
<path style="stroke:none; fill:#ffffff" d="M 200.8 247.2C 200.8 254.03 201.124 258.91 197.6 264.8C 205.799 264.174 203.2 253.29 203.2 247.2L 200.8 247.2z"/>
<path style="stroke:none; fill:#ffad79" d="M 203.2 247.2L 203.2 260.8L 204 260.8C 204 256.51 204.87 251.179 203.2 247.2z"/>
<path style="stroke:none; fill:#ffe7d5" d="M 204 247.2L 204 264L 204.8 264C 204.8 258.851 206 251.967 204 247.2z"/>
<path style="stroke:none; fill:#ffffff" d="M 218.4 259.2L 218.4 257.6C 214.679 257.479 212.673 256.583 210.4 253.6L 219.2 253.6C 218.298 237.274 199.785 256.63 212.035 259.018C 214.08 259.416 216.326 259.2 218.4 259.2z"/>
<path style="stroke:none; fill:#ffc199" d="M 216.8 247.2L 217.6 248L 216.8 247.2z"/>
<path style="stroke:none; fill:#ffc7a3" d="M 226.4 247.2L 227.2 248L 226.4 247.2z"/>
<path style="stroke:none; fill:#ffffff" d="M 232 259.2L 232 257.6C 221.429 255.447 230.058 250.839 232.8 247.2C 221.736 247.3 220.006 259.166 232 259.2z"/>
<path style="stroke:none; fill:#ffad79" d="M 244 247.2C 243.281 248.899 243.299 248.881 241.6 249.6L 241.6 250.4L 244.8 250.4C 244.661 249.052 244.546 248.405 244 247.2z"/>
<path style="stroke:none; fill:#ffc7a3" d="M 244.8 247.2L 244.8 250.4L 245.6 250.4C 245.461 249.052 245.346 248.405 244.8 247.2z"/>
<path style="stroke:none; fill:#ff9a56" d="M 245.6 247.2L 245.6 250.4L 246.4 250.4C 246.261 249.052 246.146 248.405 245.6 247.2z"/>
<path style="stroke:none; fill:#ffad79" d="M 165.066 248.534C 165.022 248.578 164.978 249.422 165.334 249.066C 165.378 249.022 165.422 248.178 165.066 248.534z"/>
<path style="stroke:none; fill:#ffb888" d="M 177.6 248L 178.4 248.8L 177.6 248z"/>
<path style="stroke:none; fill:#ffe7d5" d="M 180.266 248.534C 180.222 248.578 180.178 249.422 180.534 249.066C 180.578 249.022 180.622 248.178 180.266 248.534z"/>
<path style="stroke:none; fill:#ffad79" d="M 185.6 248L 186.4 248.8L 185.6 248z"/>
<path style="stroke:none; fill:#ffb888" d="M 218.4 248L 218.4 249.6L 220 249.6C 219.564 248.292 219.708 248.436 218.4 248z"/>
<path style="stroke:none; fill:#ffd2b7" d="M 232 248L 232.8 248.8L 232 248z"/>
<path style="stroke:none; fill:#ffdfc7" d="M 233.6 248L 232.8 249.6L 234.4 249.6C 234.4 248.118 234.64 248.52 233.6 248z"/>
<path style="stroke:none; fill:#ffad79" d="M 236 248L 236.8 248.8L 236 248z"/>
<path style="stroke:none; fill:#ffb888" d="M 188 250.4C 189.674 250.075 189.616 250.226 190.4 248.8C 189.136 249.347 188.978 249.444 188 250.4z"/>
<path style="stroke:none; fill:#ffc7a3" d="M 194.4 248.8L 195.2 249.6L 194.4 248.8z"/>
<path style="stroke:none; fill:#ffd2b7" d="M 208.8 248.8L 209.6 249.6L 208.8 248.8z"/>
<path style="stroke:none; fill:#ff9148" d="M 211.2 252L 216.8 252L 216.8 251.2C 215.599 250.789 212.668 250.574 214.4 249.6C 212.277 249.108 211.833 250.026 211.2 252z"/>
<path style="stroke:none; fill:#ffb888" d="M 212.8 249.6L 212.8 250.4L 216 250.4C 214.621 249.556 214.463 249.571 212.8 249.6z"/>
<path style="stroke:none; fill:#ff8028" d="M 222.4 248.8C 222.026 250.998 222.239 252.969 222.4 255.2L 221.6 255.2L 221.6 252L 220.8 252C 221.138 255.273 221.874 257.534 224.8 259.2C 223.44 255.467 223.279 252.696 224 248.8L 222.4 248.8z"/>
<path style="stroke:none; fill:#ffdfc7" d="M 228 248.8L 228 249.6L 230.4 249.6C 229.402 249.052 229.162 249.001 228 248.8z"/>
<path style="stroke:none; fill:#ff9a56" d="M 232 248.8C 231.211 249.982 231.2 249.762 231.2 251.2C 232.613 250.417 232.764 250.222 232 248.8z"/>
<path style="stroke:none; fill:#ffe7d5" d="M 240.8 248.8L 240.8 249.6L 244 249.6C 242.795 249.054 242.148 248.939 240.8 248.8z"/>
<path style="stroke:none; fill:#ffc199" d="M 177.6 249.6L 177.6 250.4L 180.8 250.4C 179.595 249.854 178.948 249.739 177.6 249.6z"/>
<path style="stroke:none; fill:#ffad79" d="M 180.8 249.6L 176 251.2L 176 252C 177.766 251.801 181.706 251.875 180.8 249.6z"/>
<path style="stroke:none; fill:#ffd2b7" d="M 181.866 250.134C 181.822 250.178 181.778 251.022 182.134 250.666C 182.178 250.622 182.222 249.778 181.866 250.134M 187.2 249.6L 188 250.4L 187.2 249.6z"/>
<path style="stroke:none; fill:#ff8739" d="M 189.6 250.4C 191 253.113 190.68 254.512 188 256L 188 256.8L 192 257.6C 192.712 254.495 192.578 252.48 191.2 249.6L 189.6 250.4z"/>
<path style="stroke:none; fill:#ffb888" d="M 196 249.6C 195.962 251.464 195.838 251.205 197.6 252C 197.047 250.89 196.812 250.511 196 249.6z"/>
<path style="stroke:none; fill:#ff9148" d="M 219.2 249.6L 219.2 251.2C 220.508 250.764 220.364 250.908 220.8 249.6L 219.2 249.6z"/>
<path style="stroke:none; fill:#ffad79" d="M 226.4 250.4L 226.4 251.2L 229.6 251.2C 228.441 249.883 228.166 250.038 226.4 250.4z"/>
<path style="stroke:none; fill:#ff8739" d="M 229.6 249.6L 229.6 251.2L 231.2 251.2L 231.2 249.6L 229.6 249.6z"/>
<path style="stroke:none; fill:#ffede2" d="M 233.066 250.134C 233.022 250.178 232.978 251.022 233.334 250.666C 233.378 250.622 233.422 249.778 233.066 250.134z"/>
<path style="stroke:none; fill:#ff9148" d="M 240.8 249.6C 240.815 253.852 240.978 256.636 245.6 257.6C 244.368 256.158 243.522 256.134 241.6 256C 241.594 253.731 241.678 251.69 240.8 249.6z"/>
<path style="stroke:none; fill:#ffc199" d="M 161.6 250.4L 162.4 251.2L 161.6 250.4z"/>
<path style="stroke:none; fill:#ffd2b7" d="M 164 250.4L 164.8 251.2L 164 250.4z"/>
<path style="stroke:none; fill:#ffad79" d="M 168 250.4C 166.594 252.01 165.667 253.265 164.8 255.2L 165.6 255.2L 166.4 255.2C 166.4 253.157 167.611 252.726 169.6 252.8C 169.047 251.69 168.812 251.311 168 250.4z"/>
<path style="stroke:none; fill:#ffb888" d="M 184 250.4L 184.8 251.2L 184 250.4z"/>
<path style="stroke:none; fill:#ff9148" d="M 187.2 250.4L 187.2 256L 188 256C 187.985 253.966 187.988 252.266 187.2 250.4z"/>
<path style="stroke:none; fill:#ffe7d5" d="M 188 250.4L 188 256L 188.8 256C 188.888 254.046 189.142 252.302 189.6 250.4L 188 250.4z"/>
<path style="stroke:none; fill:#ffd2b7" d="M 212 250.4L 212.8 251.2L 212 250.4z"/>
<path style="stroke:none; fill:#ff8028" d="M 214.134 250.666C 213.778 251.022 214.622 250.978 214.666 250.934C 215.022 250.578 214.178 250.622 214.134 250.666z"/>
<path style="stroke:none; fill:#ffdfc7" d="M 220.266 250.934C 220.222 250.978 220.178 251.822 220.534 251.466C 220.578 251.422 220.622 250.578 220.266 250.934z"/>
<path style="stroke:none; fill:#ffb888" d="M 223.2 250.4L 224 251.2L 223.2 250.4z"/>
<path style="stroke:none; fill:#ffffff" d="M 228 250.4L 227.2 253.6L 228 253.6C 228.144 252.348 228.2 251.608 228 250.4z"/>
<path style="stroke:none; fill:#ffede2" d="M 237.6 250.4L 237.6 258.4L 238.4 258.4C 238.4 255.669 238.662 252.93 237.6 250.4z"/>
<path style="stroke:none; fill:#ffe7d5" d="M 241.6 250.4L 241.6 256L 242.4 256C 242.385 253.966 242.388 252.266 241.6 250.4z"/>
<path style="stroke:none; fill:#ff9148" d="M 242.4 250.4L 242.4 251.2L 245.6 251.2C 244.395 250.654 243.748 250.539 242.4 250.4z"/>
<path style="stroke:none; fill:#ffede2" d="M 168.8 251.2L 169.6 252L 168.8 251.2z"/>
<path style="stroke:none; fill:#ffffff" d="M 177.6 251.2C 176.663 254.368 176.8 257.51 176.8 260.8L 177.6 260.8C 177.6 257.651 178.081 254.28 177.6 251.2z"/>
<path style="stroke:none; fill:#ffe7d5" d="M 186.4 251.2L 186.4 254.4L 187.2 254.4C 187.061 253.052 186.946 252.405 186.4 251.2z"/>
<path style="stroke:none; fill:#ff6b01" d="M 188.8 251.2L 188.8 256C 190.836 254.692 191.023 253.605 191.2 251.2L 188.8 251.2z"/>
<path style="stroke:none; fill:#ffb888" d="M 192 251.2L 192.8 252L 192 251.2z"/>
<path style="stroke:none; fill:#ffe7d5" d="M 195.2 251.2L 195.2 254.4L 196 254.4C 195.861 253.052 195.746 252.405 195.2 251.2z"/>
<path style="stroke:none; fill:#ff9148" d="M 206.4 251.2C 206.417 253.479 206.552 255.417 207.2 257.6L 208 257.6C 207.884 255.138 207.804 253.232 206.4 251.2z"/>
<path style="stroke:none; fill:#ffad79" d="M 219.2 251.2L 219.2 254.4L 220 254.4C 219.861 253.052 219.746 252.405 219.2 251.2z"/>
<path style="stroke:none; fill:#ff9148" d="M 221.6 251.2L 221.6 255.2L 222.4 255.2C 222.33 253.629 222.223 252.615 221.6 251.2M 226.4 251.2C 226.51 254.541 226.91 256.218 230.4 256.8L 230.4 256C 228.17 254.783 227.57 253.391 226.4 251.2z"/>
<path style="stroke:none; fill:#ffb888" d="M 228 251.2L 228.8 252L 228 251.2z"/>
<path style="stroke:none; fill:#ff7514" d="M 236.8 251.2L 236.8 256.8L 237.6 256.8C 237.585 254.766 237.587 253.066 236.8 251.2M 242.4 251.2L 242.4 256L 243.2 256C 243.162 254.198 243.099 252.842 242.4 251.2z"/>
<path style="stroke:none; fill:#ffffff" d="M 168 252L 168.8 252.8L 168 252z"/>
<path style="stroke:none; fill:#ff9148" d="M 176 252L 176 260L 176.8 260C 176.8 257.269 177.062 254.53 176 252z"/>
<path style="stroke:none; fill:#ffb888" d="M 177.6 252L 178.4 252.8L 177.6 252z"/>
<path style="stroke:none; fill:#ff9148" d="M 196.266 252.534C 196.222 252.578 196.178 253.422 196.534 253.066C 196.578 253.022 196.622 252.178 196.266 252.534z"/>
<path style="stroke:none; fill:#ffede2" d="M 196.8 252L 196.8 256L 197.6 256C 197.53 254.429 197.423 253.415 196.8 252z"/>
<path style="stroke:none; fill:#ffd2b7" d="M 212.8 252L 212.8 252.8L 216.8 252.8C 215.385 252.177 214.371 252.07 212.8 252z"/>
<path style="stroke:none; fill:#ffc7a3" d="M 220 252C 220 253.438 219.989 253.217 219.2 254.4C 216.67 253.338 213.931 253.6 211.2 253.6L 211.2 254.4C 214.368 255.337 217.51 255.2 220.8 255.2C 220.661 253.852 220.546 253.205 220 252z"/>
<path style="stroke:none; fill:#ffe7d5" d="M 225.6 252L 225.6 254.4L 226.4 254.4C 226.199 253.238 226.148 252.998 225.6 252M 163.2 252.8L 163.2 253.6L 165.6 253.6C 164.602 253.052 164.362 253.001 163.2 252.8z"/>
<path style="stroke:none; fill:#ffede2" d="M 167.2 252.8L 168 253.6L 167.2 252.8z"/>
<path style="stroke:none; fill:#ffc199" d="M 168 252.8L 168.8 253.6L 168 252.8z"/>
<path style="stroke:none; fill:#ffad79" d="M 207.466 253.334C 207.422 253.378 207.378 254.222 207.734 253.866C 207.778 253.822 207.822 252.978 207.466 253.334z"/>
<path style="stroke:none; fill:#ffe7d5" d="M 160 253.6L 160 259.2L 160.8 259.2C 160.785 257.166 160.788 255.466 160 253.6z"/>
<path style="stroke:none; fill:#ff9148" d="M 160.8 253.6L 160.8 260L 161.6 260L 161.6 254.4L 164.8 254.4C 163.385 253.777 162.371 253.67 160.8 253.6z"/>
<path style="stroke:none; fill:#ffe7d5" d="M 166.134 253.866C 165.778 254.222 166.622 254.178 166.666 254.134C 167.022 253.778 166.178 253.822 166.134 253.866z"/>
<path style="stroke:none; fill:#ffa167" d="M 167.2 253.6L 168 254.4L 167.2 253.6z"/>
<path style="stroke:none; fill:#ffb888" d="M 196 253.6C 195.889 255.562 195.943 255.741 197.6 256.8C 197.123 255.552 196.729 254.702 196 253.6z"/>
<path style="stroke:none; fill:#ffe7d5" d="M 210.666 254.134C 210.622 254.178 210.578 255.022 210.934 254.666C 210.978 254.622 211.022 253.778 210.666 254.134z"/>
<path style="stroke:none; fill:#ffd2b7" d="M 227.466 254.134C 227.422 254.178 227.378 255.022 227.734 254.666C 227.778 254.622 227.822 253.778 227.466 254.134z"/>
<path style="stroke:none; fill:#ffc7a3" d="M 161.6 254.4L 161.6 260C 160.159 259.55 159.102 259.341 157.6 259.2L 157.6 260.8L 162.4 260.8C 162.484 258.173 162.546 256.658 164.8 255.2C 163.595 254.654 162.948 254.539 161.6 254.4z"/>
<path style="stroke:none; fill:#ff9a56" d="M 211.2 254.4C 211.919 256.099 211.901 256.081 213.6 256.8C 212.718 255.634 212.366 255.282 211.2 254.4z"/>
<path style="stroke:none; fill:#ff9148" d="M 232.8 254.4C 232.61 256.076 232.653 257.511 232.8 259.2L 233.6 259.2C 233.562 257.398 233.499 256.042 232.8 254.4z"/>
<path style="stroke:none; fill:#ff6b01" d="M 212.8 255.2L 212.8 256L 218.4 256C 216.534 255.212 214.834 255.215 212.8 255.2z"/>
<path style="stroke:none; fill:#ff9148" d="M 216.8 256.8C 218.664 256.838 218.405 256.962 219.2 255.2C 218.09 255.753 217.711 255.988 216.8 256.8z"/>
<path style="stroke:none; fill:#ff8028" d="M 230.4 256.8L 232.8 256.8L 232 255.2C 230.692 255.636 230.836 255.492 230.4 256.8M 244.534 255.466C 244.178 255.822 245.022 255.778 245.066 255.734C 245.422 255.378 244.578 255.422 244.534 255.466z"/>
<path style="stroke:none; fill:#ffc199" d="M 192 256L 192.8 256.8L 192 256z"/>
<path style="stroke:none; fill:#ffad79" d="M 195.2 256L 192 259.2C 192.911 260.012 193.29 260.247 194.4 260.8C 194.706 259.114 195.374 257.673 195.2 256z"/>
<path style="stroke:none; fill:#ff8028" d="M 213.6 256L 213.6 257.6L 217.6 257.6C 216.17 256.462 215.435 256.242 213.6 256z"/>
<path style="stroke:none; fill:#ffc199" d="M 233.6 256L 234.4 256.8L 233.6 256z"/>
<path style="stroke:none; fill:#ffd2b7" d="M 240.8 256L 241.6 256.8L 240.8 256z"/>
<path style="stroke:none; fill:#ffc7a3" d="M 188.8 256.8L 189.6 257.6L 188.8 256.8z"/>
<path style="stroke:none; fill:#ffede2" d="M 196 256.8L 193.6 260C 195.314 259.095 196.079 258.746 196 256.8z"/>
<path style="stroke:none; fill:#ffc199" d="M 208 256.8L 208.8 257.6L 208 256.8M 212.8 256.8L 213.6 257.6L 212.8 256.8z"/>
<path style="stroke:none; fill:#ffad79" d="M 218.4 256.8L 218.4 260L 219.2 260C 219.061 258.652 218.946 258.005 218.4 256.8z"/>
<path style="stroke:none; fill:#ffe7d5" d="M 219.2 256.8L 219.2 260L 220 260C 219.861 258.652 219.746 258.005 219.2 256.8z"/>
<path style="stroke:none; fill:#ffad79" d="M 228.8 256.8L 228.8 257.6L 231.2 257.6C 230.202 257.052 229.962 257.001 228.8 256.8z"/>
<path style="stroke:none; fill:#ffd2b7" d="M 231.2 256.8L 232 259.2L 232.8 259.2L 232.8 256.8L 231.2 256.8z"/>
<path style="stroke:none; fill:#ffe7d5" d="M 233.6 256.8L 232.8 260C 234.125 258.877 234.201 258.437 233.6 256.8z"/>
<path style="stroke:none; fill:#ffc7a3" d="M 242.4 256.8L 243.2 257.6L 242.4 256.8M 245.6 256.8C 244.771 257.749 244.529 258.083 244 259.2L 244.8 260L 245.6 260L 246.4 260C 246.261 258.652 246.146 258.005 245.6 256.8z"/>
<path style="stroke:none; fill:#ff8028" d="M 208 257.6L 208 259.2L 209.6 259.2C 209.164 257.892 209.308 258.036 208 257.6z"/>
<path style="stroke:none; fill:#ffc7a3" d="M 185.6 258.4L 186.4 259.2L 185.6 258.4M 209.6 258.4L 210.4 259.2L 209.6 258.4z"/>
<path style="stroke:none; fill:#ffd2b7" d="M 224.8 258.4L 225.6 259.2L 224.8 258.4z"/>
<path style="stroke:none; fill:#ffc7a3" d="M 172.8 259.2L 172.8 260.8L 176.8 260.8C 175.37 259.662 174.635 259.442 172.8 259.2z"/>
<path style="stroke:none; fill:#ffa167" d="M 185.6 259.2L 185.6 260L 190.4 260.8L 190.4 260L 185.6 259.2z"/>
<path style="stroke:none; fill:#ffdfc7" d="M 188 259.2L 188 260L 190.4 260C 189.402 259.452 189.162 259.401 188 259.2z"/>
<path style="stroke:none; fill:#ffc199" d="M 190.4 259.2L 190.4 260.8L 192 260.8L 192 259.2L 190.4 259.2z"/>
<path style="stroke:none; fill:#ffad79" d="M 209.6 259.2L 209.6 260C 212.033 260.72 214.265 260.794 216.8 260.8C 214.537 259.783 212.067 259.514 209.6 259.2z"/>
<path style="stroke:none; fill:#ffd2b7" d="M 212.534 259.466C 212.178 259.822 213.022 259.778 213.066 259.734C 213.422 259.378 212.578 259.422 212.534 259.466z"/>
<path style="stroke:none; fill:#ffe7d5" d="M 214.134 259.466C 213.778 259.822 214.622 259.778 214.666 259.734C 215.022 259.378 214.178 259.422 214.134 259.466z"/>
<path style="stroke:none; fill:#ffc7a3" d="M 215.734 259.466C 215.378 259.822 216.222 259.778 216.266 259.734C 216.622 259.378 215.778 259.422 215.734 259.466z"/>
<path style="stroke:none; fill:#ff9148" d="M 217.334 259.466C 216.978 259.822 217.822 259.778 217.866 259.734C 218.222 259.378 217.378 259.422 217.334 259.466z"/>
<path style="stroke:none; fill:#ffa167" d="M 225.334 259.466C 224.978 259.822 225.822 259.778 225.866 259.734C 226.222 259.378 225.378 259.422 225.334 259.466z"/>
<path style="stroke:none; fill:#ffd2b7" d="M 226.4 259.2L 226.4 260L 232.8 260.8C 230.732 259.386 228.893 259.258 226.4 259.2z"/>
<path style="stroke:none; fill:#ffa167" d="M 231.734 259.466C 231.378 259.822 232.222 259.778 232.266 259.734C 232.622 259.378 231.778 259.422 231.734 259.466z"/>
<path style="stroke:none; fill:#ffd2b7" d="M 239.2 259.2L 239.2 260L 245.6 260.8C 243.532 259.386 241.693 259.258 239.2 259.2z"/>
<path style="stroke:none; fill:#ff9148" d="M 244 259.2L 244.8 260L 244 259.2z"/>
<path style="stroke:none; fill:#ffe7d5" d="M 192.534 260.266C 192.178 260.622 193.022 260.578 193.066 260.534C 193.422 260.178 192.578 260.222 192.534 260.266z"/>
<path style="stroke:none; fill:#ffdfc7" d="M 216.8 260L 216.8 260.8L 219.2 260.8C 218.202 260.252 217.962 260.201 216.8 260z"/>
<path style="stroke:none; fill:#ff9148" d="M 219.2 260L 220 260.8L 219.2 260z"/>
<path style="stroke:none; fill:#ffad79" d="M 226.4 260L 226.4 260.8L 230.4 260.8C 228.985 260.177 227.971 260.07 226.4 260M 232.8 260L 233.6 260.8L 232.8 260M 239.2 260L 239.2 260.8L 243.2 260.8C 241.785 260.177 240.771 260.07 239.2 260z"/>
<path style="stroke:none; fill:#ff9148" d="M 245.6 260L 246.4 260.8L 245.6 260z"/>
<path style="stroke:none; fill:#ff8739" d="M 188.8 260.8L 188.8 261.6L 192 261.6C 190.795 261.054 190.148 260.939 188.8 260.8z"/>
<path style="stroke:none; fill:#ffa167" d="M 203.2 260.8C 202.016 263.298 200.578 264.695 198.4 266.4L 198.4 267.2L 201.6 267.2C 201.6 264.555 205.273 263.65 203.2 260.8z"/>
<path style="stroke:none; fill:#ff9148" d="M 212.8 260.8L 212.8 261.6L 216.8 261.6C 215.385 260.977 214.371 260.87 212.8 260.8z"/>
<path style="stroke:none; fill:#ff8739" d="M 228 260.8L 228 261.6L 231.2 261.6C 229.995 261.054 229.348 260.939 228 260.8z"/>
<path style="stroke:none; fill:#ff9148" d="M 240.8 260.8L 240.8 261.6L 244 261.6C 242.795 261.054 242.148 260.939 240.8 260.8z"/>
<path style="stroke:none; fill:#ff8739" d="M 195.2 261.6C 195.435 264.649 195.987 266.246 199.2 266.4C 197.995 264.447 197.102 262.895 195.2 261.6z"/>
<path style="stroke:none; fill:#ff9a56" d="M 196 261.6L 196 262.4L 199.2 263.2L 199.2 262.4L 196 261.6z"/>
<path style="stroke:none; fill:#ffc7a3" d="M 199.2 262.4L 200 263.2L 199.2 262.4z"/>
<path style="stroke:none; fill:#ffdfc7" d="M 203.2 264C 202.411 265.182 202.4 264.962 202.4 266.4C 203.431 265.246 203.521 265.413 203.2 264z"/>
<path style="stroke:none; fill:#ffb888" d="M 204 264L 204.8 264.8L 204 264z"/>
<path style="stroke:none; fill:#ffe7d5" d="M 197.6 264.8L 197.6 265.6L 200.8 265.6C 199.595 265.054 198.948 264.939 197.6 264.8z"/>
<path style="stroke:none; fill:#ffffff" d="M 201.334 265.866C 200.978 266.222 201.822 266.178 201.866 266.134C 202.222 265.778 201.378 265.822 201.334 265.866z"/>
<path style="stroke:none; fill:#ffa167" d="M 120.266 292.534C 120.222 292.578 120.178 293.422 120.534 293.066C 120.578 293.022 120.622 292.178 120.266 292.534z"/>
<path style="stroke:none; fill:#ffd2b7" d="M 120.266 294.134C 120.222 294.178 120.178 295.022 120.534 294.666C 120.578 294.622 120.622 293.778 120.266 294.134z"/>
<path style="stroke:none; fill:#ff9a56" d="M 279.2 293.6L 279.2 296L 280 296C 279.799 294.838 279.748 294.598 279.2 293.6z"/>
<path style="stroke:none; fill:#ffb888" d="M 120.8 296.8L 121.6 297.6L 120.8 296.8M 278.4 297.6L 279.2 298.4L 278.4 297.6z"/>
<path style="stroke:none; fill:#ff9a56" d="M 121.6 298.4L 122.4 299.2L 121.6 298.4z"/>
<path style="stroke:none; fill:#ffa167" d="M 277.6 299.2L 278.4 300L 277.6 299.2z"/>
<path style="stroke:none; fill:#ff9148" d="M 122.4 300L 123.2 300.8L 122.4 300z"/>
<path style="stroke:none; fill:#ffad79" d="M 276.8 300.8L 277.6 301.6L 276.8 300.8z"/>
<path style="stroke:none; fill:#ffa167" d="M 123.2 301.6L 124 302.4L 123.2 301.6z"/>
<path style="stroke:none; fill:#ffd2b7" d="M 276 302.4L 276.8 303.2L 276 302.4z"/>
<path style="stroke:none; fill:#ffad79" d="M 275.2 303.2L 276 304L 275.2 303.2z"/>
<path style="stroke:none; fill:#ffc7a3" d="M 124.8 304L 125.6 304.8L 124.8 304z"/>
<path style="stroke:none; fill:#ff9148" d="M 274.4 304L 275.2 304.8L 274.4 304z"/>
<path style="stroke:none; fill:#ffc7a3" d="M 125.6 304.8L 126.4 305.6L 125.6 304.8z"/>
<path style="stroke:none; fill:#ff9148" d="M 273.6 304.8L 274.4 305.6L 273.6 304.8z"/>
<path style="stroke:none; fill:#ffc7a3" d="M 126.4 305.6L 127.2 306.4L 126.4 305.6z"/>
<path style="stroke:none; fill:#ff9a56" d="M 272.8 305.6L 273.6 306.4L 272.8 305.6z"/>
<path style="stroke:none; fill:#ffd2b7" d="M 127.2 306.4L 128 307.2L 127.2 306.4z"/>
<path style="stroke:none; fill:#ffa167" d="M 272 306.4L 272.8 307.2L 272 306.4z"/>
<path style="stroke:none; fill:#ffc7a3" d="M 271.2 307.2L 272 308L 271.2 307.2z"/>
<path style="stroke:none; fill:#ffb888" d="M 129.6 308L 130.4 308.8L 129.6 308z"/>
<path style="stroke:none; fill:#ff9a56" d="M 269.6 308L 270.4 308.8L 269.6 308z"/>
<path style="stroke:none; fill:#ffa167" d="M 131.2 308.8L 132 309.6L 131.2 308.8z"/>
<path style="stroke:none; fill:#ffdfc7" d="M 268.8 308.8L 269.6 309.6L 268.8 308.8z"/>
<path style="stroke:none; fill:#ffa167" d="M 132.8 309.6L 133.6 310.4L 132.8 309.6z"/>
<path style="stroke:none; fill:#ff9148" d="M 266.4 309.6L 267.2 310.4L 266.4 309.6z"/>
<path style="stroke:none; fill:#ffc7a3" d="M 267.2 309.6L 268 310.4L 267.2 309.6z"/>
<path style="stroke:none; fill:#ffad79" d="M 135.2 310.4L 136 311.2L 135.2 310.4z"/>
<path style="stroke:none; fill:#ff9a56" d="M 264 310.4L 264.8 311.2L 264 310.4z"/>
<path style="stroke:none; fill:#ffc7a3" d="M 264.8 310.4L 265.6 311.2L 264.8 310.4z"/>
<path style="stroke:none; fill:#ffdfc7" d="M 138.134 311.466C 137.778 311.822 138.622 311.778 138.666 311.734C 139.022 311.378 138.178 311.422 138.134 311.466z"/>
<path style="stroke:none; fill:#ffb888" d="M 139.2 311.2L 139.2 312L 260 312C 250.645 308.074 234.184 311.2 224 311.2L 139.2 311.2z"/>
<path style="stroke:none; fill:#ffd2b7" d="M 260 311.2L 260 312L 262.4 312C 261.402 311.452 261.162 311.401 260 311.2z"/>
</g>
</svg>